DBRep_DrawableShape

CASCADE Topology V1, (c) Matra-Datavision
Locations 1
1
              1               0               0              -5 
              0               1               0              -5 
              0               0               1              -5 
Curve2ds 48
1 0 0 1 0 
1 0 0 1 0 
1 10 0 0 -1 
1 0 0 0 1 
1 0 -10 1 0 
1 0 0 1 0 
1 0 0 0 -1 
1 0 0 0 1 
1 0 0 0 1 
1 0 0 1 0 
1 0 0 1 0 
1 0 10 1 0 
1 10 0 0 1 
1 0 0 1 0 
7 0 0  1 2 2  0 1  4.2426406871192857 1 
 0 2 2.8284271247461898 2
1 0 0 0.70710678118654757 -0.70710678118654746 
7 0 0  1 2 2  0 1  4.2426406871192848 1 
 0 2 2.8284271247461898 2
1 2 -1.9999999999999996 0.70710678118654746 0.70710678118654757 
7 0 0  1 2 2  0 1  4.2426406871192857 1 
 0 2 2.8284271247461903 2
1 4 4.4408920985006262e-16 -0.70710678118654757 0.70710678118654746 
7 0 0  1 2 2  0 1  4.2426406871192857 1 
 0 2 2.8284271247461898 2
1 1.9999999999999996 2.0000000000000004 -0.70710678118654746 -0.70710678118654768 
1 10 0 0 1 
1 0 10 1 0 
1 10 0 0 -1 
1 10 0 0 1 
1 0 0 0 1 
1 0 10 1 0 
1 0 -10 1 0 
1 0 10 1 0 
1 0 0 1 0 
1 0 0 0.70710678118654757 -0.70710678118654757 
1 0 0 1 0 
1 3.0000000000000004 -3.0000000000000004 0.70710678118654757 0.70710678118654757 
1 0 0 1 0 
1 6 0 -0.70710678118654757 0.70710678118654757 
1 0 0 1 0 
1 3.0000000000000004 3.0000000000000004 -0.70710678118654757 -0.70710678118654757 
1 0 0 0 -1 
1 10 0 0 1 
1 0 0 0 1 
1 4.2426406871192857 0 0 1 
1 4.2426406871192857 0 0 1 
1 0 0 0 1 
1 4.2426406871192848 0 0 1 
1 0 0 0 1 
1 4.2426406871192857 0 0 1 
1 0 0 0 1 
Curves 24
1 0 0 0 0 0 1 
1 0 0 10 -0 1 0 
1 0 10 0 0 0 1 
1 0 0 0 -0 1 0 
1 0 0 0 1 0 -0 
1 10 0 0 0 0 1 
1 0 0 10 1 0 -0 
1 -1.4142135623730949 1.4142135623730951 5 -1.5700924586837752e-16 -1 0 
1 -1.4142135623730954 -1.4142135623730949 5 1 -1.5700924586837752e-16 0 
1 1.4142135623730947 -1.4142135623730954 5 1.5700924586837749e-16 1 0 
1 1.4142135623730951 1.4142135623730949 5 -1 7.8504622934188758e-17 0 
1 0 10 10 1 0 -0 
1 10 0 10 0 1 0 
1 0 10 0 1 0 -0 
1 10 10 0 0 0 1 
1 -2.1213203435596424 2.1213203435596428 -5 -1.0467283057891832e-16 -1 0 
1 -2.1213203435596428 -2.1213203435596424 -5 1 -1.0467283057891835e-16 0 
1 2.1213203435596419 -2.1213203435596428 -5 2.0934566115783665e-16 1 0 
1 2.1213203435596428 2.1213203435596424 -5 -1 1.0467283057891832e-16 0 
1 10 0 0 -0 1 0 
7 0 0  1 2 2  -2.1213203435596424 2.1213203435596428 -5  -1.4142135623730949 1.4142135623730951 5 
 0 2 1 2
7 0 0  1 2 2  -2.1213203435596428 -2.1213203435596428 -5  -1.4142135623730954 -1.4142135623730947 5 
 0 2 1 2
7 0 0  1 2 2  2.1213203435596419 -2.1213203435596428 -5  1.4142135623730945 -1.4142135623730954 5 
 0 2 1 2
7 0 0  1 2 2  2.1213203435596428 2.1213203435596428 -5  1.4142135623730951 1.4142135623730949 5 
 0 2 1 2
Polygon3D 0
PolygonOnTriangulations 0
Surfaces 12
1 0 0 0 1 0 -0 0 0 1 0 -1 0 
1 0 0 0 -0 1 0 0 0 1 1 0 -0 
1 0 0 10 0 0 1 1 0 -0 -0 1 0 
1 0 10 0 -0 1 0 0 0 1 1 0 -0 
1 0 0 0 0 0 1 1 0 -0 -0 1 0 
1 10 0 0 1 0 -0 0 0 1 0 -1 0 
9 0 0 0 0 1 1 2 2 2 2 -2.1213203435596424 2.1213203435596428 -5  -1.4142135623730949 1.4142135623730951 5  
-2.1213203435596428 -2.1213203435596428 -5  -1.4142135623730954 -1.4142135623730947 5  

0 2
4.2426406871192857 2

0 2
1 2

1 -1.4142135623730949 1.4142135623730951 5 0 0 1 0.70710678118654735 -0.70710678118654768 0 0.70710678118654768 0.70710678118654735 -0 
9 0 0 0 0 1 1 2 2 2 2 -2.1213203435596428 -2.1213203435596424 -5  -1.4142135623730954 -1.4142135623730949 5  
2.1213203435596419 -2.1213203435596428 -5  1.4142135623730945 -1.4142135623730954 5  

0 2
4.2426406871192848 2

0 2
1 2

9 0 0 0 0 1 1 2 2 2 2 2.1213203435596419 -2.1213203435596428 -5  1.4142135623730947 -1.4142135623730954 5  
2.1213203435596428 2.1213203435596428 -5  1.4142135623730951 1.4142135623730949 5  

0 2
4.2426406871192857 2

0 2
1 2

9 0 0 0 0 1 1 2 2 2 2 2.1213203435596428 2.1213203435596424 -5  1.4142135623730951 1.4142135623730949 5  
-2.1213203435596428 2.1213203435596428 -5  -1.4142135623730947 1.4142135623730951 5  

0 2
4.2426406871192857 2

0 2
1 2

1 -2.1213203435596424 2.1213203435596428 -5 -0 0 1 0.70710678118654746 -0.70710678118654768 0 0.70710678118654768 0.70710678118654746 0 
Triangulations 0

TShapes 65
Ve
1e-07
0 0 10
0 0

0101101
*
Ve
1e-07
0 0 0
0 0

0101101
*
Ed
 1e-07 1 1 0
1  1 0 0 10
2  1 1 0 0 10
2  2 2 0 0 10
0

0101000
-65 0 +64 0 *
Ve
1e-07
0 10 10
0 0

0101101
*
Ed
 1e-07 1 1 0
1  2 0 0 10
2  3 1 0 0 10
2  4 3 0 0 10
0

0101000
-62 0 +65 0 *
Ve
1e-07
0 10 0
0 0

0101101
*
Ed
 1e-07 1 1 0
1  3 0 0 10
2  5 1 0 0 10
2  6 4 0 0 10
0

0101000
-62 0 +60 0 *
Ed
 1e-07 1 1 0
1  4 0 0 10
2  7 1 0 0 10
2  8 5 0 0 10
0

0101000
-60 0 +64 0 *
Wi

0101000
-63 0 -61 0 +59 0 +58 0 *
Fa
0  1e-07 1 0

0111000
+57 0 *
Ve
1e-07
10 0 0
0 0

0101101
*
Ed
 1e-07 1 1 0
1  5 0 0 10
2  9 2 0 0 10
2  10 5 0 0 10
0

0101000
-55 0 +64 0 *
Ve
1e-07
10 0 10
0 0

0101101
*
Ed
 1e-07 1 1 0
1  6 0 0 10
2  11 6 0 0 10
2  12 2 0 0 10
0

0101000
-53 0 +55 0 *
Ed
 1e-07 1 1 0
1  7 0 0 10
2  13 2 0 0 10
2  14 3 0 0 10
0

0101000
-53 0 +65 0 *
Wi

0101000
-54 0 -52 0 +51 0 +63 0 *
Fa
0  1e-07 2 0

0111000
+50 0 *
Ve
1e-07
-1.41421356237309 1.4142135623731 5
0 0

0101101
*
Ve
1e-07
-1.4142135623731 -1.41421356237309 5
0 0

0101101
*
Ed
 1e-07 1 1 0
1  8 0 0 2.82842712474619
2  15 7 0 0 2.82842712474619
2  16 8 0 0 2.82842712474619
0

0101000
+48 0 -47 0 *
Ve
1e-07
1.41421356237309 -1.4142135623731 5
0 0

0101101
*
Ed
 1e-07 1 1 0
1  9 0 0 2.82842712474619
2  17 9 0 0 2.82842712474619
2  18 8 0 0 2.82842712474619
0

0101000
+47 0 -45 0 *
Ve
1e-07
1.4142135623731 1.41421356237309 5
0 0

0101101
*
Ed
 1e-07 1 1 0
1  10 0 0 2.82842712474619
2  19 10 0 0 2.82842712474619
2  20 8 0 0 2.82842712474619
0

0101000
+45 0 -43 0 *
Ed
 1e-07 1 1 0
1  11 0 0 2.82842712474619
2  21 11 0 0 2.82842712474619
2  22 8 0 0 2.82842712474619
0

0101000
+43 0 -48 0 *
Wi

0101000
-46 0 -44 0 -42 0 -41 0 *
Ve
1e-07
10 10 10
0 0

0101101
*
Ed
 1e-07 1 1 0
1  12 0 0 10
2  23 4 0 0 10
2  24 3 0 0 10
0

0101000
-39 0 +62 0 *
Ed
 1e-07 1 1 0
1  13 0 0 10
2  25 6 0 0 10
2  26 3 0 0 10
0

0101000
-39 0 +53 0 *
Wi

0101000
-61 1 -38 1 +51 1 +37 1 *
Fa
0  1e-07 3 1

0101000
+40 0 +36 0 *
Ve
1e-07
10 10 0
0 0

0101101
*
Ed
 1e-07 1 1 0
1  14 0 0 10
2  27 4 0 0 10
2  28 5 0 0 10
0

0101000
-34 0 +60 0 *
Ed
 1e-07 1 1 0
1  15 0 0 10
2  29 6 0 0 10
2  30 4 0 0 10
0

0101000
-39 0 +34 0 *
Wi

0101000
-33 0 -32 0 +38 0 +59 0 *
Fa
0  1e-07 4 0

0111000
+31 0 *
Ve
1e-07
-2.12132034355964 2.12132034355964 -5
0 0

0101101
*
Ve
1e-07
-2.12132034355964 -2.12132034355964 -5
0 0

0101101
*
Ed
 1e-07 1 1 0
1  16 0 0 4.24264068711929
2  31 7 0 0 4.24264068711929
2  32 12 0 0 4.24264068711929
0

0101000
+29 0 -28 0 *
Ve
1e-07
2.12132034355964 -2.12132034355964 -5
0 0

0101101
*
Ed
 1e-07 1 1 0
1  17 0 0 4.24264068711928
2  33 9 0 0 4.24264068711928
2  34 12 0 0 4.24264068711928
0

0101000
+28 0 -26 0 *
Ve
1e-07
2.12132034355964 2.12132034355964 -5
0 0

0101101
*
Ed
 1e-07 1 1 0
1  18 0 0 4.24264068711929
2  35 10 0 0 4.24264068711929
2  36 12 0 0 4.24264068711929
0

0101000
+26 0 -24 0 *
Ed
 1e-07 1 1 0
1  19 0 0 4.24264068711929
2  37 11 0 0 4.24264068711929
2  38 12 0 0 4.24264068711929
0

0101000
+24 0 -29 0 *
Wi

0101000
-27 0 -25 0 -23 0 -22 0 *
Ed
 1e-07 1 1 0
1  20 0 0 10
2  39 6 0 0 10
2  40 5 0 0 10
0

0101000
-34 0 +55 0 *
Wi

0101000
-58 1 -33 1 +54 1 +20 1 *
Fa
0  1e-07 5 1

0101000
+21 0 +19 0 *
Wi

0101000
-52 0 -37 0 +32 0 +20 0 *
Fa
0  1e-07 6 0

0111000
+17 0 *
Ed
 1e-07 1 1 0
1  21 0 0 1
2  41 7 0 0 1
2  42 11 0 0 1
0

0101000
+29 0 -48 0 *
Ed
 1e-07 1 1 0
1  22 0 0 1
2  43 7 0 0 1
2  44 9 0 0 1
0

0101000
+28 0 -47 0 *
Wi

0101000
+27 0 -15 0 +14 0 -46 0 *
Fa
0  1e-07 7 0

0101000
+13 0 *
Ed
 1e-07 1 1 0
1  23 0 0 1
2  45 9 0 0 1
2  46 10 0 0 1
0

0101000
+26 0 -45 0 *
Wi

0101000
+25 0 -14 0 +11 0 -44 0 *
Fa
0  1e-07 9 0

0101000
+10 0 *
Ed
 1e-07 1 1 0
1  24 0 0 1
2  47 10 0 0 1
2  48 11 0 0 1
0

0101000
+24 0 -43 0 *
Wi

0101000
+23 0 -11 0 +8 0 -42 0 *
Fa
0  1e-07 10 0

0101000
+7 0 *
Wi

0101000
+22 0 -8 0 +15 0 -41 0 *
Fa
0  1e-07 11 0

0101000
+5 0 *
Sh

0101000
-56 1 -49 1 +35 0 +30 1 -18 0 +16 1 -12 0 -9 0 -6 0 -4 0 
*
So

0100000
+3 0 *
Co

1100000
+2 0 *

+1 0 
*
*
*
*
*
*
*
*
*
*
*
*
*
*
*
*
*
*
*
*
*
*
*
*
*
*
*
*
*
*
*
*
*
*
*
*
*
*
*
*
*
*
*
*
*
*
*
*
*
*
*
*
*
*
*
*
*
*
*
*
*
*
*
*
*