DBRep_DrawableShape

CASCADE Topology V1, (c) Matra-Datavision
Locations 1
1
              1               0               0             150 
              0               1               0               0 
              0               0               1               0 
Curve2ds 6
1 0 1000 1 0 
2 0 0 1 0 -0 1 100
1 6.2831853071795862 -0 0 1 
1 0 -0 0 1 
1 0 0 1 0 
2 0 0 1 0 -0 1 100
Curves 3
2 0 0 1000 0 0 1 1 0 -0 -0 1 0 100
1 100 -2.4492935982947064e-14 0 0 0 1 
2 0 0 0 0 0 1 1 0 -0 -0 1 0 100
Polygon3D 0
PolygonOnTriangulations 4
49 1 2 3 4 5 6 7 8 9 10 11 12 13 14 15 16 17 18 19 20 21 22 23 24 25 26 27 28 29 30 31 32 33 34 35 36 37 38 39 40 41 42 43 44 45 46 47 48 1 
p 21.6478440258479 1 0 0.130899693899575 0.261799387799149 0.392699081698724 0.523598775598299 0.654498469497873 0.785398163397448 0.916297857297023 1.0471975511966 1.17809724509617 1.30899693899575 1.43989663289532 1.5707963267949 1.70169602069447 1.83259571459405 1.96349540849362 2.0943951023932 2.22529479629277 2.35619449019234 2.48709418409192 2.61799387799149 2.74889357189107 2.87979326579064 3.01069295969022 3.14159265358979 3.27249234748937 3.40339204138894 3.53429173528852 3.66519142918809 3.79609112308767 3.92699081698724 4.05789051088681 4.18879020478639 4.31968989868596 4.45058959258554 4.58148928648511 4.71238898038469 4.84328867428426 4.97418836818384 5.10508806208341 5.23598775598299 5.36688744988256 5.49778714378213 5.62868683768171 5.75958653158128 5.89048622548086 6.02138591938043 6.15228561328001 6.28318530717959 
2 14 2 
p 100.00000002 1 0 1000 
2 15 1 
p 100.00000002 1 0 1000 
49 1 2 3 4 5 6 7 8 9 10 11 12 13 14 15 16 17 18 19 20 21 22 23 24 25 26 27 28 29 30 31 32 33 34 35 36 37 38 39 40 41 42 43 44 45 46 47 48 1 
p 21.6478440258479 1 0 0.130899693899575 0.261799387799149 0.392699081698724 0.523598775598299 0.654498469497873 0.785398163397448 0.916297857297023 1.0471975511966 1.17809724509617 1.30899693899575 1.43989663289532 1.5707963267949 1.70169602069447 1.83259571459405 1.96349540849362 2.0943951023932 2.22529479629277 2.35619449019234 2.48709418409192 2.61799387799149 2.74889357189107 2.87979326579064 3.01069295969022 3.14159265358979 3.27249234748937 3.40339204138894 3.53429173528852 3.66519142918809 3.79609112308767 3.92699081698724 4.05789051088681 4.18879020478639 4.31968989868596 4.45058959258554 4.58148928648511 4.71238898038469 4.84328867428426 4.97418836818384 5.10508806208341 5.23598775598299 5.36688744988256 5.49778714378213 5.62868683768171 5.75958653158128 5.89048622548086 6.02138591938043 6.15228561328001 6.28318530717959 
Surfaces 3
2 0 0 0 0 0 1 1 0 -0 -0 1 0 100
1 0 0 1000 0 0 1 1 0 -0 -0 1 0 
1 0 0 0 0 0 1 1 0 -0 -0 1 0 
Triangulations 3
26 24 1 3.40741737109317
100 -2.44929359829471e-14 1000 100 -2.44929359829471e-14 1000 86.6025403784439 50 1000 50 86.6025403784439 1000 6.12323399573677e-15 100 1000 -50 86.6025403784439 1000 -86.6025403784438 50 1000 -100 5.66553889764798e-14 1000 -86.6025403784439 -49.9999999999999 1000 -50 -86.6025403784438 1000 -1.83697019872103e-14 -100 1000 50 -86.6025403784439 1000 86.6025403784439 -50 1000 100 -2.44929359829471e-14 0 100 -2.44929359829471e-14 0 86.6025403784439 50 0 50 86.6025403784439 0 6.12323399573677e-15 100 0 -50 86.6025403784439 0 -86.6025403784438 50 0 -100 5.66553889764798e-14 0 -86.6025403784439 -49.9999999999999 0 -50 -86.6025403784438 0 -1.83697019872103e-14 -100 0 50 -86.6025403784439 0 86.6025403784439 -50 0 0 1000 6.28318530717959 1000 0.523598775598299 1000 1.0471975511966 1000 1.5707963267949 1000 2.0943951023932 1000 2.61799387799149 1000 3.14159265358979 1000 3.66519142918809 1000 4.18879020478639 1000 4.71238898038469 1000 5.23598775598299 1000 5.75958653158129 1000 6.28318530717959 0 0 0 0.523598775598299 0 1.0471975511966 0 1.5707963267949 0 2.0943951023932 0 2.61799387799149 0 3.14159265358979 0 3.66519142918809 0 4.18879020478639 0 4.71238898038469 0 5.23598775598299 0 5.75958653158129 0 6 5 19 7 20 21 7 6 20 8 21 22 8 7 21 9 22 23 9 8 22 10 23 24 10 9 23 1 15 16 11 24 25 11 10 24 12 25 26 12 11 25 3 16 17 13 26 14 13 12 26 2 13 14 3 1 16 4 17 18 4 3 17 5 18 19 5 4 18 6 19 20 
49 48 1 0
100 -2.44929359829471e-14 1000 99.144486137381 13.0526192220052 1000 96.5925826289068 25.8819045102521 1000 92.3879532511287 38.268343236509 1000 86.6025403784439 50 1000 79.3353340291235 60.8761429008721 1000 70.7106781186548 70.7106781186547 1000 60.8761429008721 79.3353340291235 1000 50 86.6025403784439 1000 38.268343236509 92.3879532511287 1000 25.8819045102521 96.5925826289068 1000 13.0526192220051 99.144486137381 1000 -1.60812264967664e-14 100 1000 -13.0526192220052 99.144486137381 1000 -25.8819045102521 96.5925826289068 1000 -38.268343236509 92.3879532511287 1000 -50 86.6025403784438 1000 -60.8761429008721 79.3353340291235 1000 -70.7106781186547 70.7106781186548 1000 -79.3353340291235 60.8761429008721 1000 -86.6025403784438 50 1000 -92.3879532511286 38.268343236509 1000 -96.5925826289068 25.8819045102521 1000 -99.144486137381 13.0526192220052 1000 -100 1.01064309961486e-13 1000 -99.1444861373811 -13.052619222005 1000 -96.5925826289069 -25.8819045102519 1000 -92.3879532511287 -38.2683432365088 1000 -86.6025403784439 -49.9999999999999 1000 -79.3353340291236 -60.8761429008719 1000 -70.7106781186549 -70.7106781186546 1000 -60.8761429008722 -79.3353340291234 1000 -50.0000000000002 -86.6025403784437 1000 -38.2683432365092 -92.3879532511286 1000 -25.8819045102523 -96.5925826289068 1000 -13.0526192220054 -99.144486137381 1000 -2.84823227897248e-13 -100 1000 13.0526192220049 -99.1444861373811 1000 25.8819045102518 -96.5925826289069 1000 38.2683432365087 -92.3879532511288 1000 49.9999999999997 -86.602540378444 1000 60.8761429008718 -79.3353340291237 1000 70.7106781186545 -70.710678118655 1000 79.3353340291233 -60.8761429008724 1000 86.6025403784437 -50.0000000000004 1000 92.3879532511285 -38.2683432365094 1000 96.5925826289067 -25.8819045102525 1000 99.144486137381 -13.0526192220056 1000 0 0 1000 100 0 99.144486137381 13.0526192220052 96.5925826289068 25.8819045102521 92.3879532511287 38.268343236509 86.6025403784439 50 79.3353340291235 60.8761429008721 70.7106781186548 70.7106781186548 60.8761429008721 79.3353340291235 50 86.6025403784438 38.268343236509 92.3879532511287 25.8819045102521 96.5925826289068 13.0526192220051 99.144486137381 -1.4210854715202e-14 100 -13.0526192220052 99.144486137381 -25.8819045102521 96.5925826289068 -38.268343236509 92.3879532511287 -50 86.6025403784438 -60.8761429008721 79.3353340291235 -70.7106781186547 70.7106781186548 -79.3353340291235 60.8761429008721 -86.6025403784438 50 -92.3879532511286 38.268343236509 -96.5925826289068 25.8819045102521 -99.144486137381 13.0526192220052 -100 9.9475983006414e-14 -99.1444861373811 -13.052619222005 -96.5925826289069 -25.8819045102519 -92.3879532511287 -38.2683432365088 -86.6025403784439 -49.9999999999999 -79.3353340291236 -60.8761429008719 -70.7106781186549 -70.7106781186546 -60.8761429008722 -79.3353340291234 -50.0000000000002 -86.6025403784437 -38.2683432365092 -92.3879532511286 -25.8819045102523 -96.5925826289068 -13.0526192220054 -99.144486137381 -2.8421709430404e-13 -100 13.0526192220049 -99.1444861373811 25.8819045102518 -96.5925826289069 38.2683432365087 -92.3879532511288 49.9999999999997 -86.602540378444 60.8761429008718 -79.3353340291237 70.7106781186545 -70.710678118655 79.3353340291233 -60.8761429008724 86.6025403784437 -50.0000000000004 92.3879532511285 -38.2683432365094 96.5925826289067 -25.8819045102525 99.144486137381 -13.0526192220056 0 0 49 42 43 49 43 44 49 44 45 49 45 46 49 46 47 49 47 48 49 48 1 49 1 2 49 2 3 49 3 4 49 4 5 49 5 6 49 6 7 49 7 8 49 8 9 49 9 10 49 10 11 49 11 12 49 12 13 49 13 14 49 14 15 49 15 16 49 16 17 49 17 18 49 18 19 49 19 20 49 20 21 49 21 22 49 22 23 49 23 24 49 24 25 49 25 26 49 26 27 49 27 28 49 28 29 49 29 30 49 30 31 49 31 32 49 32 33 49 33 34 49 34 35 49 35 36 49 36 37 49 37 38 49 38 39 49 39 40 49 40 41 49 41 42 
49 48 1 0
100 -2.44929359829471e-14 0 99.144486137381 13.0526192220052 0 96.5925826289068 25.8819045102521 0 92.3879532511287 38.268343236509 0 86.6025403784439 50 0 79.3353340291235 60.8761429008721 0 70.7106781186548 70.7106781186547 0 60.8761429008721 79.3353340291235 0 50 86.6025403784439 0 38.268343236509 92.3879532511287 0 25.8819045102521 96.5925826289068 0 13.0526192220051 99.144486137381 0 -1.60812264967664e-14 100 0 -13.0526192220052 99.144486137381 0 -25.8819045102521 96.5925826289068 0 -38.268343236509 92.3879532511287 0 -50 86.6025403784438 0 -60.8761429008721 79.3353340291235 0 -70.7106781186547 70.7106781186548 0 -79.3353340291235 60.8761429008721 0 -86.6025403784438 50 0 -92.3879532511286 38.268343236509 0 -96.5925826289068 25.8819045102521 0 -99.144486137381 13.0526192220052 0 -100 1.01064309961486e-13 0 -99.1444861373811 -13.052619222005 0 -96.5925826289069 -25.8819045102519 0 -92.3879532511287 -38.2683432365088 0 -86.6025403784439 -49.9999999999999 0 -79.3353340291236 -60.8761429008719 0 -70.7106781186549 -70.7106781186546 0 -60.8761429008722 -79.3353340291234 0 -50.0000000000002 -86.6025403784437 0 -38.2683432365092 -92.3879532511286 0 -25.8819045102523 -96.5925826289068 0 -13.0526192220054 -99.144486137381 0 -2.84823227897248e-13 -100 0 13.0526192220049 -99.1444861373811 0 25.8819045102518 -96.5925826289069 0 38.2683432365087 -92.3879532511288 0 49.9999999999997 -86.602540378444 0 60.8761429008718 -79.3353340291237 0 70.7106781186545 -70.710678118655 0 79.3353340291233 -60.8761429008724 0 86.6025403784437 -50.0000000000004 0 92.3879532511285 -38.2683432365094 0 96.5925826289067 -25.8819045102525 0 99.144486137381 -13.0526192220056 0 0 0 0 100 -2.8421709430404e-14 99.144486137381 13.0526192220052 96.5925826289068 25.8819045102521 92.3879532511287 38.268343236509 86.6025403784439 50 79.3353340291235 60.8761429008721 70.7106781186548 70.7106781186548 60.8761429008721 79.3353340291235 50 86.6025403784438 38.268343236509 92.3879532511287 25.8819045102521 96.5925826289068 13.0526192220051 99.144486137381 -1.4210854715202e-14 100 -13.0526192220052 99.144486137381 -25.8819045102521 96.5925826289068 -38.268343236509 92.3879532511287 -50 86.6025403784438 -60.8761429008721 79.3353340291235 -70.7106781186547 70.7106781186548 -79.3353340291235 60.8761429008721 -86.6025403784438 50 -92.3879532511286 38.268343236509 -96.5925826289068 25.8819045102521 -99.144486137381 13.0526192220052 -100 9.9475983006414e-14 -99.1444861373811 -13.052619222005 -96.5925826289069 -25.8819045102519 -92.3879532511287 -38.2683432365088 -86.6025403784439 -49.9999999999999 -79.3353340291236 -60.8761429008719 -70.7106781186549 -70.7106781186546 -60.8761429008722 -79.3353340291234 -50.0000000000002 -86.6025403784437 -38.2683432365092 -92.3879532511286 -25.8819045102523 -96.5925826289068 -13.0526192220054 -99.144486137381 -2.8421709430404e-13 -100 13.0526192220049 -99.1444861373811 25.8819045102518 -96.5925826289069 38.2683432365087 -92.3879532511288 49.9999999999997 -86.602540378444 60.8761429008718 -79.3353340291237 70.7106781186545 -70.710678118655 79.3353340291233 -60.8761429008724 86.6025403784437 -50.0000000000004 92.3879532511285 -38.2683432365094 96.5925826289067 -25.8819045102525 99.144486137381 -13.0526192220056 0 0 49 42 43 49 43 44 49 44 45 49 45 46 49 46 47 49 47 48 49 48 1 49 1 2 49 2 3 49 3 4 49 4 5 49 5 6 49 6 7 49 7 8 49 8 9 49 9 10 49 10 11 49 11 12 49 12 13 49 13 14 49 14 15 49 15 16 49 16 17 49 17 18 49 18 19 49 19 20 49 20 21 49 21 22 49 22 23 49 23 24 49 24 25 49 25 26 49 26 27 49 27 28 49 28 29 49 29 30 49 30 31 49 31 32 49 32 33 49 33 34 49 34 35 49 35 36 49 36 37 49 37 38 49 38 39 49 39 40 49 40 41 49 41 42 

TShapes 13
Ve
1e-07
100 -2.44929359829471e-14 1000
0 0

0101101
*
Ed
 1e-07 1 1 0
1  1 0 0 6.28318530717959
2  1 1 0 0 6.28318530717959
2  2 2 0 0 6.28318530717959
6  1 2 0
0

0101100
+13 0 -13 0 *
Ve
1e-07
100 -2.44929359829471e-14 0
0 0

0101101
*
Ed
 1e-07 1 1 0
1  2 0 0 1000
3  3 4CN 1 0 0 1000
7  2 3 1 0
0

0101000
-13 0 +11 0 *
Ed
 1e-07 1 1 0
1  3 0 0 6.28318530717959
2  5 1 0 0 6.28318530717959
2  6 3 0 0 6.28318530717959
6  4 3 0
0

0101100
+11 0 -11 0 *
Wi

0101000
-12 0 +10 0 +9 0 -10 0 *
Fa
0  1e-07 1 0
2  1
0111000
+8 0 *
Wi

0101000
+12 0 *
Fa
0  1e-07 2 0
2  2
0111000
+6 0 *
Wi

0101000
-9 0 *
Fa
0  1e-07 3 0
2  3
0111000
-4 0 *
Sh

0101100
+7 0 +5 0 -3 0 *
So

1100100
+2 0 *

+1 1 