DBRep_DrawableShape

CASCADE Topology V1, (c) Matra-Datavision
Locations 0
Curve2ds 6
1 0 1000 1 0 
2 0 0 1 0 -0 1 100
1 6.2831853071795862 -0 0 1 
1 0 -0 0 1 
1 0 0 1 0 
2 0 0 1 0 -0 1 100
Curves 3
2 0 0 1000 0 0 1 1 0 -0 -0 1 0 100
1 100 -2.4492935982947064e-14 0 0 0 1 
2 0 0 0 0 0 1 1 0 -0 -0 1 0 100
Polygon3D 0
PolygonOnTriangulations 6
37 1 3 4 5 6 7 8 9 10 11 12 13 14 15 16 17 18 19 20 21 22 23 24 25 26 27 28 29 30 31 32 33 34 35 36 37 2 
p 4.0000000008 1 0 0.174532925199433 0.349065850398866 0.523598775598299 0.698131700797732 0.872664625997165 1.0471975511966 1.22173047639603 1.39626340159546 1.5707963267949 1.74532925199433 1.91986217719376 2.0943951023932 2.26892802759263 2.44346095279206 2.6179938779915 2.79252680319093 2.96705972839036 3.1415926535898 3.31612557878923 3.49065850398866 3.66519142918809 3.83972435438753 4.01425727958696 4.18879020478639 4.36332312998583 4.53785605518526 4.71238898038469 4.88692190558413 5.06145483078356 5.23598775598299 5.41052068118242 5.58505360638186 5.75958653158129 5.93411945678072 6.10865238198015 6.28318530717959 
37 1 2 3 4 5 6 7 8 9 10 11 12 13 14 15 16 17 18 19 20 21 22 23 24 25 26 27 28 29 30 31 32 33 34 35 36 1 
p 4.0000000008 1 0 0.174532925199433 0.349065850398866 0.523598775598299 0.698131700797732 0.872664625997165 1.0471975511966 1.22173047639603 1.39626340159546 1.5707963267949 1.74532925199433 1.91986217719376 2.0943951023932 2.26892802759263 2.44346095279206 2.6179938779915 2.79252680319093 2.96705972839036 3.1415926535898 3.31612557878923 3.49065850398866 3.66519142918809 3.83972435438753 4.01425727958696 4.18879020478639 4.36332312998583 4.53785605518526 4.71238898038469 4.88692190558413 5.06145483078356 5.23598775598299 5.41052068118242 5.58505360638186 5.75958653158129 5.93411945678072 6.10865238198015 6.28318530717959 
2 38 2 
p 4.0000000008 1 0 1000 
2 39 1 
p 4.0000000008 1 0 1000 
37 39 40 41 42 43 44 45 46 47 48 49 50 51 52 53 54 55 56 57 58 59 60 61 62 63 64 65 66 67 68 69 70 71 72 73 74 38 
p 4.0000000008 1 0 0.174532925199433 0.349065850398866 0.523598775598299 0.698131700797732 0.872664625997165 1.0471975511966 1.22173047639603 1.39626340159546 1.5707963267949 1.74532925199433 1.91986217719376 2.0943951023932 2.26892802759263 2.44346095279206 2.6179938779915 2.79252680319093 2.96705972839036 3.1415926535898 3.31612557878923 3.49065850398866 3.66519142918809 3.83972435438753 4.01425727958696 4.18879020478639 4.36332312998583 4.53785605518526 4.71238898038469 4.88692190558413 5.06145483078356 5.23598775598299 5.41052068118242 5.58505360638186 5.75958653158129 5.93411945678072 6.10865238198015 6.28318530717959 
37 1 2 3 4 5 6 7 8 9 10 11 12 13 14 15 16 17 18 19 20 21 22 23 24 25 26 27 28 29 30 31 32 33 34 35 36 1 
p 4.0000000008 1 0 0.174532925199433 0.349065850398866 0.523598775598299 0.698131700797732 0.872664625997165 1.0471975511966 1.22173047639603 1.39626340159546 1.5707963267949 1.74532925199433 1.91986217719376 2.0943951023932 2.26892802759263 2.44346095279206 2.6179938779915 2.79252680319093 2.96705972839036 3.1415926535898 3.31612557878923 3.49065850398866 3.66519142918809 3.83972435438753 4.01425727958696 4.18879020478639 4.36332312998583 4.53785605518526 4.71238898038469 4.88692190558413 5.06145483078356 5.23598775598299 5.41052068118242 5.58505360638186 5.75958653158129 5.93411945678072 6.10865238198015 6.28318530717959 
Surfaces 3
2 0 0 0 0 0 1 1 0 -0 -0 1 0 100
1 0 0 1000 0 0 1 1 0 -0 -0 1 0 
1 0 0 0 0 0 1 1 0 -0 -0 1 0 
Triangulations 3
74 72 1 0.380530190825461
100 -2.44929359829471e-14 1000 100 -2.44929359829471e-14 1000 98.4807753012208 17.364817766693 1000 93.9692620785908 34.2020143325669 1000 86.6025403784438 50 1000 76.6044443118978 64.278760968654 1000 64.2787609686539 76.6044443118978 1000 50 86.6025403784439 1000 34.2020143325668 93.9692620785909 1000 17.364817766693 98.4807753012208 1000 -6.04901474817726e-14 100 1000 -17.3648177666931 98.4807753012208 1000 -34.2020143325669 93.9692620785908 1000 -50.0000000000001 86.6025403784438 1000 -64.278760968654 76.6044443118978 1000 -76.6044443118979 64.2787609686538 1000 -86.6025403784439 49.9999999999999 1000 -93.9692620785909 34.2020143325667 1000 -98.4807753012208 17.3648177666929 1000 -100 -2.09798136933558e-13 1000 -98.4807753012208 -17.3648177666933 1000 -93.9692620785908 -34.2020143325671 1000 -86.6025403784437 -50.0000000000002 1000 -76.6044443118976 -64.2787609686542 1000 -64.2787609686537 -76.604444311898 1000 -49.9999999999997 -86.602540378444 1000 -34.2020143325666 -93.9692620785909 1000 -17.3648177666928 -98.4807753012209 1000 2.48083823922827e-13 -100 1000 17.3648177666933 -98.4807753012208 1000 34.2020143325671 -93.9692620785908 1000 50.0000000000002 -86.6025403784438 1000 64.2787609686541 -76.6044443118977 1000 76.6044443118979 -64.2787609686538 1000 86.6025403784439 -49.9999999999999 1000 93.9692620785909 -34.2020143325668 1000 98.4807753012208 -17.364817766693 1000 100 -2.44929359829471e-14 0 100 -2.44929359829471e-14 0 98.4807753012208 17.364817766693 0 93.9692620785908 34.2020143325669 0 86.6025403784438 50 0 76.6044443118978 64.278760968654 0 64.2787609686539 76.6044443118978 0 50 86.6025403784439 0 34.2020143325668 93.9692620785909 0 17.364817766693 98.4807753012208 0 -6.04901474817726e-14 100 0 -17.3648177666931 98.4807753012208 0 -34.2020143325669 93.9692620785908 0 -50.0000000000001 86.6025403784438 0 -64.278760968654 76.6044443118978 0 -76.6044443118979 64.2787609686538 0 -86.6025403784439 49.9999999999999 0 -93.9692620785909 34.2020143325667 0 -98.4807753012208 17.3648177666929 0 -100 -2.09798136933558e-13 0 -98.4807753012208 -17.3648177666933 0 -93.9692620785908 -34.2020143325671 0 -86.6025403784437 -50.0000000000002 0 -76.6044443118976 -64.2787609686542 0 -64.2787609686537 -76.604444311898 0 -49.9999999999997 -86.602540378444 0 -34.2020143325666 -93.9692620785909 0 -17.3648177666928 -98.4807753012209 0 2.48083823922827e-13 -100 0 17.3648177666933 -98.4807753012208 0 34.2020143325671 -93.9692620785908 0 50.0000000000002 -86.6025403784438 0 64.2787609686541 -76.6044443118977 0 76.6044443118979 -64.2787609686538 0 86.6025403784439 -49.9999999999999 0 93.9692620785909 -34.2020143325668 0 98.4807753012208 -17.364817766693 0 0 1000 6.28318530717959 1000 0.174532925199433 1000 0.349065850398866 1000 0.523598775598299 1000 0.698131700797732 1000 0.872664625997165 1000 1.0471975511966 1000 1.22173047639603 1000 1.39626340159546 1000 1.5707963267949 1000 1.74532925199433 1000 1.91986217719376 1000 2.0943951023932 1000 2.26892802759263 1000 2.44346095279206 1000 2.6179938779915 1000 2.79252680319093 1000 2.96705972839036 1000 3.1415926535898 1000 3.31612557878923 1000 3.49065850398866 1000 3.66519142918809 1000 3.83972435438753 1000 4.01425727958696 1000 4.18879020478639 1000 4.36332312998583 1000 4.53785605518526 1000 4.71238898038469 1000 4.88692190558413 1000 5.06145483078356 1000 5.23598775598299 1000 5.41052068118242 1000 5.58505360638186 1000 5.75958653158129 1000 5.93411945678072 1000 6.10865238198015 1000 6.28318530717959 0 0 0 0.174532925199433 0 0.349065850398866 0 0.523598775598299 0 0.698131700797732 0 0.872664625997165 0 1.0471975511966 0 1.22173047639603 0 1.39626340159546 0 1.5707963267949 0 1.74532925199433 0 1.91986217719376 0 2.0943951023932 0 2.26892802759263 0 2.44346095279206 0 2.6179938779915 0 2.79252680319093 0 2.96705972839036 0 3.1415926535898 0 3.31612557878923 0 3.49065850398866 0 3.66519142918809 0 3.83972435438753 0 4.01425727958696 0 4.18879020478639 0 4.36332312998583 0 4.53785605518526 0 4.71238898038469 0 4.88692190558413 0 5.06145483078356 0 5.23598775598299 0 5.41052068118242 0 5.58505360638186 0 5.75958653158129 0 5.93411945678072 0 6.10865238198015 0 21 20 57 21 57 58 21 58 59 22 21 59 3 39 40 3 40 41 23 59 60 3 1 39 23 22 59 4 3 41 24 60 61 24 23 60 5 41 42 5 4 41 25 61 62 25 24 61 6 42 43 6 5 42 26 62 63 26 25 62 27 63 64 27 26 63 7 43 44 7 6 43 8 7 44 8 44 45 28 64 65 28 27 64 9 8 45 29 65 66 29 66 67 9 45 46 9 46 47 29 28 65 30 29 67 10 9 47 10 47 48 31 67 68 11 10 48 11 48 49 31 30 67 32 68 69 12 11 49 32 31 68 13 12 49 13 49 50 33 32 69 33 69 70 14 13 50 14 50 51 34 33 70 34 70 71 15 14 51 15 51 52 35 34 71 35 71 72 16 15 52 16 52 53 16 53 54 36 35 72 36 72 73 17 16 54 37 36 73 37 73 74 37 74 38 18 17 54 2 37 38 18 54 55 19 18 55 19 55 56 20 19 56 20 56 57 
36 34 1 1.06581410364015e-14
100 -2.44929359829471e-14 1000 98.4807753012208 17.364817766693 1000 93.9692620785908 34.2020143325669 1000 86.6025403784438 50 1000 76.6044443118978 64.278760968654 1000 64.2787609686539 76.6044443118978 1000 50 86.6025403784439 1000 34.2020143325668 93.9692620785909 1000 17.364817766693 98.4807753012208 1000 -6.04901474817726e-14 100 1000 -17.3648177666931 98.4807753012208 1000 -34.2020143325669 93.9692620785908 1000 -50.0000000000001 86.6025403784438 1000 -64.278760968654 76.6044443118978 1000 -76.6044443118979 64.2787609686538 1000 -86.6025403784439 49.9999999999999 1000 -93.9692620785909 34.2020143325667 1000 -98.4807753012208 17.3648177666929 1000 -100 -2.09798136933558e-13 1000 -98.4807753012208 -17.3648177666933 1000 -93.9692620785908 -34.2020143325671 1000 -86.6025403784437 -50.0000000000002 1000 -76.6044443118976 -64.2787609686542 1000 -64.2787609686537 -76.604444311898 1000 -49.9999999999997 -86.602540378444 1000 -34.2020143325666 -93.9692620785909 1000 -17.3648177666928 -98.4807753012209 1000 2.48083823922827e-13 -100 1000 17.3648177666933 -98.4807753012208 1000 34.2020143325671 -93.9692620785908 1000 50.0000000000002 -86.6025403784438 1000 64.2787609686541 -76.6044443118977 1000 76.6044443118979 -64.2787609686538 1000 86.6025403784439 -49.9999999999999 1000 93.9692620785909 -34.2020143325668 1000 98.4807753012208 -17.364817766693 1000 100 0 98.4807753012208 17.3648177666931 93.9692620785908 34.2020143325669 86.6025403784438 50 76.6044443118978 64.278760968654 64.2787609686539 76.6044443118979 49.9999999999999 86.6025403784439 34.2020143325668 93.9692620785909 17.364817766693 98.4807753012208 -5.6843418860808e-14 100 -17.3648177666931 98.4807753012208 -34.2020143325669 93.9692620785908 -50.0000000000001 86.6025403784438 -64.278760968654 76.6044443118977 -76.6044443118979 64.2787609686538 -86.6025403784439 49.9999999999999 -93.9692620785909 34.2020143325667 -98.4807753012208 17.3648177666929 -100 -2.1316282072803e-13 -98.4807753012208 -17.3648177666933 -93.9692620785908 -34.2020143325671 -86.6025403784437 -50.0000000000002 -76.6044443118976 -64.2787609686542 -64.2787609686537 -76.604444311898 -49.9999999999997 -86.602540378444 -34.2020143325666 -93.9692620785909 -17.3648177666928 -98.4807753012209 2.41584530158434e-13 -100 17.3648177666932 -98.4807753012208 34.2020143325671 -93.9692620785908 50.0000000000002 -86.6025403784438 64.2787609686541 -76.6044443118977 76.6044443118979 -64.2787609686538 86.6025403784439 -49.9999999999999 93.9692620785909 -34.2020143325668 98.4807753012208 -17.364817766693 25 23 24 19 20 21 19 21 22 28 25 26 28 26 27 28 23 25 18 22 23 18 19 22 18 23 28 30 28 29 30 18 28 16 17 18 32 30 31 14 15 16 14 16 18 14 18 30 34 32 33 34 30 32 34 14 30 35 13 14 35 14 34 11 12 13 1 35 36 8 9 10 3 1 2 3 11 13 3 13 35 3 35 1 7 10 11 7 11 3 7 8 10 5 3 4 5 6 7 5 7 3 
36 34 1 3.10862446895044e-14
100 -2.44929359829471e-14 0 98.4807753012208 17.364817766693 0 93.9692620785908 34.2020143325669 0 86.6025403784438 50 0 76.6044443118978 64.278760968654 0 64.2787609686539 76.6044443118978 0 50 86.6025403784439 0 34.2020143325668 93.9692620785909 0 17.364817766693 98.4807753012208 0 -6.04901474817726e-14 100 0 -17.3648177666931 98.4807753012208 0 -34.2020143325669 93.9692620785908 0 -50.0000000000001 86.6025403784438 0 -64.278760968654 76.6044443118978 0 -76.6044443118979 64.2787609686538 0 -86.6025403784439 49.9999999999999 0 -93.9692620785909 34.2020143325667 0 -98.4807753012208 17.3648177666929 0 -100 -2.09798136933558e-13 0 -98.4807753012208 -17.3648177666933 0 -93.9692620785908 -34.2020143325671 0 -86.6025403784437 -50.0000000000002 0 -76.6044443118976 -64.2787609686542 0 -64.2787609686537 -76.604444311898 0 -49.9999999999997 -86.602540378444 0 -34.2020143325666 -93.9692620785909 0 -17.3648177666928 -98.4807753012209 0 2.48083823922827e-13 -100 0 17.3648177666933 -98.4807753012208 0 34.2020143325671 -93.9692620785908 0 50.0000000000002 -86.6025403784438 0 64.2787609686541 -76.6044443118977 0 76.6044443118979 -64.2787609686538 0 86.6025403784439 -49.9999999999999 0 93.9692620785909 -34.2020143325668 0 98.4807753012208 -17.364817766693 0 100 3.26849658449646e-13 98.4807753012208 17.3648177666931 93.9692620785908 34.2020143325669 86.6025403784438 50 76.6044443118978 64.278760968654 64.2787609686539 76.6044443118979 49.9999999999999 86.6025403784439 34.2020143325668 93.9692620785909 17.364817766693 98.4807753012208 -5.6843418860808e-14 100 -17.3648177666931 98.4807753012208 -34.2020143325669 93.9692620785908 -50.0000000000001 86.6025403784438 -64.278760968654 76.6044443118977 -76.6044443118979 64.2787609686538 -86.6025403784439 49.9999999999999 -93.9692620785909 34.2020143325667 -98.4807753012208 17.3648177666929 -100 -2.1316282072803e-13 -98.4807753012208 -17.3648177666933 -93.9692620785908 -34.2020143325671 -86.6025403784437 -50.0000000000002 -76.6044443118976 -64.2787609686542 -64.2787609686537 -76.604444311898 -49.9999999999997 -86.602540378444 -34.2020143325666 -93.9692620785909 -17.3648177666928 -98.4807753012209 2.41584530158434e-13 -100 17.3648177666932 -98.4807753012208 34.2020143325671 -93.9692620785908 50.0000000000002 -86.6025403784438 64.2787609686541 -76.6044443118977 76.6044443118979 -64.2787609686538 86.6025403784439 -49.9999999999999 93.9692620785909 -34.2020143325668 98.4807753012208 -17.364817766693 25 23 24 19 20 21 19 21 22 28 25 26 28 26 27 28 23 25 18 22 23 18 19 22 18 23 28 30 28 29 30 18 28 16 17 18 32 30 31 14 15 16 14 16 18 14 18 30 34 32 33 34 30 32 34 14 30 35 13 14 35 14 34 11 12 13 1 35 36 8 9 10 3 1 2 3 11 13 3 13 35 3 35 1 7 10 11 7 11 3 7 8 10 5 3 4 5 6 7 5 7 3 

TShapes 13
Ve
1e-07
100 -2.44929359829471e-14 1000
0 0

0101101
*
Ed
 1e-07 1 1 0
1  1 0 0 6.28318530717959
2  1 1 0 0 6.28318530717959
2  2 2 0 0 6.28318530717959
6  1 1 0
6  2 2 0
0

0101100
+13 0 -13 0 *
Ve
1e-07
100 -2.44929359829471e-14 0
0 0

0101101
*
Ed
 1e-07 1 1 0
1  2 0 0 1000
3  3 4CN 1 0 0 1000
7  3 4 1 0
0

0101000
-13 0 +11 0 *
Ed
 1e-07 1 1 0
1  3 0 0 6.28318530717959
2  5 1 0 0 6.28318530717959
2  6 3 0 0 6.28318530717959
6  5 1 0
6  6 3 0
0

0101100
+11 0 -11 0 *
Wi

0101000
-12 0 +10 0 +9 0 -10 0 *
Fa
0  1e-07 1 0
2  1
0101000
+8 0 *
Wi

0101000
+12 0 *
Fa
0  1e-07 2 0
2  2
0101000
+6 0 *
Wi

0101000
-9 0 *
Fa
0  1e-07 3 0
2  3
0101000
-4 0 *
Sh

0101100
+7 0 +5 0 -3 0 *
So

1100100
+2 0 *

+1 0 