1600 0 1 0           
10 Cubit 10.2 17 ACIS 16.0.1 Linux 24 Tue Sep 30 13:45:56 2008 
1 9.9999999999999995e-07 1e-10 
body $-1 -1 -1 $-1 $1 $-1 $-1 T -4 -4 -5 4 4 10 #
lump $-1 -1 -1 $-1 $-1 $2 $0 T -4 -4 -5 4 4 10 #
shell $-1 -1 -1 $-1 $-1 $-1 $3 $-1 $1 T -4 -4 -5 4 4 10 #
face $-1 -1 -1 $-1 $4 $5 $2 $-1 $6 forward single T -1 -1 5 1 1 10 F #
face $-1 -1 -1 $-1 $7 $8 $2 $-1 $9 forward single T -1 -1 10 1 1 10 F #
loop $-1 -1 -1 $-1 $10 $11 $3 T -1 -1 5 1 1 5 unknown #
cone-surface $-1 -1 -1 $-1 0 0 7.5 0 0 1 1 0 0 1 I I 0 1 1 forward I I I I #
face $-1 -1 -1 $-1 $12 $13 $2 $-1 $14 forward single T -4 -4 -5 4 4 5 F #
loop $-1 -1 -1 $-1 $-1 $15 $4 T -1 -1 10 1 1 10 unknown #
plane-surface $-1 -1 -1 $-1 0 0 10 0 0 1 1 0 0 forward_v I I I I #
loop $-1 -1 -1 $-1 $-1 $16 $3 T -1 -1 10 1 1 10 unknown #
coedge $-1 -1 -1 $-1 $11 $11 $17 $18 reversed $5 $-1 #
face $-1 -1 -1 $-1 $19 $20 $2 $-1 $21 forward single T -4 -4 -5 4 4 -5 F #
loop $-1 -1 -1 $-1 $22 $23 $7 T -4 -4 -5 4 4 -5 unknown #
cone-surface $-1 -1 -1 $-1 0 0 0 0 0 1 4 0 0 1 I I 0 1 4 forward I I I I #
coedge $-1 -1 -1 $-1 $15 $15 $16 $24 forward $8 $-1 #
coedge $-1 -1 -1 $-1 $16 $16 $15 $24 reversed $10 $-1 #
coedge $-1 -1 -1 $-1 $17 $17 $11 $18 forward $25 $-1 #
edge $-1 -1 -1 $-1 $26 0 $26 6.2831853071795862 $17 $27 forward @7 unknown T -1 -1 5 1 1 5 #
face $-1 -1 -1 $-1 $-1 $25 $2 $-1 $28 forward single T -4 -4 5 4 4 5 F #
loop $-1 -1 -1 $-1 $-1 $29 $12 T -4 -4 -5 4 4 -5 unknown #
plane-surface $-1 -1 -1 $-1 0 0 -5 0 0 -1 -1 0 0 forward_v I I I I #
loop $-1 -1 -1 $-1 $-1 $30 $7 T -4 -4 5 4 4 5 unknown #
coedge $-1 -1 -1 $-1 $23 $23 $29 $31 reversed $13 $-1 #
edge $-1 -1 -1 $-1 $32 0 $32 6.2831853071795862 $15 $33 forward @7 unknown T -1 -1 10 1 1 10 #
loop $-1 -1 -1 $-1 $34 $17 $19 T -1 -1 5 1 1 5 unknown #
vertex $-1 -1 -1 $-1 $18 $35 #
ellipse-curve $-1 -1 -1 $-1 0 0 5 -0 -0 -1 1 0 0 1 I I #
plane-surface $-1 -1 -1 $-1 0 0 5 0 0 1 1 0 0 forward_v I I I I #
coedge $-1 -1 -1 $-1 $29 $29 $23 $31 forward $20 $-1 #
coedge $-1 -1 -1 $-1 $30 $30 $36 $37 reversed $22 $-1 #
edge $-1 -1 -1 $-1 $38 0 $38 6.2831853071795862 $29 $39 forward @7 unknown T -4 -4 -5 4 4 -5 #
vertex $-1 -1 -1 $-1 $24 $40 #
ellipse-curve $-1 -1 -1 $-1 0 0 10 0 0 1 1 0 0 1 I I #
loop $-1 -1 -1 $-1 $-1 $36 $19 T -4 -4 5 4 4 5 unknown #
point $-1 -1 -1 $-1 1 0 5 #
coedge $-1 -1 -1 $-1 $36 $36 $30 $37 forward $34 $-1 #
edge $-1 -1 -1 $-1 $41 0 $41 6.2831853071795862 $36 $42 forward @7 unknown T -4 -4 5 4 4 5 #
vertex $-1 -1 -1 $-1 $31 $43 #
ellipse-curve $-1 -1 -1 $-1 0 0 -5 0 0 -1 4 0 0 1 I I #
point $-1 -1 -1 $-1 1 0 10 #
vertex $-1 -1 -1 $-1 $37 $44 #
ellipse-curve $-1 -1 -1 $-1 0 0 5 0 0 1 4 0 0 1 I I #
point $-1 -1 -1 $-1 4 0 -5 #
point $-1 -1 -1 $-1 4 0 5 #
End-of-ACIS-data 