600 0 2 0           
16 Cubit 7.0b-01281 15 ACIS 6.0.2 OSF1 24 Thu Oct 25 12:40:30 2001 
-1 9.9999999999999995e-07 1e-10 
body $2 $3 $-1 $-1 #
body $4 $5 $-1 $6 #
cubit_owner-snl-attrib $-1 $-1 $-1 $0 #
lump $7 $-1 $8 $0 #
cubit_owner-snl-attrib $-1 $-1 $-1 $1 #
lump $9 $-1 $10 $1 #
transform $-1 1 0 0 0 1 0 0 0 1 0 0 0 1 no_rotate no_reflect no_shear #
cubit_owner-snl-attrib $-1 $-1 $-1 $3 #
shell $11 $-1 $-1 $12 $-1 $3 #
cubit_owner-snl-attrib $-1 $-1 $-1 $5 #
shell $13 $-1 $-1 $14 $-1 $5 #
cubit_owner-snl-attrib $-1 $-1 $-1 $8 #
face $15 $16 $17 $8 $-1 $18 forward single #
cubit_owner-snl-attrib $-1 $-1 $-1 $10 #
face $19 $20 $21 $10 $-1 $22 forward single #
cubit_owner-snl-attrib $-1 $-1 $-1 $12 #
face $23 $24 $25 $8 $-1 $26 reversed single #
loop $27 $-1 $28 $12 #
plane-surface $-1 0 0 5 0 0 1 1 0 0 forward_v I I I I #
cubit_owner-snl-attrib $-1 $-1 $-1 $14 #
face $29 $30 $31 $10 $-1 $32 reversed single #
loop $33 $-1 $34 $14 #
plane-surface $-1 9 9 14 0 0 1 1 0 0 forward_v I I I I #
cubit_owner-snl-attrib $-1 $-1 $-1 $16 #
face $35 $36 $37 $8 $-1 $38 reversed single #
loop $39 $-1 $40 $16 #
plane-surface $-1 0 0 -5 0 0 1 1 0 0 forward_v I I I I #
cubit_owner-snl-attrib $-1 $-1 $-1 $17 #
coedge $41 $42 $43 $44 $45 forward $17 $-1 #
cubit_owner-snl-attrib $-1 $-1 $-1 $20 #
face $46 $47 $48 $10 $-1 $49 reversed single #
loop $50 $-1 $51 $20 #
plane-surface $-1 9 9 4 0 0 1 1 0 0 forward_v I I I I #
cubit_owner-snl-attrib $-1 $-1 $-1 $21 #
coedge $52 $53 $54 $55 $56 forward $21 $-1 #
cubit_owner-snl-attrib $-1 $-1 $-1 $24 #
face $57 $58 $59 $8 $-1 $60 reversed single #
loop $61 $-1 $62 $24 #
plane-surface $-1 0 -5 0 0 1 -0 -0 0 1 forward_v I I I I #
cubit_owner-snl-attrib $-1 $-1 $-1 $25 #
coedge $63 $64 $65 $66 $67 forward $25 $-1 #
cubit_owner-snl-attrib $-1 $-1 $-1 $28 #
coedge $68 $69 $28 $70 $71 forward $17 $-1 #
coedge $72 $28 $69 $73 $74 forward $17 $-1 #
coedge $75 $76 $77 $28 $45 reversed $78 $-1 #
edge $79 $80 -5 $81 5 $44 $82 forward 7 unknown #
cubit_owner-snl-attrib $-1 $-1 $-1 $30 #
face $83 $84 $85 $10 $-1 $86 reversed single #
loop $87 $-1 $88 $30 #
plane-surface $-1 9 4 9 0 1 0 0 0 1 forward_v I I I I #
cubit_owner-snl-attrib $-1 $-1 $-1 $31 #
coedge $89 $90 $91 $92 $93 forward $31 $-1 #
cubit_owner-snl-attrib $-1 $-1 $-1 $34 #
coedge $94 $95 $34 $96 $97 forward $21 $-1 #
coedge $98 $34 $95 $99 $100 forward $21 $-1 #
coedge $101 $102 $103 $34 $56 reversed $104 $-1 #
edge $105 $106 -5 $107 5 $55 $108 forward 7 unknown #
cubit_owner-snl-attrib $-1 $-1 $-1 $36 #
face $109 $110 $111 $8 $-1 $112 reversed single #
loop $113 $-1 $114 $36 #
plane-surface $-1 -5 0 0 1 0 0 0 0 -1 forward_v I I I I #
cubit_owner-snl-attrib $-1 $-1 $-1 $37 #
coedge $115 $116 $73 $117 $118 forward $37 $-1 #
cubit_owner-snl-attrib $-1 $-1 $-1 $40 #
coedge $119 $120 $40 $116 $121 forward $25 $-1 #
coedge $122 $40 $120 $123 $124 forward $25 $-1 #
coedge $125 $77 $76 $40 $67 reversed $78 $-1 #
edge $126 $127 -5 $128 5 $66 $129 forward 7 unknown #
cubit_owner-snl-attrib $-1 $-1 $-1 $42 #
coedge $130 $43 $42 $131 $132 forward $17 $-1 #
coedge $133 $134 $135 $42 $71 reversed $111 $-1 #
edge $136 $81 -5 $137 5 $70 $138 forward 7 unknown #
cubit_owner-snl-attrib $-1 $-1 $-1 $43 #
coedge $139 $62 $140 $43 $74 reversed $37 $-1 #
edge $141 $142 -5 $80 5 $73 $143 forward 7 unknown #
cubit_owner-snl-attrib $-1 $-1 $-1 $44 #
coedge $144 $66 $44 $140 $145 forward $78 $-1 #
coedge $146 $44 $66 $134 $147 reversed $78 $-1 #
loop $148 $-1 $76 $110 #
cubit_owner-snl-attrib $-1 $-1 $-1 $45 #
vertex $149 $45 $150 #
vertex $151 $45 $152 #
straight-curve $-1 5 0 5 0 1 0 I I #
cubit_owner-snl-attrib $-1 $-1 $-1 $47 #
face $153 $154 $155 $10 $-1 $156 reversed single #
loop $157 $-1 $158 $47 #
plane-surface $-1 4 9 9 1 0 0 0 0 -1 forward_v I I I I #
cubit_owner-snl-attrib $-1 $-1 $-1 $48 #
coedge $159 $160 $99 $161 $162 forward $48 $-1 #
cubit_owner-snl-attrib $-1 $-1 $-1 $51 #
coedge $163 $164 $51 $160 $165 forward $31 $-1 #
coedge $166 $51 $164 $167 $168 forward $31 $-1 #
coedge $169 $103 $102 $51 $93 reversed $104 $-1 #
edge $170 $171 -5 $172 5 $92 $173 forward 7 unknown #
cubit_owner-snl-attrib $-1 $-1 $-1 $53 #
coedge $174 $54 $53 $175 $176 forward $21 $-1 #
coedge $177 $178 $179 $53 $97 reversed $155 $-1 #
edge $180 $107 -5 $181 5 $96 $182 forward 7 unknown #
cubit_owner-snl-attrib $-1 $-1 $-1 $54 #
coedge $183 $88 $184 $54 $100 reversed $48 $-1 #
edge $185 $186 -5 $106 5 $99 $187 forward 7 unknown #
cubit_owner-snl-attrib $-1 $-1 $-1 $55 #
coedge $188 $92 $55 $184 $189 forward $104 $-1 #
coedge $190 $55 $92 $178 $191 reversed $104 $-1 #
loop $192 $-1 $102 $154 #
cubit_owner-snl-attrib $-1 $-1 $-1 $56 #
vertex $193 $56 $194 #
vertex $195 $56 $196 #
straight-curve $-1 14 9 14 0 1 0 I I #
cubit_owner-snl-attrib $-1 $-1 $-1 $58 #
face $197 $-1 $78 $8 $-1 $198 reversed single #
loop $199 $-1 $134 $58 #
plane-surface $-1 0 5 0 0 -1 0 0 0 -1 forward_v I I I I #
cubit_owner-snl-attrib $-1 $-1 $-1 $59 #
coedge $200 $201 $131 $135 $202 forward $59 $-1 #
cubit_owner-snl-attrib $-1 $-1 $-1 $62 #
coedge $203 $140 $62 $64 $121 reversed $37 $-1 #
coedge $204 $131 $201 $62 $118 reversed $59 $-1 #
edge $205 $142 -5 $206 5 $117 $207 forward 7 unknown #
cubit_owner-snl-attrib $-1 $-1 $-1 $64 #
coedge $208 $65 $64 $201 $209 forward $25 $-1 #
edge $210 $128 -5 $206 5 $116 $211 forward 7 unknown #
cubit_owner-snl-attrib $-1 $-1 $-1 $65 #
coedge $212 $135 $134 $65 $124 reversed $111 $-1 #
edge $213 $214 -5 $127 5 $123 $215 forward 7 unknown #
cubit_owner-snl-attrib $-1 $-1 $-1 $66 #
cubit_owner-snl-attrib $-1 $-1 $-1 $67 #
vertex $216 $67 $217 #
vertex $218 $145 $219 #
straight-curve $-1 5 0 -5 0 -1 0 I I #
cubit_owner-snl-attrib $-1 $-1 $-1 $69 #
coedge $220 $114 $117 $69 $132 reversed $59 $-1 #
edge $221 $137 -5 $142 5 $131 $222 forward 7 unknown #
cubit_owner-snl-attrib $-1 $-1 $-1 $70 #
coedge $223 $123 $70 $77 $147 forward $111 $-1 #
coedge $224 $70 $123 $114 $202 reversed $111 $-1 #
cubit_owner-snl-attrib $-1 $-1 $-1 $71 #
vertex $225 $71 $226 #
straight-curve $-1 0 5 5 -1 0 0 I I #
cubit_owner-snl-attrib $-1 $-1 $-1 $73 #
coedge $227 $73 $116 $76 $145 reversed $37 $-1 #
cubit_owner-snl-attrib $-1 $-1 $-1 $74 #
vertex $228 $132 $229 #
straight-curve $-1 0 -5 5 1 0 0 I I #
cubit_owner-snl-attrib $-1 $-1 $-1 $76 #
edge $230 $80 -5 $128 5 $76 $231 forward 7 unknown #
cubit_owner-snl-attrib $-1 $-1 $-1 $77 #
edge $232 $81 -5 $127 5 $77 $233 forward 7 unknown #
cubit_owner-snl-attrib $-1 $-1 $-1 $78 #
cubit_owner-snl-attrib $-1 $-1 $-1 $80 #
point $-1 5 -5 5 #
cubit_owner-snl-attrib $-1 $-1 $-1 $81 #
point $-1 5 5 5 #
cubit_owner-snl-attrib $-1 $-1 $-1 $84 #
face $234 $-1 $104 $10 $-1 $235 reversed single #
loop $236 $-1 $178 $84 #
plane-surface $-1 9 14 9 0 -1 0 0 0 -1 forward_v I I I I #
cubit_owner-snl-attrib $-1 $-1 $-1 $85 #
coedge $237 $238 $175 $179 $239 forward $85 $-1 #
cubit_owner-snl-attrib $-1 $-1 $-1 $88 #
coedge $240 $184 $88 $90 $165 reversed $48 $-1 #
coedge $241 $175 $238 $88 $162 reversed $85 $-1 #
edge $242 $186 -5 $243 5 $161 $244 forward 7 unknown #
cubit_owner-snl-attrib $-1 $-1 $-1 $90 #
coedge $245 $91 $90 $238 $246 forward $31 $-1 #
edge $247 $172 -5 $243 5 $160 $248 forward 7 unknown #
cubit_owner-snl-attrib $-1 $-1 $-1 $91 #
coedge $249 $179 $178 $91 $168 reversed $155 $-1 #
edge $250 $251 -5 $171 5 $167 $252 forward 7 unknown #
cubit_owner-snl-attrib $-1 $-1 $-1 $92 #
cubit_owner-snl-attrib $-1 $-1 $-1 $93 #
vertex $253 $93 $254 #
vertex $255 $189 $256 #
straight-curve $-1 14 9 4 0 -1 0 I I #
cubit_owner-snl-attrib $-1 $-1 $-1 $95 #
coedge $257 $158 $161 $95 $176 reversed $85 $-1 #
edge $258 $181 -5 $186 5 $175 $259 forward 7 unknown #
cubit_owner-snl-attrib $-1 $-1 $-1 $96 #
coedge $260 $167 $96 $103 $191 forward $155 $-1 #
coedge $261 $96 $167 $158 $239 reversed $155 $-1 #
cubit_owner-snl-attrib $-1 $-1 $-1 $97 #
vertex $262 $97 $263 #
straight-curve $-1 9 14 14 -1 0 0 I I #
cubit_owner-snl-attrib $-1 $-1 $-1 $99 #
coedge $264 $99 $160 $102 $189 reversed $48 $-1 #
cubit_owner-snl-attrib $-1 $-1 $-1 $100 #
vertex $265 $176 $266 #
straight-curve $-1 9 4 14 1 0 0 I I #
cubit_owner-snl-attrib $-1 $-1 $-1 $102 #
edge $267 $106 -5 $172 5 $102 $268 forward 7 unknown #
cubit_owner-snl-attrib $-1 $-1 $-1 $103 #
edge $269 $107 -5 $171 5 $103 $270 forward 7 unknown #
cubit_owner-snl-attrib $-1 $-1 $-1 $104 #
cubit_owner-snl-attrib $-1 $-1 $-1 $106 #
point $-1 14 4 14 #
cubit_owner-snl-attrib $-1 $-1 $-1 $107 #
point $-1 14 14 14 #
cubit_owner-snl-attrib $-1 $-1 $-1 $110 #
plane-surface $-1 5 0 0 -1 0 0 0 -0 1 forward_v I I I I #
cubit_owner-snl-attrib $-1 $-1 $-1 $111 #
cubit_owner-snl-attrib $-1 $-1 $-1 $114 #
coedge $271 $117 $114 $120 $209 reversed $59 $-1 #
edge $272 $137 -5 $214 5 $135 $273 forward 7 unknown #
cubit_owner-snl-attrib $-1 $-1 $-1 $116 #
cubit_owner-snl-attrib $-1 $-1 $-1 $117 #
cubit_owner-snl-attrib $-1 $-1 $-1 $118 #
vertex $274 $209 $275 #
straight-curve $-1 -5 -5 0 0 0 -1 I I #
cubit_owner-snl-attrib $-1 $-1 $-1 $120 #
edge $276 $206 -5 $214 5 $201 $277 forward 7 unknown #
cubit_owner-snl-attrib $-1 $-1 $-1 $121 #
straight-curve $-1 0 -5 -5 -1 0 0 I I #
cubit_owner-snl-attrib $-1 $-1 $-1 $123 #
cubit_owner-snl-attrib $-1 $-1 $-1 $124 #
vertex $278 $124 $279 #
straight-curve $-1 0 5 -5 1 0 0 I I #
cubit_owner-snl-attrib $-1 $-1 $-1 $127 #
point $-1 5 5 -5 #
cubit_owner-snl-attrib $-1 $-1 $-1 $128 #
point $-1 5 -5 -5 #
cubit_owner-snl-attrib $-1 $-1 $-1 $131 #
cubit_owner-snl-attrib $-1 $-1 $-1 $132 #
straight-curve $-1 -5 0 5 0 -1 0 I I #
cubit_owner-snl-attrib $-1 $-1 $-1 $134 #
cubit_owner-snl-attrib $-1 $-1 $-1 $135 #
cubit_owner-snl-attrib $-1 $-1 $-1 $137 #
point $-1 -5 5 5 #
cubit_owner-snl-attrib $-1 $-1 $-1 $140 #
cubit_owner-snl-attrib $-1 $-1 $-1 $142 #
point $-1 -5 -5 5 #
cubit_owner-snl-attrib $-1 $-1 $-1 $145 #
straight-curve $-1 5 -5 0 0 0 -1 I I #
cubit_owner-snl-attrib $-1 $-1 $-1 $147 #
straight-curve $-1 5 5 0 0 0 -1 I I #
cubit_owner-snl-attrib $-1 $-1 $-1 $154 #
plane-surface $-1 14 9 9 -1 0 0 0 0 1 forward_v I I I I #
cubit_owner-snl-attrib $-1 $-1 $-1 $155 #
cubit_owner-snl-attrib $-1 $-1 $-1 $158 #
coedge $280 $161 $158 $164 $246 reversed $85 $-1 #
edge $281 $181 -5 $251 5 $179 $282 forward 7 unknown #
cubit_owner-snl-attrib $-1 $-1 $-1 $160 #
cubit_owner-snl-attrib $-1 $-1 $-1 $161 #
cubit_owner-snl-attrib $-1 $-1 $-1 $162 #
vertex $283 $246 $284 #
straight-curve $-1 4 4 9 0 0 -1 I I #
cubit_owner-snl-attrib $-1 $-1 $-1 $164 #
edge $285 $243 -5 $251 5 $238 $286 forward 7 unknown #
cubit_owner-snl-attrib $-1 $-1 $-1 $165 #
straight-curve $-1 9 4 4 -1 0 0 I I #
cubit_owner-snl-attrib $-1 $-1 $-1 $167 #
cubit_owner-snl-attrib $-1 $-1 $-1 $168 #
vertex $287 $168 $288 #
straight-curve $-1 9 14 4 1 0 0 I I #
cubit_owner-snl-attrib $-1 $-1 $-1 $171 #
point $-1 14 14 4 #
cubit_owner-snl-attrib $-1 $-1 $-1 $172 #
point $-1 14 4 4 #
cubit_owner-snl-attrib $-1 $-1 $-1 $175 #
cubit_owner-snl-attrib $-1 $-1 $-1 $176 #
straight-curve $-1 4 9 14 0 -1 0 I I #
cubit_owner-snl-attrib $-1 $-1 $-1 $178 #
cubit_owner-snl-attrib $-1 $-1 $-1 $179 #
cubit_owner-snl-attrib $-1 $-1 $-1 $181 #
point $-1 4 14 14 #
cubit_owner-snl-attrib $-1 $-1 $-1 $184 #
cubit_owner-snl-attrib $-1 $-1 $-1 $186 #
point $-1 4 4 14 #
cubit_owner-snl-attrib $-1 $-1 $-1 $189 #
straight-curve $-1 14 4 9 0 0 -1 I I #
cubit_owner-snl-attrib $-1 $-1 $-1 $191 #
straight-curve $-1 14 14 9 0 0 -1 I I #
cubit_owner-snl-attrib $-1 $-1 $-1 $201 #
cubit_owner-snl-attrib $-1 $-1 $-1 $202 #
straight-curve $-1 -5 5 0 0 0 -1 I I #
cubit_owner-snl-attrib $-1 $-1 $-1 $206 #
point $-1 -5 -5 -5 #
cubit_owner-snl-attrib $-1 $-1 $-1 $209 #
straight-curve $-1 -5 0 -5 0 1 0 I I #
cubit_owner-snl-attrib $-1 $-1 $-1 $214 #
point $-1 -5 5 -5 #
cubit_owner-snl-attrib $-1 $-1 $-1 $238 #
cubit_owner-snl-attrib $-1 $-1 $-1 $239 #
straight-curve $-1 4 14 9 0 0 -1 I I #
cubit_owner-snl-attrib $-1 $-1 $-1 $243 #
point $-1 4 4 4 #
cubit_owner-snl-attrib $-1 $-1 $-1 $246 #
straight-curve $-1 4 9 4 0 1 0 I I #
cubit_owner-snl-attrib $-1 $-1 $-1 $251 #
point $-1 4 14 4 #
End-of-ACIS-data 