1600 0 2 0           
10 Cubit 10.2 17 ACIS 16.0.1 Linux 24 Thu Aug  9 13:12:08 2007 
1 9.9999999999999995e-07 1e-10 
body $-1 -1 -1 $-1 $2 $-1 $3 T 4 4 4 14 14 14 #
body $-1 -1 -1 $-1 $4 $-1 $5 T 19 7 7 21 11 11 #
lump $-1 -1 -1 $-1 $-1 $6 $0 T 4 4 4 14 14 14 #
transform $-1 -1 1 0 0 0 1 0 0 0 1 0 0 0 1 no_rotate no_reflect no_shear #
lump $-1 -1 -1 $-1 $-1 $7 $1 T 19 7 7 21 11 11 #
transform $-1 -1 1 0 0 0 1 0 0 0 1 0 0 0 1 no_rotate no_reflect no_shear #
shell $-1 -1 -1 $-1 $-1 $-1 $8 $-1 $2 T 4 4 4 14 14 14 #
shell $-1 -1 -1 $-1 $-1 $-1 $9 $-1 $4 T 19 7 7 21 11 11 #
face $-1 -1 -1 $-1 $10 $11 $6 $-1 $12 forward single T 4 4 14 14 14 14 F #
face $-1 -1 -1 $-1 $13 $14 $7 $-1 $15 forward single T 19 7 7 21 11 11 F #
face $-1 -1 -1 $-1 $16 $17 $6 $-1 $18 reversed single T 4 4 4 14 14 4 F #
loop $-1 -1 -1 $-1 $-1 $19 $8 T 4 4 14 14 14 14 unknown #
plane-surface $-1 -1 -1 $-1 9 9 14 0 0 1 1 0 0 forward_v I I I I #
face $-1 -1 -1 $-1 $20 $21 $7 $-1 $22 forward single T 19 7 7 19 11 11 F #
loop $-1 -1 -1 $-1 $23 $24 $9 T 19 7 7 19 11 11 unknown #
cone-surface $-1 -1 -1 $-1 20 9 9 1 -6.1232339957367648e-17 6.1232339957367648e-17 9.1848509936051472e-17 1.5 0 1 I I -0.44721359549995793 0.89442719099991586 1.5 forward I I I I #
face $-1 -1 -1 $-1 $25 $26 $6 $-1 $27 reversed single T 4 4 4 14 4 14 F #
loop $-1 -1 -1 $-1 $-1 $28 $10 T 4 4 4 14 14 4 unknown #
plane-surface $-1 -1 -1 $-1 9 9 4 0 0 1 1 0 0 forward_v I I I I #
coedge $-1 -1 -1 $-1 $29 $30 $31 $32 forward $11 $-1 #
face $-1 -1 -1 $-1 $-1 $33 $7 $-1 $34 forward single T 21 8 8 21 10 10 F #
loop $-1 -1 -1 $-1 $-1 $35 $13 T 19 7 7 19 11 11 unknown #
plane-surface $-1 -1 -1 $-1 19 9 9 -1 6.1232339957367648e-17 -6.1232339957367648e-17 -6.1232339957367648e-17 -1 0 forward_v I I I I #
loop $-1 -1 -1 $-1 $-1 $36 $9 T 21 8 8 21 10 10 unknown #
coedge $-1 -1 -1 $-1 $24 $24 $35 $37 reversed $14 $-1 #
face $-1 -1 -1 $-1 $38 $39 $6 $-1 $40 reversed single T 4 4 4 4 14 14 F #
loop $-1 -1 -1 $-1 $-1 $41 $16 T 4 4 4 14 4 14 unknown #
plane-surface $-1 -1 -1 $-1 9 4 9 0 1 0 0 0 1 forward_v I I I I #
coedge $-1 -1 -1 $-1 $42 $43 $44 $45 forward $17 $-1 #
coedge $-1 -1 -1 $-1 $46 $19 $47 $48 forward $11 $-1 #
coedge $-1 -1 -1 $-1 $19 $46 $49 $50 forward $11 $-1 #
coedge $-1 -1 -1 $-1 $51 $52 $19 $32 reversed $53 $-1 #
edge $-1 -1 -1 $-1 $54 -5 $55 5 $31 $56 forward @7 unknown T 14 4 14 14 14 14 #
loop $-1 -1 -1 $-1 $-1 $57 $20 T 21 8 8 21 10 10 unknown #
plane-surface $-1 -1 -1 $-1 21 9 9 1 -6.1232339957367648e-17 6.1232339957367648e-17 6.1232339957367648e-17 1 0 forward_v I I I I #
coedge $-1 -1 -1 $-1 $35 $35 $24 $37 forward $21 $-1 #
coedge $-1 -1 -1 $-1 $36 $36 $57 $58 reversed $23 $-1 #
edge $-1 -1 -1 $-1 $59 0 $59 6.2831853071795862 $35 $60 forward @7 unknown T 19 7 7 19 11 11 #
face $-1 -1 -1 $-1 $61 $62 $6 $-1 $63 reversed single T 4 14 4 14 14 14 F #
loop $-1 -1 -1 $-1 $-1 $64 $25 T 4 4 4 4 14 14 unknown #
plane-surface $-1 -1 -1 $-1 4 9 9 1 0 0 0 0 -1 forward_v I I I I #
coedge $-1 -1 -1 $-1 $65 $49 $66 $67 forward $26 $-1 #
coedge $-1 -1 -1 $-1 $68 $28 $65 $69 forward $17 $-1 #
coedge $-1 -1 -1 $-1 $28 $68 $70 $71 forward $17 $-1 #
coedge $-1 -1 -1 $-1 $52 $51 $28 $45 reversed $53 $-1 #
edge $-1 -1 -1 $-1 $72 -5 $73 5 $44 $74 forward @7 unknown T 14 4 4 14 14 4 #
coedge $-1 -1 -1 $-1 $30 $29 $75 $76 forward $11 $-1 #
coedge $-1 -1 -1 $-1 $77 $78 $29 $48 reversed $62 $-1 #
edge $-1 -1 -1 $-1 $55 -5 $79 5 $47 $80 forward @7 unknown T 4 14 14 14 14 14 #
coedge $-1 -1 -1 $-1 $41 $81 $30 $50 reversed $26 $-1 #
edge $-1 -1 -1 $-1 $82 -5 $54 5 $49 $83 forward @7 unknown T 4 4 14 14 4 14 #
coedge $-1 -1 -1 $-1 $44 $31 $81 $84 forward $53 $-1 #
coedge $-1 -1 -1 $-1 $31 $44 $77 $85 reversed $53 $-1 #
loop $-1 -1 -1 $-1 $-1 $51 $61 T 14 4 4 14 14 14 unknown #
vertex $-1 -1 -1 $-1 $32 $86 #
vertex $-1 -1 -1 $-1 $32 $87 #
straight-curve $-1 -1 -1 $-1 14 9 14 0 1 0 I I #
coedge $-1 -1 -1 $-1 $57 $57 $36 $58 forward $33 $-1 #
edge $-1 -1 -1 $-1 $88 0 $88 6.2831853071795862 $57 $89 forward @7 unknown T 21 8 8 21 10 10 #
vertex $-1 -1 -1 $-1 $37 $90 #
ellipse-curve $-1 -1 -1 $-1 19 9 9 -1 6.1232339957367648e-17 -6.1232339957367648e-17 1.224646799147353e-16 2 0 1 I I #
face $-1 -1 -1 $-1 $-1 $53 $6 $-1 $91 reversed single T 14 4 4 14 14 14 F #
loop $-1 -1 -1 $-1 $-1 $77 $38 T 4 14 4 14 14 14 unknown #
plane-surface $-1 -1 -1 $-1 9 14 9 0 -1 0 0 0 -1 forward_v I I I I #
coedge $-1 -1 -1 $-1 $92 $75 $78 $93 forward $39 $-1 #
coedge $-1 -1 -1 $-1 $81 $41 $42 $69 reversed $26 $-1 #
coedge $-1 -1 -1 $-1 $75 $92 $41 $67 reversed $39 $-1 #
edge $-1 -1 -1 $-1 $82 -5 $94 5 $66 $95 forward @7 unknown T 4 4 4 4 4 14 #
coedge $-1 -1 -1 $-1 $43 $42 $92 $96 forward $17 $-1 #
edge $-1 -1 -1 $-1 $73 -5 $94 5 $65 $97 forward @7 unknown T 4 4 4 14 4 4 #
coedge $-1 -1 -1 $-1 $78 $77 $43 $71 reversed $62 $-1 #
edge $-1 -1 -1 $-1 $98 -5 $72 5 $70 $99 forward @7 unknown T 4 14 4 14 14 4 #
vertex $-1 -1 -1 $-1 $45 $100 #
vertex $-1 -1 -1 $-1 $84 $101 #
straight-curve $-1 -1 -1 $-1 14 9 4 0 -1 0 I I #
coedge $-1 -1 -1 $-1 $64 $66 $46 $76 reversed $39 $-1 #
edge $-1 -1 -1 $-1 $79 -5 $82 5 $75 $102 forward @7 unknown T 4 4 14 4 14 14 #
coedge $-1 -1 -1 $-1 $70 $47 $52 $85 forward $62 $-1 #
coedge $-1 -1 -1 $-1 $47 $70 $64 $93 reversed $62 $-1 #
vertex $-1 -1 -1 $-1 $48 $103 #
straight-curve $-1 -1 -1 $-1 9 14 14 -1 0 0 I I #
coedge $-1 -1 -1 $-1 $49 $65 $51 $84 reversed $26 $-1 #
vertex $-1 -1 -1 $-1 $76 $104 #
straight-curve $-1 -1 -1 $-1 9 4 14 1 0 0 I I #
edge $-1 -1 -1 $-1 $54 -5 $73 5 $51 $105 forward @7 unknown T 14 4 4 14 4 14 #
edge $-1 -1 -1 $-1 $55 -5 $72 5 $52 $106 forward @7 unknown T 14 14 4 14 14 14 #
point $-1 -1 -1 $-1 14 4 14 #
point $-1 -1 -1 $-1 14 14 14 #
vertex $-1 -1 -1 $-1 $58 $107 #
ellipse-curve $-1 -1 -1 $-1 21 9 9 1 -6.1232339957367648e-17 6.1232339957367648e-17 6.1232339957367648e-17 1 0 1 I I #
point $-1 -1 -1 $-1 19 11 9 #
plane-surface $-1 -1 -1 $-1 14 9 9 -1 0 0 0 0 1 forward_v I I I I #
coedge $-1 -1 -1 $-1 $66 $64 $68 $96 reversed $39 $-1 #
edge $-1 -1 -1 $-1 $79 -5 $98 5 $78 $108 forward @7 unknown T 4 14 4 4 14 14 #
vertex $-1 -1 -1 $-1 $96 $109 #
straight-curve $-1 -1 -1 $-1 4 4 9 0 0 -1 I I #
edge $-1 -1 -1 $-1 $94 -5 $98 5 $92 $110 forward @7 unknown T 4 4 4 4 14 4 #
straight-curve $-1 -1 -1 $-1 9 4 4 -1 0 0 I I #
vertex $-1 -1 -1 $-1 $71 $111 #
straight-curve $-1 -1 -1 $-1 9 14 4 1 0 0 I I #
point $-1 -1 -1 $-1 14 14 4 #
point $-1 -1 -1 $-1 14 4 4 #
straight-curve $-1 -1 -1 $-1 4 9 14 0 -1 0 I I #
point $-1 -1 -1 $-1 4 14 14 #
point $-1 -1 -1 $-1 4 4 14 #
straight-curve $-1 -1 -1 $-1 14 4 9 0 0 -1 I I #
straight-curve $-1 -1 -1 $-1 14 14 9 0 0 -1 I I #
point $-1 -1 -1 $-1 21 10 9 #
straight-curve $-1 -1 -1 $-1 4 14 9 0 0 -1 I I #
point $-1 -1 -1 $-1 4 4 4 #
straight-curve $-1 -1 -1 $-1 4 9 4 0 1 0 I I #
point $-1 -1 -1 $-1 4 14 4 #
End-of-ACIS-data 