1600 0 1 0           
10 Cubit 10.2 14 ACIS 16.0.1 NT 24 Mon Jul 30 10:57:05 2007 
1 9.9999999999999995e-007 1e-010 
body $-1 -1 -1 $-1 $1 $-1 $2 T 4 4 4 14 14 14 #
lump $-1 -1 -1 $-1 $-1 $3 $0 T 4 4 4 14 14 14 #
transform $-1 -1 1 0 0 0 1 0 0 0 1 0 0 0 1 no_rotate no_reflect no_shear #
shell $-1 -1 -1 $-1 $-1 $-1 $4 $-1 $1 T 4 4 4 14 14 14 #
face $-1 -1 -1 $-1 $5 $6 $3 $-1 $7 forward single T 4 4 14 14 14 14 F #
face $-1 -1 -1 $-1 $8 $9 $3 $-1 $10 reversed single T 4 4 4 14 14 4 F #
loop $-1 -1 -1 $-1 $-1 $11 $4 T 4 4 14 14 14 14 unknown #
plane-surface $-1 -1 -1 $-1 9 9 14 0 0 1 1 0 0 forward_v I I I I #
face $-1 -1 -1 $-1 $12 $13 $3 $-1 $14 reversed single T 4 4 4 14 4 14 F #
loop $-1 -1 -1 $-1 $-1 $15 $5 T 4 4 4 14 14 4 unknown #
plane-surface $-1 -1 -1 $-1 9 9 4 0 0 1 1 0 0 forward_v I I I I #
coedge $-1 -1 -1 $-1 $16 $17 $18 $19 forward $6 $-1 #
face $-1 -1 -1 $-1 $20 $21 $3 $-1 $22 reversed single T 4 4 4 4 14 14 F #
loop $-1 -1 -1 $-1 $-1 $23 $8 T 4 4 4 14 4 14 unknown #
plane-surface $-1 -1 -1 $-1 9 4 9 0 1 0 0 0 1 forward_v I I I I #
coedge $-1 -1 -1 $-1 $24 $25 $26 $27 forward $9 $-1 #
coedge $-1 -1 -1 $-1 $28 $11 $29 $30 forward $6 $-1 #
coedge $-1 -1 -1 $-1 $11 $28 $31 $32 forward $6 $-1 #
coedge $-1 -1 -1 $-1 $33 $34 $11 $19 reversed $35 $-1 #
edge $-1 -1 -1 $-1 $36 -5 $37 5 $18 $38 forward @7 unknown T 14 4 14 14 14 14 #
face $-1 -1 -1 $-1 $39 $40 $3 $-1 $41 reversed single T 4 14 4 14 14 14 F #
loop $-1 -1 -1 $-1 $-1 $42 $12 T 4 4 4 4 14 14 unknown #
plane-surface $-1 -1 -1 $-1 4 9 9 1 0 0 0 0 -1 forward_v I I I I #
coedge $-1 -1 -1 $-1 $43 $31 $44 $45 forward $13 $-1 #
coedge $-1 -1 -1 $-1 $46 $15 $43 $47 forward $9 $-1 #
coedge $-1 -1 -1 $-1 $15 $46 $48 $49 forward $9 $-1 #
coedge $-1 -1 -1 $-1 $34 $33 $15 $27 reversed $35 $-1 #
edge $-1 -1 -1 $-1 $50 -5 $51 5 $26 $52 forward @7 unknown T 14 4 4 14 14 4 #
coedge $-1 -1 -1 $-1 $17 $16 $53 $54 forward $6 $-1 #
coedge $-1 -1 -1 $-1 $55 $56 $16 $30 reversed $40 $-1 #
edge $-1 -1 -1 $-1 $37 -5 $57 5 $29 $58 forward @7 unknown T 4 14 14 14 14 14 #
coedge $-1 -1 -1 $-1 $23 $59 $17 $32 reversed $13 $-1 #
edge $-1 -1 -1 $-1 $60 -5 $36 5 $31 $61 forward @7 unknown T 4 4 14 14 4 14 #
coedge $-1 -1 -1 $-1 $26 $18 $59 $62 forward $35 $-1 #
coedge $-1 -1 -1 $-1 $18 $26 $55 $63 reversed $35 $-1 #
loop $-1 -1 -1 $-1 $-1 $33 $39 T 14 4 4 14 14 14 unknown #
vertex $-1 -1 -1 $-1 $19 $64 #
vertex $-1 -1 -1 $-1 $19 $65 #
straight-curve $-1 -1 -1 $-1 14 9 14 0 1 0 I I #
face $-1 -1 -1 $-1 $-1 $35 $3 $-1 $66 reversed single T 14 4 4 14 14 14 F #
loop $-1 -1 -1 $-1 $-1 $55 $20 T 4 14 4 14 14 14 unknown #
plane-surface $-1 -1 -1 $-1 9 14 9 0 -1 0 0 0 -1 forward_v I I I I #
coedge $-1 -1 -1 $-1 $67 $53 $56 $68 forward $21 $-1 #
coedge $-1 -1 -1 $-1 $59 $23 $24 $47 reversed $13 $-1 #
coedge $-1 -1 -1 $-1 $53 $67 $23 $45 reversed $21 $-1 #
edge $-1 -1 -1 $-1 $60 -5 $69 5 $44 $70 forward @7 unknown T 4 4 4 4 4 14 #
coedge $-1 -1 -1 $-1 $25 $24 $67 $71 forward $9 $-1 #
edge $-1 -1 -1 $-1 $51 -5 $69 5 $43 $72 forward @7 unknown T 4 4 4 14 4 4 #
coedge $-1 -1 -1 $-1 $56 $55 $25 $49 reversed $40 $-1 #
edge $-1 -1 -1 $-1 $73 -5 $50 5 $48 $74 forward @7 unknown T 4 14 4 14 14 4 #
vertex $-1 -1 -1 $-1 $27 $75 #
vertex $-1 -1 -1 $-1 $62 $76 #
straight-curve $-1 -1 -1 $-1 14 9 4 0 -1 0 I I #
coedge $-1 -1 -1 $-1 $42 $44 $28 $54 reversed $21 $-1 #
edge $-1 -1 -1 $-1 $57 -5 $60 5 $53 $77 forward @7 unknown T 4 4 14 4 14 14 #
coedge $-1 -1 -1 $-1 $48 $29 $34 $63 forward $40 $-1 #
coedge $-1 -1 -1 $-1 $29 $48 $42 $68 reversed $40 $-1 #
vertex $-1 -1 -1 $-1 $30 $78 #
straight-curve $-1 -1 -1 $-1 9 14 14 -1 0 0 I I #
coedge $-1 -1 -1 $-1 $31 $43 $33 $62 reversed $13 $-1 #
vertex $-1 -1 -1 $-1 $54 $79 #
straight-curve $-1 -1 -1 $-1 9 4 14 1 0 0 I I #
edge $-1 -1 -1 $-1 $36 -5 $51 5 $33 $80 forward @7 unknown T 14 4 4 14 4 14 #
edge $-1 -1 -1 $-1 $37 -5 $50 5 $34 $81 forward @7 unknown T 14 14 4 14 14 14 #
point $-1 -1 -1 $-1 14 4 14 #
point $-1 -1 -1 $-1 14 14 14 #
plane-surface $-1 -1 -1 $-1 14 9 9 -1 0 0 0 0 1 forward_v I I I I #
coedge $-1 -1 -1 $-1 $44 $42 $46 $71 reversed $21 $-1 #
edge $-1 -1 -1 $-1 $57 -5 $73 5 $56 $82 forward @7 unknown T 4 14 4 4 14 14 #
vertex $-1 -1 -1 $-1 $71 $83 #
straight-curve $-1 -1 -1 $-1 4 4 9 0 0 -1 I I #
edge $-1 -1 -1 $-1 $69 -5 $73 5 $67 $84 forward @7 unknown T 4 4 4 4 14 4 #
straight-curve $-1 -1 -1 $-1 9 4 4 -1 0 0 I I #
vertex $-1 -1 -1 $-1 $49 $85 #
straight-curve $-1 -1 -1 $-1 9 14 4 1 0 0 I I #
point $-1 -1 -1 $-1 14 14 4 #
point $-1 -1 -1 $-1 14 4 4 #
straight-curve $-1 -1 -1 $-1 4 9 14 0 -1 0 I I #
point $-1 -1 -1 $-1 4 14 14 #
point $-1 -1 -1 $-1 4 4 14 #
straight-curve $-1 -1 -1 $-1 14 4 9 0 0 -1 I I #
straight-curve $-1 -1 -1 $-1 14 14 9 0 0 -1 I I #
straight-curve $-1 -1 -1 $-1 4 14 9 0 0 -1 I I #
point $-1 -1 -1 $-1 4 4 4 #
straight-curve $-1 -1 -1 $-1 4 9 4 0 1 0 I I #
point $-1 -1 -1 $-1 4 14 4 #
End-of-ACIS-data 