1600 0 2 0           
10 Cubit 10.2 17 ACIS 16.0.1 Linux 24 Wed Aug 15 12:19:16 2007 
1 9.9999999999999995e-07 1e-10 
body $-1 -1 -1 $-1 $2 $-1 $3 T 4 4 4 14 14 14 #
body $-1 -1 -1 $-1 $4 $-1 $-1 T 4 3.9999999999999996 3.9999999999999991 4 14 14.000000000000004 #
lump $-1 -1 -1 $-1 $-1 $5 $0 T 4 4 4 14 14 14 #
transform $-1 -1 1 0 0 0 1 0 0 0 1 0 0 0 1 no_rotate no_reflect no_shear #
lump $-1 -1 -1 $-1 $-1 $6 $1 T 4 3.9999999999999996 3.9999999999999991 4 14 14.000000000000004 #
shell $-1 -1 -1 $-1 $-1 $-1 $7 $-1 $2 T 4 4 4 14 14 14 #
shell $-1 -1 -1 $-1 $-1 $-1 $8 $-1 $4 T 4 3.9999999999999996 3.9999999999999991 4 14 14.000000000000004 #
face $-1 -1 -1 $-1 $9 $10 $5 $-1 $11 forward single T 4 4 14 14 14 14 F #
face $-1 -1 -1 $-1 $-1 $12 $6 $-1 $13 reversed double out T 4 3.9999999999999996 3.9999999999999991 4 14 14.000000000000004 F #
face $-1 -1 -1 $-1 $14 $15 $5 $-1 $16 reversed single T 4 4 4 14 14 4 F #
loop $-1 -1 -1 $-1 $-1 $17 $7 T 4 4 14 14 14 14 unknown #
plane-surface $-1 -1 -1 $-1 9 9 14 0 0 1 1 0 0 forward_v I I I I #
loop $-1 -1 -1 $-1 $-1 $18 $8 T 4 3.9999999999999996 3.9999999999999991 4 14 14.000000000000004 unknown #
plane-surface $-1 -1 -1 $-1 4 9 9 1 0 0 0 0 -1 forward_v I I I I #
face $-1 -1 -1 $-1 $19 $20 $5 $-1 $21 reversed single T 4 4 4 14 4 14 F #
loop $-1 -1 -1 $-1 $-1 $22 $9 T 4 4 4 14 14 4 unknown #
plane-surface $-1 -1 -1 $-1 9 9 4 0 0 1 1 0 0 forward_v I I I I #
coedge $-1 -1 -1 $-1 $23 $24 $25 $26 forward $10 $-1 #
coedge $-1 -1 -1 $-1 $27 $28 $-1 $29 reversed $12 $-1 #
face $-1 -1 -1 $-1 $30 $31 $5 $-1 $32 reversed single T 4 4 4 4 14 14 F #
loop $-1 -1 -1 $-1 $-1 $33 $14 T 4 4 4 14 4 14 unknown #
plane-surface $-1 -1 -1 $-1 9 4 9 0 1 0 0 0 1 forward_v I I I I #
coedge $-1 -1 -1 $-1 $34 $35 $36 $37 forward $15 $-1 #
coedge $-1 -1 -1 $-1 $38 $17 $39 $40 forward $10 $-1 #
coedge $-1 -1 -1 $-1 $17 $38 $41 $42 forward $10 $-1 #
coedge $-1 -1 -1 $-1 $43 $44 $17 $26 reversed $45 $-1 #
edge $-1 -1 -1 $-1 $46 -5 $47 5 $25 $48 forward @7 unknown T 14 4 14 14 14 14 #
coedge $-1 -1 -1 $-1 $49 $18 $-1 $50 forward $12 $-1 #
coedge $-1 -1 -1 $-1 $18 $49 $-1 $51 reversed $12 $-1 #
edge $-1 -1 -1 $-1 $52 -3.7826608214930642 $53 3.8331122843708445 $18 $54 forward @7 unknown T 4 3.9999999999999996 4 4 11 7.0000000000000027 #
face $-1 -1 -1 $-1 $55 $56 $5 $-1 $57 reversed single T 4 14 4 14 14 14 F #
loop $-1 -1 -1 $-1 $-1 $58 $19 T 4 4 4 4 14 14 unknown #
plane-surface $-1 -1 -1 $-1 4 9 9 1 0 0 0 0 -1 forward_v I I I I #
coedge $-1 -1 -1 $-1 $59 $41 $60 $61 forward $20 $-1 #
coedge $-1 -1 -1 $-1 $62 $22 $59 $63 forward $15 $-1 #
coedge $-1 -1 -1 $-1 $22 $62 $64 $65 forward $15 $-1 #
coedge $-1 -1 -1 $-1 $44 $43 $22 $37 reversed $45 $-1 #
edge $-1 -1 -1 $-1 $66 -5 $67 5 $36 $68 forward @7 unknown T 14 4 4 14 14 4 #
coedge $-1 -1 -1 $-1 $24 $23 $69 $70 forward $10 $-1 #
coedge $-1 -1 -1 $-1 $71 $72 $23 $40 reversed $56 $-1 #
edge $-1 -1 -1 $-1 $47 -5 $73 5 $39 $74 forward @7 unknown T 4 14 14 14 14 14 #
coedge $-1 -1 -1 $-1 $33 $75 $24 $42 reversed $20 $-1 #
edge $-1 -1 -1 $-1 $76 -5 $46 5 $41 $77 forward @7 unknown T 4 4 14 14 4 14 #
coedge $-1 -1 -1 $-1 $36 $25 $75 $78 forward $45 $-1 #
coedge $-1 -1 -1 $-1 $25 $36 $71 $79 reversed $45 $-1 #
loop $-1 -1 -1 $-1 $-1 $43 $55 T 14 4 4 14 14 14 unknown #
vertex $-1 -1 -1 $-1 $26 $80 #
vertex $-1 -1 -1 $-1 $26 $81 #
straight-curve $-1 -1 -1 $-1 14 9 14 0 1 0 I I #
coedge $-1 -1 -1 $-1 $28 $27 $-1 $82 forward $12 $-1 #
edge $-1 -1 -1 $-1 $52 -3.3541019662496852 $83 7.8262379212492652 $27 $84 forward @7 unknown T 4 3.9999999999999996 3.9999999999999991 4 9 14.000000000000002 #
edge $-1 -1 -1 $-1 $53 -0.52522573143889106 $85 7.090547374425018 $28 $86 forward @7 unknown T 4 11 7 4 14 14.000000000000004 #
vertex $-1 -1 -1 $-1 $29 $87 #
vertex $-1 -1 -1 $-1 $29 $88 #
straight-curve $-1 -1 -1 $-1 4 7.4768138943193732 5.4900630975654474 -0 0.91914503001805781 0.39391929857916802 I I #
face $-1 -1 -1 $-1 $-1 $45 $5 $-1 $89 reversed single T 14 4 4 14 14 14 F #
loop $-1 -1 -1 $-1 $-1 $71 $30 T 4 14 4 14 14 14 unknown #
plane-surface $-1 -1 -1 $-1 9 14 9 0 -1 0 0 0 -1 forward_v I I I I #
coedge $-1 -1 -1 $-1 $90 $69 $72 $91 forward $31 $-1 #
coedge $-1 -1 -1 $-1 $75 $33 $34 $63 reversed $20 $-1 #
coedge $-1 -1 -1 $-1 $69 $90 $33 $61 reversed $31 $-1 #
edge $-1 -1 -1 $-1 $76 -5 $92 5 $60 $93 forward @7 unknown T 4 4 4 4 4 14 #
coedge $-1 -1 -1 $-1 $35 $34 $90 $94 forward $15 $-1 #
edge $-1 -1 -1 $-1 $67 -5 $92 5 $59 $95 forward @7 unknown T 4 4 4 14 4 4 #
coedge $-1 -1 -1 $-1 $72 $71 $35 $65 reversed $56 $-1 #
edge $-1 -1 -1 $-1 $96 -5 $66 5 $64 $97 forward @7 unknown T 4 14 4 14 14 4 #
vertex $-1 -1 -1 $-1 $37 $98 #
vertex $-1 -1 -1 $-1 $78 $99 #
straight-curve $-1 -1 -1 $-1 14 9 4 0 -1 0 I I #
coedge $-1 -1 -1 $-1 $58 $60 $38 $70 reversed $31 $-1 #
edge $-1 -1 -1 $-1 $73 -5 $76 5 $69 $100 forward @7 unknown T 4 4 14 4 14 14 #
coedge $-1 -1 -1 $-1 $64 $39 $44 $79 forward $56 $-1 #
coedge $-1 -1 -1 $-1 $39 $64 $58 $91 reversed $56 $-1 #
vertex $-1 -1 -1 $-1 $40 $101 #
straight-curve $-1 -1 -1 $-1 9 14 14 -1 0 0 I I #
coedge $-1 -1 -1 $-1 $41 $59 $43 $78 reversed $20 $-1 #
vertex $-1 -1 -1 $-1 $70 $102 #
straight-curve $-1 -1 -1 $-1 9 4 14 1 0 0 I I #
edge $-1 -1 -1 $-1 $46 -5 $67 5 $43 $103 forward @7 unknown T 14 4 4 14 4 14 #
edge $-1 -1 -1 $-1 $47 -5 $66 5 $44 $104 forward @7 unknown T 14 14 4 14 14 14 #
point $-1 -1 -1 $-1 14 4 14 #
point $-1 -1 -1 $-1 14 14 14 #
edge $-1 -1 -1 $-1 $83 -0.5 $85 4.5 $49 $105 forward @7 unknown T 4 9 14 4 14 14 #
vertex $-1 -1 -1 $-1 $50 $106 #
straight-curve $-1 -1 -1 $-1 4 5.5 7 -0 0.44721359549995798 0.89442719099991597 I I #
vertex $-1 -1 -1 $-1 $82 $107 #
straight-curve $-1 -1 -1 $-1 4 11.206896551724139 7.4827586206896557 -0 0.39391929857916724 0.91914503001805814 I I #
point $-1 -1 -1 $-1 4 4 4 #
point $-1 -1 -1 $-1 4 11 7 #
plane-surface $-1 -1 -1 $-1 14 9 9 -1 0 0 0 0 1 forward_v I I I I #
coedge $-1 -1 -1 $-1 $60 $58 $62 $94 reversed $31 $-1 #
edge $-1 -1 -1 $-1 $73 -5 $96 5 $72 $108 forward @7 unknown T 4 14 4 4 14 14 #
vertex $-1 -1 -1 $-1 $94 $109 #
straight-curve $-1 -1 -1 $-1 4 4 9 0 0 -1 I I #
edge $-1 -1 -1 $-1 $92 -5 $96 5 $90 $110 forward @7 unknown T 4 4 4 4 14 4 #
straight-curve $-1 -1 -1 $-1 9 4 4 -1 0 0 I I #
vertex $-1 -1 -1 $-1 $65 $111 #
straight-curve $-1 -1 -1 $-1 9 14 4 1 0 0 I I #
point $-1 -1 -1 $-1 14 14 4 #
point $-1 -1 -1 $-1 14 4 4 #
straight-curve $-1 -1 -1 $-1 4 9 14 0 -1 0 I I #
point $-1 -1 -1 $-1 4 14 14 #
point $-1 -1 -1 $-1 4 4 14 #
straight-curve $-1 -1 -1 $-1 14 4 9 0 0 -1 I I #
straight-curve $-1 -1 -1 $-1 14 14 9 0 0 -1 I I #
straight-curve $-1 -1 -1 $-1 4 9.5 14 0 1 0 I I #
point $-1 -1 -1 $-1 4 9 14 #
point $-1 -1 -1 $-1 4 14 14 #
straight-curve $-1 -1 -1 $-1 4 14 9 0 0 -1 I I #
point $-1 -1 -1 $-1 4 4 4 #
straight-curve $-1 -1 -1 $-1 4 9 4 0 1 0 I I #
point $-1 -1 -1 $-1 4 14 4 #
End-of-ACIS-data 