1600 0 3 0           
10 Cubit 10.2 17 ACIS 16.0.1 Linux 24 Wed Aug  8 10:41:18 2007 
1 9.9999999999999995e-07 1e-10 
body $-1 -1 -1 $-1 $3 $-1 $4 T 4 4 4 14 14 14 #
edge $-1 -1 -1 $-1 $5 -3.7826608214930642 $6 3.8331122843708445 $-1 $7 forward @7 unknown F #
edge $-1 -1 -1 $-1 $8 -0.52522573143889106 $9 7.090547374425018 $-1 $10 forward @7 unknown F #
lump $-1 -1 -1 $-1 $-1 $11 $0 T 4 4 4 14 14 14 #
transform $-1 -1 1 0 0 0 1 0 0 0 1 0 0 0 1 no_rotate no_reflect no_shear #
vertex $-1 -1 -1 $-1 $1 $12 #
vertex $-1 -1 -1 $-1 $1 $13 #
straight-curve $-1 -1 -1 $-1 4 7.4768138943193732 5.4900630975654474 -0 0.91914503001805781 0.39391929857916802 I I #
vertex $-1 -1 -1 $-1 $2 $14 #
vertex $-1 -1 -1 $-1 $2 $15 #
straight-curve $-1 -1 -1 $-1 4 11.206896551724139 7.4827586206896557 -0 0.39391929857916724 0.91914503001805814 I I #
shell $-1 -1 -1 $-1 $-1 $-1 $16 $-1 $3 T 4 4 4 14 14 14 #
point $-1 -1 -1 $-1 4 4 4 #
point $-1 -1 -1 $-1 4 11 7 #
point $-1 -1 -1 $-1 4 11 7 #
point $-1 -1 -1 $-1 4 14 14 #
face $-1 -1 -1 $-1 $17 $18 $11 $-1 $19 forward single T 4 4 14 14 14 14 F #
face $-1 -1 -1 $-1 $20 $21 $11 $-1 $22 reversed single T 4 4 4 14 14 4 F #
loop $-1 -1 -1 $-1 $-1 $23 $16 T 4 4 14 14 14 14 unknown #
plane-surface $-1 -1 -1 $-1 9 9 14 0 0 1 1 0 0 forward_v I I I I #
face $-1 -1 -1 $-1 $24 $25 $11 $-1 $26 reversed single T 4 4 4 14 4 14 F #
loop $-1 -1 -1 $-1 $-1 $27 $17 T 4 4 4 14 14 4 unknown #
plane-surface $-1 -1 -1 $-1 9 9 4 0 0 1 1 0 0 forward_v I I I I #
coedge $-1 -1 -1 $-1 $28 $29 $30 $31 forward $18 $-1 #
face $-1 -1 -1 $-1 $32 $33 $11 $-1 $34 reversed single T 4 4 4 4 14 14 F #
loop $-1 -1 -1 $-1 $-1 $35 $20 T 4 4 4 14 4 14 unknown #
plane-surface $-1 -1 -1 $-1 9 4 9 0 1 0 0 0 1 forward_v I I I I #
coedge $-1 -1 -1 $-1 $36 $37 $38 $39 forward $21 $-1 #
coedge $-1 -1 -1 $-1 $40 $23 $41 $42 forward $18 $-1 #
coedge $-1 -1 -1 $-1 $23 $40 $43 $44 forward $18 $-1 #
coedge $-1 -1 -1 $-1 $45 $46 $23 $31 reversed $47 $-1 #
edge $-1 -1 -1 $-1 $48 -5 $49 5 $30 $50 forward @7 unknown T 14 4 14 14 14 14 #
face $-1 -1 -1 $-1 $51 $52 $11 $-1 $53 reversed single T 4 14 4 14 14 14 F #
loop $-1 -1 -1 $-1 $-1 $54 $24 T 4 4 4 4 14 14 unknown #
plane-surface $-1 -1 -1 $-1 4 9 9 1 0 0 0 0 -1 forward_v I I I I #
coedge $-1 -1 -1 $-1 $55 $43 $56 $57 forward $25 $-1 #
coedge $-1 -1 -1 $-1 $58 $27 $55 $59 forward $21 $-1 #
coedge $-1 -1 -1 $-1 $27 $58 $60 $61 forward $21 $-1 #
coedge $-1 -1 -1 $-1 $46 $45 $27 $39 reversed $47 $-1 #
edge $-1 -1 -1 $-1 $62 -5 $63 5 $38 $64 forward @7 unknown T 14 4 4 14 14 4 #
coedge $-1 -1 -1 $-1 $29 $28 $65 $66 forward $18 $-1 #
coedge $-1 -1 -1 $-1 $67 $68 $28 $42 reversed $52 $-1 #
edge $-1 -1 -1 $-1 $49 -5 $69 5 $41 $70 forward @7 unknown T 4 14 14 14 14 14 #
coedge $-1 -1 -1 $-1 $35 $71 $29 $44 reversed $25 $-1 #
edge $-1 -1 -1 $-1 $72 -5 $48 5 $43 $73 forward @7 unknown T 4 4 14 14 4 14 #
coedge $-1 -1 -1 $-1 $38 $30 $71 $74 forward $47 $-1 #
coedge $-1 -1 -1 $-1 $30 $38 $67 $75 reversed $47 $-1 #
loop $-1 -1 -1 $-1 $-1 $45 $51 T 14 4 4 14 14 14 unknown #
vertex $-1 -1 -1 $-1 $31 $76 #
vertex $-1 -1 -1 $-1 $31 $77 #
straight-curve $-1 -1 -1 $-1 14 9 14 0 1 0 I I #
face $-1 -1 -1 $-1 $-1 $47 $11 $-1 $78 reversed single T 14 4 4 14 14 14 F #
loop $-1 -1 -1 $-1 $-1 $67 $32 T 4 14 4 14 14 14 unknown #
plane-surface $-1 -1 -1 $-1 9 14 9 0 -1 0 0 0 -1 forward_v I I I I #
coedge $-1 -1 -1 $-1 $79 $65 $68 $80 forward $33 $-1 #
coedge $-1 -1 -1 $-1 $71 $35 $36 $59 reversed $25 $-1 #
coedge $-1 -1 -1 $-1 $65 $79 $35 $57 reversed $33 $-1 #
edge $-1 -1 -1 $-1 $72 -5 $81 5 $56 $82 forward @7 unknown T 4 4 4 4 4 14 #
coedge $-1 -1 -1 $-1 $37 $36 $79 $83 forward $21 $-1 #
edge $-1 -1 -1 $-1 $63 -5 $81 5 $55 $84 forward @7 unknown T 4 4 4 14 4 4 #
coedge $-1 -1 -1 $-1 $68 $67 $37 $61 reversed $52 $-1 #
edge $-1 -1 -1 $-1 $85 -5 $62 5 $60 $86 forward @7 unknown T 4 14 4 14 14 4 #
vertex $-1 -1 -1 $-1 $39 $87 #
vertex $-1 -1 -1 $-1 $74 $88 #
straight-curve $-1 -1 -1 $-1 14 9 4 0 -1 0 I I #
coedge $-1 -1 -1 $-1 $54 $56 $40 $66 reversed $33 $-1 #
edge $-1 -1 -1 $-1 $69 -5 $72 5 $65 $89 forward @7 unknown T 4 4 14 4 14 14 #
coedge $-1 -1 -1 $-1 $60 $41 $46 $75 forward $52 $-1 #
coedge $-1 -1 -1 $-1 $41 $60 $54 $80 reversed $52 $-1 #
vertex $-1 -1 -1 $-1 $42 $90 #
straight-curve $-1 -1 -1 $-1 9 14 14 -1 0 0 I I #
coedge $-1 -1 -1 $-1 $43 $55 $45 $74 reversed $25 $-1 #
vertex $-1 -1 -1 $-1 $66 $91 #
straight-curve $-1 -1 -1 $-1 9 4 14 1 0 0 I I #
edge $-1 -1 -1 $-1 $48 -5 $63 5 $45 $92 forward @7 unknown T 14 4 4 14 4 14 #
edge $-1 -1 -1 $-1 $49 -5 $62 5 $46 $93 forward @7 unknown T 14 14 4 14 14 14 #
point $-1 -1 -1 $-1 14 4 14 #
point $-1 -1 -1 $-1 14 14 14 #
plane-surface $-1 -1 -1 $-1 14 9 9 -1 0 0 0 0 1 forward_v I I I I #
coedge $-1 -1 -1 $-1 $56 $54 $58 $83 reversed $33 $-1 #
edge $-1 -1 -1 $-1 $69 -5 $85 5 $68 $94 forward @7 unknown T 4 14 4 4 14 14 #
vertex $-1 -1 -1 $-1 $83 $95 #
straight-curve $-1 -1 -1 $-1 4 4 9 0 0 -1 I I #
edge $-1 -1 -1 $-1 $81 -5 $85 5 $79 $96 forward @7 unknown T 4 4 4 4 14 4 #
straight-curve $-1 -1 -1 $-1 9 4 4 -1 0 0 I I #
vertex $-1 -1 -1 $-1 $61 $97 #
straight-curve $-1 -1 -1 $-1 9 14 4 1 0 0 I I #
point $-1 -1 -1 $-1 14 14 4 #
point $-1 -1 -1 $-1 14 4 4 #
straight-curve $-1 -1 -1 $-1 4 9 14 0 -1 0 I I #
point $-1 -1 -1 $-1 4 14 14 #
point $-1 -1 -1 $-1 4 4 14 #
straight-curve $-1 -1 -1 $-1 14 4 9 0 0 -1 I I #
straight-curve $-1 -1 -1 $-1 14 14 9 0 0 -1 I I #
straight-curve $-1 -1 -1 $-1 4 14 9 0 0 -1 I I #
point $-1 -1 -1 $-1 4 4 4 #
straight-curve $-1 -1 -1 $-1 4 9 4 0 1 0 I I #
point $-1 -1 -1 $-1 4 14 4 #
End-of-ACIS-data 