1600 0 2 0           
10 Cubit 10.2 17 ACIS 16.0.1 Linux 24 Tue Aug  7 13:31:13 2007 
1 9.9999999999999995e-07 1e-10 
body $-1 -1 -1 $-1 $2 $-1 $3 T 4 4 4 14 14 14 #
edge $-1 -1 -1 $-1 $4 0 $5 1.5707963267948966 $-1 $6 forward @7 unknown F #
lump $-1 -1 -1 $-1 $-1 $7 $0 T 4 4 4 14 14 14 #
transform $-1 -1 1 0 0 0 1 0 0 0 1 0 0 0 1 no_rotate no_reflect no_shear #
vertex $-1 -1 -1 $-1 $1 $8 #
vertex $-1 -1 -1 $-1 $1 $9 #
ellipse-curve $-1 -1 -1 $-1 4 4 14 1 -0 0 0 0 -10 1 I I #
shell $-1 -1 -1 $-1 $-1 $-1 $10 $-1 $2 T 4 4 4 14 14 14 #
point $-1 -1 -1 $-1 4 4 4 #
point $-1 -1 -1 $-1 4 14 14 #
face $-1 -1 -1 $-1 $11 $12 $7 $-1 $13 forward single T 4 4 14 14 14 14 F #
face $-1 -1 -1 $-1 $14 $15 $7 $-1 $16 reversed single T 4 4 4 14 14 4 F #
loop $-1 -1 -1 $-1 $-1 $17 $10 T 4 4 14 14 14 14 unknown #
plane-surface $-1 -1 -1 $-1 9 9 14 0 0 1 1 0 0 forward_v I I I I #
face $-1 -1 -1 $-1 $18 $19 $7 $-1 $20 reversed single T 4 4 4 14 4 14 F #
loop $-1 -1 -1 $-1 $-1 $21 $11 T 4 4 4 14 14 4 unknown #
plane-surface $-1 -1 -1 $-1 9 9 4 0 0 1 1 0 0 forward_v I I I I #
coedge $-1 -1 -1 $-1 $22 $23 $24 $25 forward $12 $-1 #
face $-1 -1 -1 $-1 $26 $27 $7 $-1 $28 reversed single T 4 4 4 4 14 14 F #
loop $-1 -1 -1 $-1 $-1 $29 $14 T 4 4 4 14 4 14 unknown #
plane-surface $-1 -1 -1 $-1 9 4 9 0 1 0 0 0 1 forward_v I I I I #
coedge $-1 -1 -1 $-1 $30 $31 $32 $33 forward $15 $-1 #
coedge $-1 -1 -1 $-1 $34 $17 $35 $36 forward $12 $-1 #
coedge $-1 -1 -1 $-1 $17 $34 $37 $38 forward $12 $-1 #
coedge $-1 -1 -1 $-1 $39 $40 $17 $25 reversed $41 $-1 #
edge $-1 -1 -1 $-1 $42 -5 $43 5 $24 $44 forward @7 unknown T 14 4 14 14 14 14 #
face $-1 -1 -1 $-1 $45 $46 $7 $-1 $47 reversed single T 4 14 4 14 14 14 F #
loop $-1 -1 -1 $-1 $-1 $48 $18 T 4 4 4 4 14 14 unknown #
plane-surface $-1 -1 -1 $-1 4 9 9 1 0 0 0 0 -1 forward_v I I I I #
coedge $-1 -1 -1 $-1 $49 $37 $50 $51 forward $19 $-1 #
coedge $-1 -1 -1 $-1 $52 $21 $49 $53 forward $15 $-1 #
coedge $-1 -1 -1 $-1 $21 $52 $54 $55 forward $15 $-1 #
coedge $-1 -1 -1 $-1 $40 $39 $21 $33 reversed $41 $-1 #
edge $-1 -1 -1 $-1 $56 -5 $57 5 $32 $58 forward @7 unknown T 14 4 4 14 14 4 #
coedge $-1 -1 -1 $-1 $23 $22 $59 $60 forward $12 $-1 #
coedge $-1 -1 -1 $-1 $61 $62 $22 $36 reversed $46 $-1 #
edge $-1 -1 -1 $-1 $43 -5 $63 5 $35 $64 forward @7 unknown T 4 14 14 14 14 14 #
coedge $-1 -1 -1 $-1 $29 $65 $23 $38 reversed $19 $-1 #
edge $-1 -1 -1 $-1 $66 -5 $42 5 $37 $67 forward @7 unknown T 4 4 14 14 4 14 #
coedge $-1 -1 -1 $-1 $32 $24 $65 $68 forward $41 $-1 #
coedge $-1 -1 -1 $-1 $24 $32 $61 $69 reversed $41 $-1 #
loop $-1 -1 -1 $-1 $-1 $39 $45 T 14 4 4 14 14 14 unknown #
vertex $-1 -1 -1 $-1 $25 $70 #
vertex $-1 -1 -1 $-1 $25 $71 #
straight-curve $-1 -1 -1 $-1 14 9 14 0 1 0 I I #
face $-1 -1 -1 $-1 $-1 $41 $7 $-1 $72 reversed single T 14 4 4 14 14 14 F #
loop $-1 -1 -1 $-1 $-1 $61 $26 T 4 14 4 14 14 14 unknown #
plane-surface $-1 -1 -1 $-1 9 14 9 0 -1 0 0 0 -1 forward_v I I I I #
coedge $-1 -1 -1 $-1 $73 $59 $62 $74 forward $27 $-1 #
coedge $-1 -1 -1 $-1 $65 $29 $30 $53 reversed $19 $-1 #
coedge $-1 -1 -1 $-1 $59 $73 $29 $51 reversed $27 $-1 #
edge $-1 -1 -1 $-1 $66 -5 $75 5 $50 $76 forward @7 unknown T 4 4 4 4 4 14 #
coedge $-1 -1 -1 $-1 $31 $30 $73 $77 forward $15 $-1 #
edge $-1 -1 -1 $-1 $57 -5 $75 5 $49 $78 forward @7 unknown T 4 4 4 14 4 4 #
coedge $-1 -1 -1 $-1 $62 $61 $31 $55 reversed $46 $-1 #
edge $-1 -1 -1 $-1 $79 -5 $56 5 $54 $80 forward @7 unknown T 4 14 4 14 14 4 #
vertex $-1 -1 -1 $-1 $33 $81 #
vertex $-1 -1 -1 $-1 $68 $82 #
straight-curve $-1 -1 -1 $-1 14 9 4 0 -1 0 I I #
coedge $-1 -1 -1 $-1 $48 $50 $34 $60 reversed $27 $-1 #
edge $-1 -1 -1 $-1 $63 -5 $66 5 $59 $83 forward @7 unknown T 4 4 14 4 14 14 #
coedge $-1 -1 -1 $-1 $54 $35 $40 $69 forward $46 $-1 #
coedge $-1 -1 -1 $-1 $35 $54 $48 $74 reversed $46 $-1 #
vertex $-1 -1 -1 $-1 $36 $84 #
straight-curve $-1 -1 -1 $-1 9 14 14 -1 0 0 I I #
coedge $-1 -1 -1 $-1 $37 $49 $39 $68 reversed $19 $-1 #
vertex $-1 -1 -1 $-1 $60 $85 #
straight-curve $-1 -1 -1 $-1 9 4 14 1 0 0 I I #
edge $-1 -1 -1 $-1 $42 -5 $57 5 $39 $86 forward @7 unknown T 14 4 4 14 4 14 #
edge $-1 -1 -1 $-1 $43 -5 $56 5 $40 $87 forward @7 unknown T 14 14 4 14 14 14 #
point $-1 -1 -1 $-1 14 4 14 #
point $-1 -1 -1 $-1 14 14 14 #
plane-surface $-1 -1 -1 $-1 14 9 9 -1 0 0 0 0 1 forward_v I I I I #
coedge $-1 -1 -1 $-1 $50 $48 $52 $77 reversed $27 $-1 #
edge $-1 -1 -1 $-1 $63 -5 $79 5 $62 $88 forward @7 unknown T 4 14 4 4 14 14 #
vertex $-1 -1 -1 $-1 $77 $89 #
straight-curve $-1 -1 -1 $-1 4 4 9 0 0 -1 I I #
edge $-1 -1 -1 $-1 $75 -5 $79 5 $73 $90 forward @7 unknown T 4 4 4 4 14 4 #
straight-curve $-1 -1 -1 $-1 9 4 4 -1 0 0 I I #
vertex $-1 -1 -1 $-1 $55 $91 #
straight-curve $-1 -1 -1 $-1 9 14 4 1 0 0 I I #
point $-1 -1 -1 $-1 14 14 4 #
point $-1 -1 -1 $-1 14 4 4 #
straight-curve $-1 -1 -1 $-1 4 9 14 0 -1 0 I I #
point $-1 -1 -1 $-1 4 14 14 #
point $-1 -1 -1 $-1 4 4 14 #
straight-curve $-1 -1 -1 $-1 14 4 9 0 0 -1 I I #
straight-curve $-1 -1 -1 $-1 14 14 9 0 0 -1 I I #
straight-curve $-1 -1 -1 $-1 4 14 9 0 0 -1 I I #
point $-1 -1 -1 $-1 4 4 4 #
straight-curve $-1 -1 -1 $-1 4 9 4 0 1 0 I I #
point $-1 -1 -1 $-1 4 14 4 #
End-of-ACIS-data 