1600 0 5 0           
10 Cubit 10.2 17 ACIS 16.0.1 Linux 24 Wed Aug  8 14:02:32 2007 
1 9.9999999999999995e-07 1e-10 
body $-1 -1 -1 $-1 $5 $-1 $6 T 4 4 4 14 14 14 #
edge $-1 -1 -1 $-1 $7 -2 $8 8 $-1 $9 forward @7 unknown F #
edge $-1 -1 -1 $-1 $10 -2.5 $11 7.5 $-1 $12 forward @7 unknown F #
edge $-1 -1 -1 $-1 $13 -3 $14 7 $-1 $15 forward @7 unknown F #
edge $-1 -1 -1 $-1 $16 -2.5 $17 7.5 $-1 $18 forward @7 unknown F #
lump $-1 -1 -1 $-1 $-1 $19 $0 T 4 4 4 14 14 14 #
transform $-1 -1 1 0 0 0 1 0 0 0 1 0 0 0 1 no_rotate no_reflect no_shear #
vertex $-1 -1 -1 $-1 $1 $20 #
vertex $-1 -1 -1 $-1 $1 $21 #
straight-curve $-1 -1 -1 $-1 4 12 9 0 -1 0 I I #
vertex $-1 -1 -1 $-1 $2 $22 #
vertex $-1 -1 -1 $-1 $2 $23 #
straight-curve $-1 -1 -1 $-1 6.5 4 9 1 -0 0 I I #
vertex $-1 -1 -1 $-1 $3 $24 #
vertex $-1 -1 -1 $-1 $3 $25 #
straight-curve $-1 -1 -1 $-1 14 7 9 0 1 0 I I #
vertex $-1 -1 -1 $-1 $4 $26 #
vertex $-1 -1 -1 $-1 $4 $27 #
straight-curve $-1 -1 -1 $-1 11.5 14 9 -1 -0 -0 I I #
shell $-1 -1 -1 $-1 $-1 $-1 $28 $-1 $5 T 4 4 4 14 14 14 #
point $-1 -1 -1 $-1 4 14 9 #
point $-1 -1 -1 $-1 4 4 9 #
point $-1 -1 -1 $-1 4 4 9 #
point $-1 -1 -1 $-1 14 4 9 #
point $-1 -1 -1 $-1 14 4 9 #
point $-1 -1 -1 $-1 14 14 9 #
point $-1 -1 -1 $-1 14 14 9 #
point $-1 -1 -1 $-1 4 14 9 #
face $-1 -1 -1 $-1 $29 $30 $19 $-1 $31 forward single T 4 4 14 14 14 14 F #
face $-1 -1 -1 $-1 $32 $33 $19 $-1 $34 reversed single T 4 4 4 14 14 4 F #
loop $-1 -1 -1 $-1 $-1 $35 $28 T 4 4 14 14 14 14 unknown #
plane-surface $-1 -1 -1 $-1 9 9 14 0 0 1 1 0 0 forward_v I I I I #
face $-1 -1 -1 $-1 $36 $37 $19 $-1 $38 reversed single T 4 4 4 14 4 14 F #
loop $-1 -1 -1 $-1 $-1 $39 $29 T 4 4 4 14 14 4 unknown #
plane-surface $-1 -1 -1 $-1 9 9 4 0 0 1 1 0 0 forward_v I I I I #
coedge $-1 -1 -1 $-1 $40 $41 $42 $43 forward $30 $-1 #
face $-1 -1 -1 $-1 $44 $45 $19 $-1 $46 reversed single T 4 4 4 4 14 14 F #
loop $-1 -1 -1 $-1 $-1 $47 $32 T 4 4 4 14 4 14 unknown #
plane-surface $-1 -1 -1 $-1 9 4 9 0 1 0 0 0 1 forward_v I I I I #
coedge $-1 -1 -1 $-1 $48 $49 $50 $51 forward $33 $-1 #
coedge $-1 -1 -1 $-1 $52 $35 $53 $54 forward $30 $-1 #
coedge $-1 -1 -1 $-1 $35 $52 $55 $56 forward $30 $-1 #
coedge $-1 -1 -1 $-1 $57 $58 $35 $43 reversed $59 $-1 #
edge $-1 -1 -1 $-1 $60 -5 $61 5 $42 $62 forward @7 unknown T 14 4 14 14 14 14 #
face $-1 -1 -1 $-1 $63 $64 $19 $-1 $65 reversed single T 4 14 4 14 14 14 F #
loop $-1 -1 -1 $-1 $-1 $66 $36 T 4 4 4 4 14 14 unknown #
plane-surface $-1 -1 -1 $-1 4 9 9 1 0 0 0 0 -1 forward_v I I I I #
coedge $-1 -1 -1 $-1 $67 $55 $68 $69 forward $37 $-1 #
coedge $-1 -1 -1 $-1 $70 $39 $67 $71 forward $33 $-1 #
coedge $-1 -1 -1 $-1 $39 $70 $72 $73 forward $33 $-1 #
coedge $-1 -1 -1 $-1 $58 $57 $39 $51 reversed $59 $-1 #
edge $-1 -1 -1 $-1 $74 -5 $75 5 $50 $76 forward @7 unknown T 14 4 4 14 14 4 #
coedge $-1 -1 -1 $-1 $41 $40 $77 $78 forward $30 $-1 #
coedge $-1 -1 -1 $-1 $79 $80 $40 $54 reversed $64 $-1 #
edge $-1 -1 -1 $-1 $61 -5 $81 5 $53 $82 forward @7 unknown T 4 14 14 14 14 14 #
coedge $-1 -1 -1 $-1 $47 $83 $41 $56 reversed $37 $-1 #
edge $-1 -1 -1 $-1 $84 -5 $60 5 $55 $85 forward @7 unknown T 4 4 14 14 4 14 #
coedge $-1 -1 -1 $-1 $50 $42 $83 $86 forward $59 $-1 #
coedge $-1 -1 -1 $-1 $42 $50 $79 $87 reversed $59 $-1 #
loop $-1 -1 -1 $-1 $-1 $57 $63 T 14 4 4 14 14 14 unknown #
vertex $-1 -1 -1 $-1 $43 $88 #
vertex $-1 -1 -1 $-1 $43 $89 #
straight-curve $-1 -1 -1 $-1 14 9 14 0 1 0 I I #
face $-1 -1 -1 $-1 $-1 $59 $19 $-1 $90 reversed single T 14 4 4 14 14 14 F #
loop $-1 -1 -1 $-1 $-1 $79 $44 T 4 14 4 14 14 14 unknown #
plane-surface $-1 -1 -1 $-1 9 14 9 0 -1 0 0 0 -1 forward_v I I I I #
coedge $-1 -1 -1 $-1 $91 $77 $80 $92 forward $45 $-1 #
coedge $-1 -1 -1 $-1 $83 $47 $48 $71 reversed $37 $-1 #
coedge $-1 -1 -1 $-1 $77 $91 $47 $69 reversed $45 $-1 #
edge $-1 -1 -1 $-1 $84 -5 $93 5 $68 $94 forward @7 unknown T 4 4 4 4 4 14 #
coedge $-1 -1 -1 $-1 $49 $48 $91 $95 forward $33 $-1 #
edge $-1 -1 -1 $-1 $75 -5 $93 5 $67 $96 forward @7 unknown T 4 4 4 14 4 4 #
coedge $-1 -1 -1 $-1 $80 $79 $49 $73 reversed $64 $-1 #
edge $-1 -1 -1 $-1 $97 -5 $74 5 $72 $98 forward @7 unknown T 4 14 4 14 14 4 #
vertex $-1 -1 -1 $-1 $51 $99 #
vertex $-1 -1 -1 $-1 $86 $100 #
straight-curve $-1 -1 -1 $-1 14 9 4 0 -1 0 I I #
coedge $-1 -1 -1 $-1 $66 $68 $52 $78 reversed $45 $-1 #
edge $-1 -1 -1 $-1 $81 -5 $84 5 $77 $101 forward @7 unknown T 4 4 14 4 14 14 #
coedge $-1 -1 -1 $-1 $72 $53 $58 $87 forward $64 $-1 #
coedge $-1 -1 -1 $-1 $53 $72 $66 $92 reversed $64 $-1 #
vertex $-1 -1 -1 $-1 $54 $102 #
straight-curve $-1 -1 -1 $-1 9 14 14 -1 0 0 I I #
coedge $-1 -1 -1 $-1 $55 $67 $57 $86 reversed $37 $-1 #
vertex $-1 -1 -1 $-1 $78 $103 #
straight-curve $-1 -1 -1 $-1 9 4 14 1 0 0 I I #
edge $-1 -1 -1 $-1 $60 -5 $75 5 $57 $104 forward @7 unknown T 14 4 4 14 4 14 #
edge $-1 -1 -1 $-1 $61 -5 $74 5 $58 $105 forward @7 unknown T 14 14 4 14 14 14 #
point $-1 -1 -1 $-1 14 4 14 #
point $-1 -1 -1 $-1 14 14 14 #
plane-surface $-1 -1 -1 $-1 14 9 9 -1 0 0 0 0 1 forward_v I I I I #
coedge $-1 -1 -1 $-1 $68 $66 $70 $95 reversed $45 $-1 #
edge $-1 -1 -1 $-1 $81 -5 $97 5 $80 $106 forward @7 unknown T 4 14 4 4 14 14 #
vertex $-1 -1 -1 $-1 $95 $107 #
straight-curve $-1 -1 -1 $-1 4 4 9 0 0 -1 I I #
edge $-1 -1 -1 $-1 $93 -5 $97 5 $91 $108 forward @7 unknown T 4 4 4 4 14 4 #
straight-curve $-1 -1 -1 $-1 9 4 4 -1 0 0 I I #
vertex $-1 -1 -1 $-1 $73 $109 #
straight-curve $-1 -1 -1 $-1 9 14 4 1 0 0 I I #
point $-1 -1 -1 $-1 14 14 4 #
point $-1 -1 -1 $-1 14 4 4 #
straight-curve $-1 -1 -1 $-1 4 9 14 0 -1 0 I I #
point $-1 -1 -1 $-1 4 14 14 #
point $-1 -1 -1 $-1 4 4 14 #
straight-curve $-1 -1 -1 $-1 14 4 9 0 0 -1 I I #
straight-curve $-1 -1 -1 $-1 14 14 9 0 0 -1 I I #
straight-curve $-1 -1 -1 $-1 4 14 9 0 0 -1 I I #
point $-1 -1 -1 $-1 4 4 4 #
straight-curve $-1 -1 -1 $-1 4 9 4 0 1 0 I I #
point $-1 -1 -1 $-1 4 14 4 #
End-of-ACIS-data 