DBRep_DrawableShape

CASCADE Topology V1, (c) Matra-Datavision
Locations 3
1
              1               0               0               0 
              0               1               0               0 
              0               0               1               5 
2  1 -1 0
1
              1               0               0               4 
              0               1               0               0 
              0               0               1               0 
Curve2ds 7
1 6.2831853071795862 -6.2831853071795862 0 1 
1 0 -6.2831853071795862 0 1 
1 0 1.5707963267948966 1 0 
8 1.6653345369377348e-16 3.1415926535897931
7 0 0  10 56 7  6.2831853071795916 0.97873451276921841  6.1489042135794509 0.97873451268533362  6.0146230247046333 0.97141404585454438  5.8836119286133908 0.95677466827328317  5.7591255260631442 0.93527328863274306  5.6434262122493237 0.90786399279022589  5.5362642745021731 0.8756338802195387  5.437181782501284 0.83945724614750361  5.3452301078868913 0.80012683039058174  5.2594764863445693 0.75828188140585095  5.0381764824154551 0.63778135974603356  4.9135229666353553 0.55505510526063517  4.8001403373782523 0.46917929048504448  4.6934712822549045 0.38204689055783092  4.590790226822719 0.29496254233890795  4.4895743204979226 0.20913706698411261  4.3879535228479654 0.12567535841299105  4.2841139328738791 0.045796977317877463  4.1765307343294591 -0.029120653967002627  3.9798301341867424 -0.14889580309271588  3.8928203398740235 -0.19658596678599333  3.8026495240033911 -0.23999638094303463  3.7090118359948976 -0.27844458634044711  3.6118106095600524 -0.3112238613948648  3.511220534137101 -0.33761815609468615  3.4078314380798473 -0.35699149820088677  3.302645157305514 -0.36890977687802062  3.196794094605282 -0.37321085519203928  2.9331984952231389 -0.36512666481415762  2.7759704298441648 -0.34332264906095133  2.623301088475273 -0.30485103939645342  2.4785495957767125 -0.2512178329143353  2.3431967371143401 -0.1851859974249237  2.2156141592131462 -0.10942037453423836  2.0944392439268995 -0.026061745404149406  1.9774495381716406 0.062936079413589141  1.8622819719848362 0.15587741612512707  1.6876391405937508 0.29855345134486555  1.629109960765549 0.3466562435978538  1.5698808082094347 0.39508240948681594  1.5095283771661947 0.44360858626409183  1.4475730485043337 0.4919990058390592  1.3834726628200464 0.53999698017578335  1.3166029972589652 0.58731166555969838  1.2462293919435594 0.63359808845300136  1.1715035647953038 0.67843238771246817  1.0115949280965766 0.76414401228240481  0.92641245007416728 0.8050214886707181  0.83512437843819498 0.84339343647297937  0.73684421871439554 0.87863820003985893  0.63069778667704668 0.90999038497102447  0.51627045474015176 0.93660737491154578  0.39342964852403384 0.95745542187796673  0.26436602608464455 0.97164103915929445  0.13218295153934737 0.97873451268664435  4.1930483481222847e-16 0.9787345127692173 
 1.6653345369377348e-16 11 0.78539816339745383 9 2.1598449493430012 9 3.1906800388021477 9 4.7369326729908714 9 5.5100589900852279 9 6.2831853071795862 11
8 1.6653345369377348e-16 3.1415926535897931
7 0 0  10 101 12  3.1415926535897927 1.5055939875750588  3.2278531271570641 1.5055939875211723  3.3141131394841223 1.505006160863664  3.398344112875384 1.5038306543277487  3.4785026801953789 1.5020924844531691  3.5530410803257837 1.4998443166587094  3.6213676690356804 1.4971504708897556  3.6835416590931347 1.4940730407238334  3.7398154825137366 1.4906667613105811  3.7906511447981486 1.4869797630620267  3.9268647046660785 1.4753210053997896  3.997999725430418 1.4666585706199839  4.0536797217500862 1.4573756373283686  4.0983964778133668 1.4476735413190909  4.1345891373930499 1.4376587999868207  4.1642937508877367 1.427415982063394  4.1888052817957941 1.416994857499958  4.2091582421053317 1.4064365386839199  4.226104513592162 1.3957695676849273  4.2675978950723517 1.3641821997807977  4.2843767393847241 1.3430244747916198  4.2948108943948684 1.3217054018322869  4.3007006095198452 1.3002925383065302  4.3032464663265273 1.2788352089082764  4.3032272111013299 1.2573674531464349  4.301139847836021 1.2359130366284716  4.2973972028331264 1.2144941734485246  4.2922701417265809 1.1931275028828137  4.2741839708352769 1.1318928400375323  4.2582959432178589 1.0921949701192752  4.2397413988115655 1.0528353114864331  4.2191194172133688 1.0138880947852158  4.1968380187463481 0.97542326383882028  4.1731544322334226 0.93750790623016655  4.148224898319131 0.90020811083281838  4.1221801182200624 0.86359169524567414  4.0950972666799155 0.82772723980130447  4.0179351267490393 0.73136195954747663  3.9658423023730549 0.67255762133591745  3.9110804617957671 0.61665001560631671  3.8537625153277384 0.56403375158134472  3.7939515217096611 0.51512271732478143  3.7317180770446305 0.47034800948955163  3.6671685967976595 0.43014644248982431  3.6004766513081585 0.39493886906691617  3.5319103052335423 0.36510174636202797  3.3566575454361836 0.30469633983728595  3.2480532226145442 0.28122171808854546  3.13714705145685 0.27154497671835998  3.0254828825127333 0.27632791280484525  2.9149091533035971 0.29569365357019706  2.8073410430224612 0.32899625377467601  2.7039466708956752 0.37501906258330564  2.6054575313319219 0.43236588715899416  2.512218218496562 0.49957791763715675  2.3807382285521657 0.61307501410072884  2.3383079341461221 0.65302053735957588  2.2973169707042871 0.69490250816916155  2.2578029542084552 0.73854692492168394  2.2198251514309959 0.78378463734770776  2.1834532391760151 0.83045344073907468  2.1488164492128816 0.87839702861092517  2.1161380806284433 0.92746373205594423  2.0857672877924953 0.97750501063252693  2.044967676088858 1.0537900619258322  2.0321604693768118 1.0794222720665929  2.0202552898934298 1.1052383930062661  2.0093885484049681 1.1312180148277549  1.9997563144715969 1.157339045079425  1.9916020485034096 1.183578267572011  1.9852858097690842 1.2099088205934094  1.9813421591504103 1.236298206059768  1.9805573507809187 1.2627059026552421  1.9865647654608101 1.3022402086550142  1.9897648644293817 1.3154054199736607  1.9943657746226944 1.3285491061613428  2.0006276123703777 1.3416604119486695  2.0088778545464772 1.35472648052736  2.0195520214824683 1.3677304237533767  2.0332392980695069 1.3806495814669932  2.0507551667093398 1.39345329259288  2.0733105161256331 1.4060960851517419  2.1176858625368413 1.4247002725993749  2.1342345905897369 1.4308416664636556  2.1527898345717196 1.436913133145884  2.1736466330158692 1.4429026881938021  2.1971660587902688 1.4487954500123625  2.2237817461819458 1.4545729262401743  2.2540195271843966 1.460211749005234  2.2885266484637001 1.4656816113468483  2.3280763640183642 1.4709425847956141  2.4188896801581103 1.4809422668211394  2.4701529005251359 1.4856809929551673  2.5280885733372997 1.4901062598801218  2.5935317196999677 1.4941543471359182  2.6673277859226801 1.4977444228716195  2.7498465885873884 1.500786174525274  2.8412253700953443 1.5031661284010625  2.9391579720686423 1.5047846476354607  3.040375362258557 1.5055939875118287  3.1415926535897967 1.5055939875750608 
 1.6653345369377348e-16 11 0.098174770424676247 9 0.2914563496982569 9 0.66593940954085029 9 1.368095146745695 9 2.596867686854166 9 4.4400264970168761 9 5.3616059020982334 9 5.8223956046389027 9 6.0527904559092427 9 6.1679878815444145 9 6.2831853071795862 11
8 3.1415926535897931 6.2831853071795862
7 0 0  10 56 7  6.2831853071795916 0.97873451276921841  6.1489042135794509 0.97873451268533362  6.0146230247046333 0.97141404585454438  5.8836119286133908 0.95677466827328317  5.7591255260631442 0.93527328863274306  5.6434262122493237 0.90786399279022589  5.5362642745021731 0.8756338802195387  5.437181782501284 0.83945724614750361  5.3452301078868913 0.80012683039058174  5.2594764863445693 0.75828188140585095  5.0381764824154551 0.63778135974603356  4.9135229666353553 0.55505510526063517  4.8001403373782523 0.46917929048504448  4.6934712822549045 0.38204689055783092  4.590790226822719 0.29496254233890795  4.4895743204979226 0.20913706698411261  4.3879535228479654 0.12567535841299105  4.2841139328738791 0.045796977317877463  4.1765307343294591 -0.029120653967002627  3.9798301341867424 -0.14889580309271588  3.8928203398740235 -0.19658596678599333  3.8026495240033911 -0.23999638094303463  3.7090118359948976 -0.27844458634044711  3.6118106095600524 -0.3112238613948648  3.511220534137101 -0.33761815609468615  3.4078314380798473 -0.35699149820088677  3.302645157305514 -0.36890977687802062  3.196794094605282 -0.37321085519203928  2.9331984952231389 -0.36512666481415762  2.7759704298441648 -0.34332264906095133  2.623301088475273 -0.30485103939645342  2.4785495957767125 -0.2512178329143353  2.3431967371143401 -0.1851859974249237  2.2156141592131462 -0.10942037453423836  2.0944392439268995 -0.026061745404149406  1.9774495381716406 0.062936079413589141  1.8622819719848362 0.15587741612512707  1.6876391405937508 0.29855345134486555  1.629109960765549 0.3466562435978538  1.5698808082094347 0.39508240948681594  1.5095283771661947 0.44360858626409183  1.4475730485043337 0.4919990058390592  1.3834726628200464 0.53999698017578335  1.3166029972589652 0.58731166555969838  1.2462293919435594 0.63359808845300136  1.1715035647953038 0.67843238771246817  1.0115949280965766 0.76414401228240481  0.92641245007416728 0.8050214886707181  0.83512437843819498 0.84339343647297937  0.73684421871439554 0.87863820003985893  0.63069778667704668 0.90999038497102447  0.51627045474015176 0.93660737491154578  0.39342964852403384 0.95745542187796673  0.26436602608464455 0.97164103915929445  0.13218295153934737 0.97873451268664435  4.1930483481222847e-16 0.9787345127692173 
 1.6653345369377348e-16 11 0.78539816339745383 9 2.1598449493430012 9 3.1906800388021477 9 4.7369326729908714 9 5.5100589900852279 9 6.2831853071795862 11
8 3.1415926535897931 6.2831853071795862
7 0 0  10 101 12  3.1415926535897927 1.5055939875750588  3.2278531271570641 1.5055939875211723  3.3141131394841223 1.505006160863664  3.398344112875384 1.5038306543277487  3.4785026801953789 1.5020924844531691  3.5530410803257837 1.4998443166587094  3.6213676690356804 1.4971504708897556  3.6835416590931347 1.4940730407238334  3.7398154825137366 1.4906667613105811  3.7906511447981486 1.4869797630620267  3.9268647046660785 1.4753210053997896  3.997999725430418 1.4666585706199839  4.0536797217500862 1.4573756373283686  4.0983964778133668 1.4476735413190909  4.1345891373930499 1.4376587999868207  4.1642937508877367 1.427415982063394  4.1888052817957941 1.416994857499958  4.2091582421053317 1.4064365386839199  4.226104513592162 1.3957695676849273  4.2675978950723517 1.3641821997807977  4.2843767393847241 1.3430244747916198  4.2948108943948684 1.3217054018322869  4.3007006095198452 1.3002925383065302  4.3032464663265273 1.2788352089082764  4.3032272111013299 1.2573674531464349  4.301139847836021 1.2359130366284716  4.2973972028331264 1.2144941734485246  4.2922701417265809 1.1931275028828137  4.2741839708352769 1.1318928400375323  4.2582959432178589 1.0921949701192752  4.2397413988115655 1.0528353114864331  4.2191194172133688 1.0138880947852158  4.1968380187463481 0.97542326383882028  4.1731544322334226 0.93750790623016655  4.148224898319131 0.90020811083281838  4.1221801182200624 0.86359169524567414  4.0950972666799155 0.82772723980130447  4.0179351267490393 0.73136195954747663  3.9658423023730549 0.67255762133591745  3.9110804617957671 0.61665001560631671  3.8537625153277384 0.56403375158134472  3.7939515217096611 0.51512271732478143  3.7317180770446305 0.47034800948955163  3.6671685967976595 0.43014644248982431  3.6004766513081585 0.39493886906691617  3.5319103052335423 0.36510174636202797  3.3566575454361836 0.30469633983728595  3.2480532226145442 0.28122171808854546  3.13714705145685 0.27154497671835998  3.0254828825127333 0.27632791280484525  2.9149091533035971 0.29569365357019706  2.8073410430224612 0.32899625377467601  2.7039466708956752 0.37501906258330564  2.6054575313319219 0.43236588715899416  2.512218218496562 0.49957791763715675  2.3807382285521657 0.61307501410072884  2.3383079341461221 0.65302053735957588  2.2973169707042871 0.69490250816916155  2.2578029542084552 0.73854692492168394  2.2198251514309959 0.78378463734770776  2.1834532391760151 0.83045344073907468  2.1488164492128816 0.87839702861092517  2.1161380806284433 0.92746373205594423  2.0857672877924953 0.97750501063252693  2.044967676088858 1.0537900619258322  2.0321604693768118 1.0794222720665929  2.0202552898934298 1.1052383930062661  2.0093885484049681 1.1312180148277549  1.9997563144715969 1.157339045079425  1.9916020485034096 1.183578267572011  1.9852858097690842 1.2099088205934094  1.9813421591504103 1.236298206059768  1.9805573507809187 1.2627059026552421  1.9865647654608101 1.3022402086550142  1.9897648644293817 1.3154054199736607  1.9943657746226944 1.3285491061613428  2.0006276123703777 1.3416604119486695  2.0088778545464772 1.35472648052736  2.0195520214824683 1.3677304237533767  2.0332392980695069 1.3806495814669932  2.0507551667093398 1.39345329259288  2.0733105161256331 1.4060960851517419  2.1176858625368413 1.4247002725993749  2.1342345905897369 1.4308416664636556  2.1527898345717196 1.436913133145884  2.1736466330158692 1.4429026881938021  2.1971660587902688 1.4487954500123625  2.2237817461819458 1.4545729262401743  2.2540195271843966 1.460211749005234  2.2885266484637001 1.4656816113468483  2.3280763640183642 1.4709425847956141  2.4188896801581103 1.4809422668211394  2.4701529005251359 1.4856809929551673  2.5280885733372997 1.4901062598801218  2.5935317196999677 1.4941543471359182  2.6673277859226801 1.4977444228716195  2.7498465885873884 1.500786174525274  2.8412253700953443 1.5031661284010625  2.9391579720686423 1.5047846476354607  3.040375362258557 1.5055939875118287  3.1415926535897967 1.5055939875750608 
 1.6653345369377348e-16 11 0.098174770424676247 9 0.2914563496982569 9 0.66593940954085029 9 1.368095146745695 9 2.596867686854166 9 4.4400264970168761 9 5.3616059020982334 9 5.8223956046389027 9 6.0527904559092427 9 6.1679878815444145 9 6.2831853071795862 11
Curves 3
2 0 0 0 -2.4492935982947064e-16 -1 0 1 -2.4492935982947064e-16 0 0 0 1 6
2 -1.1219512195121952 0 6.4024390243902438 0.62469504755442429 0 -0.78086880944303039 0.78086880944303039 0 0.62469504755442429 0 -1 0 5.7248921600238409
2 -1.1219512195121952 0 6.4024390243902438 0.62469504755442429 0 -0.78086880944303039 0.78086880944303039 0 0.62469504755442429 0 -1 0 5.7248921600238409
Polygon3D 0
PolygonOnTriangulations 7
4 6 7 8 5 
p 1.25936677117254 1 7.2619198199488 7.45927375795736 7.65662769596592 7.85398163397448 
4 1 3 4 2 
p 1.25936677117254 1 7.2619198199488 7.45927375795736 7.65662769596592 7.85398163397448 
2 2 5 
p 1e-05 1 0 6.28318530717959 
19 6 10 11 12 13 14 15 16 17 18 19 20 21 22 23 24 25 26 9 
p 1.25936677117254 1 1.66533453693773e-16 0.174532925199433 0.349065850398866 0.523598775598298 0.698131700797731 0.872664625997164 1.0471975511966 1.22173047639603 1.39626340159546 1.5707963267949 1.74532925199433 1.91986217719376 2.09439510239319 2.26892802759263 2.44346095279206 2.61799387799149 2.79252680319092 2.96705972839036 3.14159265358979 
19 1 3 4 5 6 7 8 9 10 11 12 13 14 15 16 17 18 19 2 
p 1.90926008587173 1 1.66533453693773e-16 0.174532925199433 0.349065850398866 0.523598775598298 0.698131700797731 0.872664625997164 1.0471975511966 1.22173047639603 1.39626340159546 1.5707963267949 1.74532925199433 1.91986217719376 2.09439510239319 2.26892802759263 2.44346095279206 2.61799387799149 2.79252680319092 2.96705972839036 3.14159265358979 
19 9 27 28 29 30 31 32 33 34 35 36 37 38 39 40 41 42 43 1 
p 1.25936677117254 1 3.14159265358979 3.31612557878922 3.49065850398866 3.66519142918809 3.83972435438752 4.01425727958696 4.18879020478639 4.36332312998582 4.53785605518526 4.71238898038469 4.88692190558412 5.06145483078356 5.23598775598299 5.41052068118243 5.58505360638186 5.75958653158129 5.93411945678073 6.10865238198016 6.28318530717959 
19 2 20 21 22 23 24 25 26 27 28 29 30 31 32 33 34 35 36 1 
p 1.90926008587173 1 3.14159265358979 3.31612557878922 3.49065850398866 3.66519142918809 3.83972435438752 4.01425727958696 4.18879020478639 4.36332312998582 4.53785605518526 4.71238898038469 4.88692190558412 5.06145483078356 5.23598775598299 5.41052068118243 5.58505360638186 5.75958653158129 5.93411945678073 6.10865238198016 6.28318530717959 
Surfaces 2
4 0 0 0 0 0 1 1 0 -0 -0 1 0 6
4 0 0 0 0 0 1 1 0 -0 -0 1 0 10
Triangulations 2
53 61 1 0.563662330180285
3.34843850567536 -8.20130899623415e-16 9.97875080454029 3.67394039744206e-16 -8.99855869597115e-32 11 2.30723125776264 -5.65108674942347e-16 10.538653620078 1.17645192837023 -2.88147617685867e-16 10.8835330253372 3.67394039744206e-16 -8.99855869597115e-32 11 3.34843850567536 -8.20130899623415e-16 9.97875080454029 2.30723125776264 -5.65108674942347e-16 10.538653620078 1.17645192837023 -2.88147617685867e-16 10.8835330253372 -5.59234094469975 -7.01097085923697e-16 2.8261272442402 3.28052324083862 -0.994117090927837 9.9244185926709 3.0788410172837 -1.95802843709535 9.76307281382696 2.74951984731716 -2.86244608001192 9.49961587785373 2.30256598804391 -3.67988974725493 9.14205279043513 1.75155990630838 -4.38552182664166 8.7012479250467 1.11324364308159 -4.95790204450701 8.19059491446527 0.407012115018054 -5.3796389175695 7.62560969201444 -0.3456761902724 -5.63791818435028 7.02345904778208 -1.12195121951219 -5.72489216002384 6.40243902439025 -1.89822624875198 -5.63791818435029 5.78141900099842 -2.65091455404243 -5.37963891756951 5.17926835676606 -3.35714608210597 -4.95790204450702 4.61428313431523 -3.99546234533276 -4.38552182664167 4.10363012373379 -4.54646842706829 -3.67988974725494 3.66282525834537 -4.99342228634155 -2.86244608001193 3.30526217092676 -5.32274345630808 -1.95802843709537 3.04180523495353 -5.52442567986301 -0.994117090927854 2.88045945610959 -5.52442567986302 0.99411709092782 2.88045945610959 -5.32274345630809 1.95802843709534 3.04180523495353 -4.99342228634156 2.86244608001191 3.30526217092675 -4.5464684270683 3.67988974725492 3.66282525834536 -3.99546234533278 4.38552182664166 4.10363012373378 -3.35714608210598 4.95790204450701 4.61428313431522 -2.65091455404244 5.3796389175695 5.17926835676605 -1.89822624875198 5.63791818435029 5.78141900099841 -1.12195121951219 5.72489216002384 6.40243902439025 -0.345676190272401 5.63791818435028 7.02345904778208 0.407012115018058 5.3796389175695 7.62560969201445 1.11324364308159 4.95790204450701 8.19059491446527 1.75155990630839 4.38552182664165 8.70124792504671 2.30256598804392 3.67988974725492 9.14205279043514 2.74951984731717 2.8624460800119 9.49961587785374 3.0788410172837 1.95802843709532 9.76307281382696 3.28052324083863 0.994117090927802 9.9244185926709 -5.48969706328663 1.78371070221377 6.6375598566618 -3.39281937305162 4.66981524449259 6.6375598566618 -0.805000670281753 3.52693838206178 9.78671908200026 2.25556175541063 2.8283849804338 9.78671908200026 -5.48969706328663 -1.78371070221377 6.6375598566618 -3.25938117223087 1.56963524556552 9.78671908200026 -3.39281937305162 -4.66981524449259 6.6375598566618 -3.25938117223087 -1.56963524556552 9.78671908200026 -0.805000670281754 -3.52693838206178 9.78671908200026 2.25556175541063 -2.8283849804338 9.78671908200026 0 0.978734512769214 0 1.57079632679489 0 1.17608845077777 0 1.37344238878633 6.28318530717959 1.5707963267949 6.28318530717959 0.978734512769214 6.28318530717959 1.17608845077777 6.28318530717959 1.37344238878633 3.14159265458328 -0.370747369586975 5.9889453939694 0.962698853417661 5.71674141173795 0.917106699813842 5.47766746156484 0.847965295368821 5.27150303115264 0.761961837436648 5.0923745673735 0.664765588193137 4.93326483791274 0.560684262143855 4.78790300781505 0.452929600387277 4.65115288807459 0.343986982881111 4.51886400248754 0.235922295436172 4.38762116901579 0.130607511097267 4.25454359930488 0.0298825046134878 4.11717720644838 -0.0643305048682847 3.97349826920522 -0.149956357947668 3.82203618054556 -0.224749791788018 3.66210575805816 -0.286353721715761 3.494089616091 -0.332456278754334 3.31963658131377 -0.361050030281933 2.96354872657755 -0.361050031777554 2.78909568552321 -0.332456276848057 2.6210795808288 -0.286353708585127 2.46114907729103 -0.224749818172063 2.30968706298006 -0.149956340467995 2.16600811577698 -0.0643305031940284 2.02864167381564 0.0298824920504562 1.89556415848487 0.130607519496986 1.76432131387271 0.235922298584843 1.63203239589301 0.343986976037648 1.49528231762662 0.452929604991647 1.34992045822153 0.560684259695374 1.1908107439927 0.664765589600529 1.01168227899034 0.761961839033325 0.805517847529028 0.847965296448221 0.566443892987671 0.917106698411019 0.294239913886409 0.962698853714661 2.82743338823081 0.276433862540315 2.19911485751286 0.276433862540315 1.79519580205131 0.923615094667606 0.897597901025655 0.923615094667606 3.45575191894877 0.276433862540315 2.69279370307697 0.923615094667606 4.08407044966673 0.276433862540315 3.59039160410262 0.923615094667606 4.48798950512828 0.923615094667606 5.38558740615393 0.923615094667606 44 27 9 44 28 27 44 29 28 44 30 29 44 31 30 4 43 42 44 32 31 3 1 43 4 3 43 44 45 32 46 37 45 46 38 37 46 39 38 46 40 39 46 2 47 46 47 40 7 10 6 48 22 21 48 23 22 48 24 23 48 25 24 8 11 10 48 26 25 48 9 26 48 44 9 8 10 7 49 46 45 49 2 46 49 45 44 47 2 4 50 17 16 50 18 17 50 19 18 50 20 19 50 21 20 47 41 40 50 48 21 47 42 41 47 4 42 51 5 2 51 49 44 51 2 49 51 48 50 51 44 48 52 14 13 52 15 14 52 16 15 52 50 16 52 5 51 52 51 50 45 33 32 53 8 5 45 34 33 53 12 11 45 35 34 53 13 12 45 36 35 53 11 8 45 37 36 53 52 13 53 5 52 
39 40 1 0.742627900465188
3.34843850567536 -8.20130899623415e-16 9.97875080454029 -5.59234094469975 -7.01097085923697e-16 2.8261272442402 3.28052324083862 -0.994117090927837 9.9244185926709 3.0788410172837 -1.95802843709535 9.76307281382696 2.74951984731716 -2.86244608001192 9.49961587785373 2.30256598804391 -3.67988974725493 9.14205279043513 1.75155990630838 -4.38552182664166 8.7012479250467 1.11324364308159 -4.95790204450701 8.19059491446527 0.407012115018054 -5.3796389175695 7.62560969201444 -0.3456761902724 -5.63791818435028 7.02345904778208 -1.12195121951219 -5.72489216002384 6.40243902439025 -1.89822624875198 -5.63791818435029 5.78141900099842 -2.65091455404243 -5.37963891756951 5.17926835676606 -3.35714608210597 -4.95790204450702 4.61428313431523 -3.99546234533276 -4.38552182664167 4.10363012373379 -4.54646842706829 -3.67988974725494 3.66282525834537 -4.99342228634155 -2.86244608001193 3.30526217092676 -5.32274345630808 -1.95802843709537 3.04180523495353 -5.52442567986301 -0.994117090927854 2.88045945610959 -5.52442567986302 0.99411709092782 2.88045945610959 -5.32274345630809 1.95802843709534 3.04180523495353 -4.99342228634156 2.86244608001191 3.30526217092675 -4.5464684270683 3.67988974725492 3.66282525834536 -3.99546234533278 4.38552182664166 4.10363012373378 -3.35714608210598 4.95790204450701 4.61428313431522 -2.65091455404244 5.3796389175695 5.17926835676605 -1.89822624875198 5.63791818435029 5.78141900099841 -1.12195121951219 5.72489216002384 6.40243902439025 -0.345676190272401 5.63791818435028 7.02345904778208 0.407012115018058 5.3796389175695 7.62560969201445 1.11324364308159 4.95790204450701 8.19059491446527 1.75155990630839 4.38552182664165 8.70124792504671 2.30256598804392 3.67988974725492 9.14205279043514 2.74951984731717 2.8624460800119 9.49961587785374 3.0788410172837 1.95802843709532 9.76307281382696 3.28052324083863 0.994117090927802 9.9244185926709 -0.473356228900498 -4.36044429735235 7.80868808309337 -2.2469504897154 -9.07035861657089e-08 7.80868808309337 -0.473356355524817 4.36044416744914 7.80868808309337 3.14159265358979 1.50559398757506 3.14159265261977 0.286516777938041 4.08591083975806 1.44777046883703 4.27265766421265 1.35268226384215 4.30051822524996 1.25311290374109 4.28020002690747 1.15354250555148 4.23863614416097 1.05545547955427 4.18512049689474 0.959769745475311 4.12354238550795 0.867262664098321 4.0557116978329 0.778687732079626 3.98252041928895 0.694815732106637 3.9044300892951 0.616449587729515 3.82171094722779 0.544425620041782 3.7345788645527 0.479604475269512 3.64328454668412 0.422852101466161 3.54817530137033 0.37501074329875 3.44973657023861 0.336861073711927 3.34861076774421 0.309078073918383 3.24559162372067 0.292185669288017 3.03759368363155 0.292185674903227 2.93457454019636 0.30907807280104 2.83344873618867 0.336861068751179 2.73501000435034 0.375010744607591 2.6399007733514 0.422852103505331 2.54860641726192 0.479604474697598 2.46147437565966 0.544425619823845 2.37875522659409 0.616449587067047 2.30066486366208 0.694815733971862 2.22747362353796 0.778687731313119 2.15964290377683 0.867262664707864 2.09806480628491 0.959769745628142 2.04454918122808 1.0554554788987 2.00298529923848 1.15354250482878 1.98266711096895 1.25311290216612 2.01052761649449 1.35268226498161 2.19727446708816 1.44777046832539 3.91420970620312 0.89605538275655 3.14159266810945 0.89605538275655 2.36897563001578 0.89605538275655 37 9 8 18 20 19 37 10 9 37 11 10 37 12 11 37 38 12 3 6 5 4 3 5 39 28 27 39 29 28 39 30 29 39 31 30 39 32 31 39 33 32 39 1 36 19 20 2 39 36 33 38 13 12 38 14 13 38 15 14 38 16 15 38 17 16 38 18 17 38 22 21 38 23 22 18 21 20 38 24 23 38 25 24 36 34 33 38 26 25 36 35 34 38 27 26 38 21 18 38 39 27 38 1 39 37 3 1 37 1 38 37 6 3 37 7 6 37 8 7 

TShapes 13
Ve
3.0750429439042e-07
3.34843850567536 -8.20130899623415e-16 9.97875080454029
0 0

0101101
*
Ve
1e-07
3.67394039744206e-16 -8.99855869597115e-32 11
0 0

0101101
*
Ed
 1e-07 1 1 0
1  1 0 7.2619198199488 7.85398163397448
3  1 2CN 1 0 7.2619198199488 7.85398163397448
7  1 2 1 2
0

0101000
+13 2 -12 2 *
Ed
 1e-07 1 1 1
2  3 1 0 0 6.28318530717959
6  3 1 2
0

0101100
-12 2 +12 2 *
Ve
3.0750429439042e-07
-5.59234094469975 -7.01097085923697e-16 2.8261272442402
0 0

0101101
*
Ed
 2.13246571025123e-07 1 1 0
1  2 0 1.66533453693773e-16 3.14159265358979
2  4 1 1 1.66533453693773e-16 3.14159265358979
2  5 2 3 1.66533453693773e-16 3.14159265358979
6  4 1 0
6  5 2 0
0

0101000
+13 0 -9 0 *
Ed
 3.0750429439042e-07 1 1 0
1  3 0 3.14159265358979 6.28318530717959
2  6 1 1 3.14159265358979 6.28318530717959
2  7 2 3 3.14159265358979 6.28318530717959
6  6 1 0
6  7 2 0
0

0101000
+9 0 -13 0 *
Wi

0101000
-11 1 -10 1 +11 1 -8 0 -7 0 *
Fa
0  1e-07 1 1
2  1
0101000
+6 0 *
Wi

0101000
-8 0 -7 0 *
Fa
0  1e-07 2 3
2  2
0101000
+4 0 *
Sh

0101000
+5 0 -3 0 *
So

0100000
+2 0 *

+1 0 