1600 0 2 0           
10 Cubit 10.2 17 ACIS 16.0.7 Linux 24 Wed Nov 26 13:51:34 2008 
1 9.9999999999999995e-07 1e-10 
body $-1 -1 -1 $-1 $2 $-1 $3 T 4 4 4 14 14 14 #
body $-1 -1 -1 $-1 $4 $-1 $5 T 4 4 4 5 5 5 #
lump $-1 -1 -1 $-1 $-1 $6 $0 T 4 4 4 14 14 14 #
transform $-1 -1 1 0 0 0 1 0 0 0 1 0 0 0 1 no_rotate no_reflect no_shear #
lump $-1 -1 -1 $-1 $-1 $7 $1 T 4 4 4 5 5 5 #
transform $-1 -1 1 0 0 0 1 0 0 0 1 0 0 0 1 no_rotate no_reflect no_shear #
shell $-1 -1 -1 $-1 $-1 $-1 $8 $-1 $2 T 4 4 4 14 14 14 #
shell $-1 -1 -1 $-1 $-1 $-1 $9 $-1 $4 T 4 4 4 5 5 5 #
face $-1 -1 -1 $-1 $10 $11 $6 $-1 $12 reversed single T 4 4 5 5 5 5 F #
face $-1 -1 -1 $-1 $13 $14 $7 $-1 $15 forward single T 4 4 5 5 5 5 F #
face $-1 -1 -1 $-1 $16 $17 $6 $-1 $18 forward single T 4 5 4 5 5 5 F #
loop $-1 -1 -1 $-1 $-1 $19 $8 T 4 4 5 5 5 5 unknown #
plane-surface $-1 -1 -1 $-1 4.5 4.5 5 0 0 1 1 0 0 forward_v I I I I #
face $-1 -1 -1 $-1 $20 $21 $7 $-1 $22 reversed single T 4 5 4 5 5 5 F #
loop $-1 -1 -1 $-1 $-1 $23 $9 T 4 4 5 5 5 5 unknown #
plane-surface $-1 -1 -1 $-1 4.5 4.5 5 0 0 1 1 0 0 forward_v I I I I #
face $-1 -1 -1 $-1 $24 $25 $6 $-1 $26 forward single T 5 4 4 5 5 5 F #
loop $-1 -1 -1 $-1 $-1 $27 $10 T 4 5 4 5 5 5 unknown #
plane-surface $-1 -1 -1 $-1 4.5 5 4.5 0 -1 0 0 0 -1 forward_v I I I I #
coedge $-1 -1 -1 $-1 $28 $29 $30 $31 reversed $11 $-1 #
face $-1 -1 -1 $-1 $32 $33 $7 $-1 $34 reversed single T 5 4 4 5 5 5 F #
loop $-1 -1 -1 $-1 $-1 $35 $13 T 4 5 4 5 5 5 unknown #
plane-surface $-1 -1 -1 $-1 4.5 5 4.5 0 -1 0 0 0 -1 forward_v I I I I #
coedge $-1 -1 -1 $-1 $36 $37 $38 $39 forward $14 $-1 #
face $-1 -1 -1 $-1 $40 $41 $6 $-1 $42 reversed single T 4 4 4 14 4 14 F #
loop $-1 -1 -1 $-1 $-1 $43 $16 T 5 4 4 5 5 5 unknown #
plane-surface $-1 -1 -1 $-1 5 4.5 4.5 -1 0 0 0 0 1 forward_v I I I I #
coedge $-1 -1 -1 $-1 $44 $45 $46 $47 reversed $17 $-1 #
coedge $-1 -1 -1 $-1 $48 $19 $49 $50 reversed $11 $-1 #
coedge $-1 -1 -1 $-1 $19 $48 $44 $51 reversed $11 $-1 #
coedge $-1 -1 -1 $-1 $46 $43 $19 $31 forward $25 $-1 #
edge $-1 -1 -1 $-1 $52 -0.5 $53 0.5 $30 $54 forward @7 unknown T 5 4 5 5 5 5 #
face $-1 -1 -1 $-1 $55 $56 $7 $-1 $57 reversed single T 4 4 4 4 5 5 F #
loop $-1 -1 -1 $-1 $-1 $58 $20 T 5 4 4 5 5 5 unknown #
plane-surface $-1 -1 -1 $-1 5 4.5 4.5 -1 0 0 0 0 1 forward_v I I I I #
coedge $-1 -1 -1 $-1 $59 $60 $61 $62 forward $21 $-1 #
coedge $-1 -1 -1 $-1 $63 $23 $60 $64 forward $14 $-1 #
coedge $-1 -1 -1 $-1 $23 $63 $65 $66 forward $14 $-1 #
coedge $-1 -1 -1 $-1 $58 $61 $23 $39 reversed $33 $-1 #
edge $-1 -1 -1 $-1 $67 -0.5 $68 0.5 $38 $69 forward @7 unknown T 5 4 5 5 5 5 #
face $-1 -1 -1 $-1 $70 $71 $6 $-1 $72 forward single T 4 4 14 14 14 14 F #
loop $-1 -1 -1 $-1 $-1 $49 $24 T 4 4 4 14 4 14 unknown #
plane-surface $-1 -1 -1 $-1 9 4 9 0 1 0 0 0 1 forward_v I I I I #
coedge $-1 -1 -1 $-1 $30 $73 $74 $75 reversed $25 $-1 #
coedge $-1 -1 -1 $-1 $76 $27 $29 $51 forward $17 $-1 #
coedge $-1 -1 -1 $-1 $27 $76 $77 $78 reversed $17 $-1 #
coedge $-1 -1 -1 $-1 $73 $30 $27 $47 forward $25 $-1 #
edge $-1 -1 -1 $-1 $53 -0.5 $79 0.5 $46 $80 forward @7 unknown T 5 5 4 5 5 5 #
coedge $-1 -1 -1 $-1 $29 $28 $81 $82 reversed $11 $-1 #
coedge $-1 -1 -1 $-1 $74 $83 $28 $50 forward $41 $-1 #
edge $-1 -1 -1 $-1 $84 -2.75 $52 -1.75 $49 $85 forward @7 unknown T 4 4 5 5 4 5 #
edge $-1 -1 -1 $-1 $53 -0.5 $86 0.5 $44 $87 forward @7 unknown T 4 5 5 5 5 5 #
vertex $-1 -1 -1 $-1 $50 $88 #
vertex $-1 -1 -1 $-1 $31 $89 #
straight-curve $-1 -1 -1 $-1 5 4.5 5 0 1 0 I I #
face $-1 -1 -1 $-1 $90 $91 $7 $-1 $92 reversed single T 4 4 4 5 5 4 F #
loop $-1 -1 -1 $-1 $-1 $93 $32 T 4 4 4 4 5 5 unknown #
plane-surface $-1 -1 -1 $-1 4 9 9 1 0 0 0 0 -1 forward_v I I I I #
coedge $-1 -1 -1 $-1 $94 $38 $95 $96 forward $33 $-1 #
coedge $-1 -1 -1 $-1 $97 $35 $98 $99 forward $21 $-1 #
coedge $-1 -1 -1 $-1 $35 $97 $36 $64 reversed $21 $-1 #
coedge $-1 -1 -1 $-1 $38 $94 $35 $62 reversed $33 $-1 #
edge $-1 -1 -1 $-1 $68 -0.5 $100 0.5 $61 $101 forward @7 unknown T 5 5 4 5 5 5 #
coedge $-1 -1 -1 $-1 $37 $36 $93 $102 forward $14 $-1 #
edge $-1 -1 -1 $-1 $68 -0.5 $103 0.5 $60 $104 forward @7 unknown T 4 5 5 5 5 5 #
coedge $-1 -1 -1 $-1 $105 $95 $37 $66 reversed $106 $-1 #
edge $-1 -1 -1 $-1 $107 -2.75 $67 -1.75 $65 $108 forward @7 unknown T 4 4 5 5 4 5 #
vertex $-1 -1 -1 $-1 $66 $109 #
vertex $-1 -1 -1 $-1 $39 $110 #
straight-curve $-1 -1 -1 $-1 5 4.5 5 0 1 0 I I #
face $-1 -1 -1 $-1 $111 $112 $6 $-1 $113 reversed single T 4 4 4 14 14 4 F #
loop $-1 -1 -1 $-1 $-1 $114 $40 T 4 4 14 14 14 14 unknown #
plane-surface $-1 -1 -1 $-1 9 9 14 0 0 1 1 0 0 forward_v I I I I #
coedge $-1 -1 -1 $-1 $43 $46 $115 $116 reversed $25 $-1 #
coedge $-1 -1 -1 $-1 $117 $49 $43 $75 forward $41 $-1 #
edge $-1 -1 -1 $-1 $52 1.75 $118 2.75 $74 $119 forward @7 unknown T 5 4 4 5 4 5 #
coedge $-1 -1 -1 $-1 $45 $44 $120 $121 reversed $17 $-1 #
coedge $-1 -1 -1 $-1 $122 $115 $45 $78 forward $112 $-1 #
edge $-1 -1 -1 $-1 $79 1.75 $123 2.75 $77 $124 forward @7 unknown T 4 5 4 5 5 4 #
vertex $-1 -1 -1 $-1 $78 $125 #
straight-curve $-1 -1 -1 $-1 5 5 4.5 0 0 -1 I I #
coedge $-1 -1 -1 $-1 $126 $120 $48 $82 forward $127 $-1 #
edge $-1 -1 -1 $-1 $86 1.75 $84 2.75 $81 $128 forward @7 unknown T 4 4 5 4 5 5 #
coedge $-1 -1 -1 $-1 $49 $129 $126 $130 forward $41 $-1 #
vertex $-1 -1 -1 $-1 $50 $131 #
straight-curve $-1 -1 -1 $-1 6.75 4 5 1 0 0 I I #
vertex $-1 -1 -1 $-1 $82 $132 #
straight-curve $-1 -1 -1 $-1 4.5 5 5 -1 0 0 I I #
point $-1 -1 -1 $-1 5 4 5 #
point $-1 -1 -1 $-1 5 5 5 #
face $-1 -1 -1 $-1 $-1 $106 $7 $-1 $133 reversed single T 4 4 4 5 4 5 F #
loop $-1 -1 -1 $-1 $-1 $98 $55 T 4 4 4 5 5 4 unknown #
plane-surface $-1 -1 -1 $-1 9 9 4 0 0 1 1 0 0 forward_v I I I I #
coedge $-1 -1 -1 $-1 $134 $135 $63 $102 reversed $56 $-1 #
coedge $-1 -1 -1 $-1 $61 $58 $136 $137 forward $33 $-1 #
coedge $-1 -1 -1 $-1 $65 $138 $58 $96 reversed $106 $-1 #
edge $-1 -1 -1 $-1 $67 1.75 $139 2.75 $95 $140 forward @7 unknown T 5 4 4 5 4 5 #
coedge $-1 -1 -1 $-1 $60 $59 $134 $141 forward $21 $-1 #
coedge $-1 -1 -1 $-1 $136 $142 $59 $99 reversed $91 $-1 #
edge $-1 -1 -1 $-1 $100 1.75 $143 2.75 $98 $144 forward @7 unknown T 4 5 4 5 5 4 #
vertex $-1 -1 -1 $-1 $99 $145 #
straight-curve $-1 -1 -1 $-1 5 5 4.5 0 0 -1 I I #
edge $-1 -1 -1 $-1 $103 1.75 $107 2.75 $93 $146 forward @7 unknown T 4 4 5 4 5 5 #
vertex $-1 -1 -1 $-1 $102 $147 #
straight-curve $-1 -1 -1 $-1 4.5 5 5 -1 0 0 I I #
coedge $-1 -1 -1 $-1 $138 $65 $135 $148 forward $106 $-1 #
loop $-1 -1 -1 $-1 $-1 $65 $90 T 4 4 4 5 4 5 unknown #
vertex $-1 -1 -1 $-1 $148 $149 #
straight-curve $-1 -1 -1 $-1 6.75 4 5 1 0 0 I I #
point $-1 -1 -1 $-1 5 4 5 #
point $-1 -1 -1 $-1 5 5 5 #
face $-1 -1 -1 $-1 $150 $127 $6 $-1 $151 reversed single T 4 4 4 4 14 14 F #
loop $-1 -1 -1 $-1 $-1 $77 $70 T 4 4 4 14 14 4 unknown #
plane-surface $-1 -1 -1 $-1 9 9 4 0 0 1 1 0 0 forward_v I I I I #
coedge $-1 -1 -1 $-1 $152 $153 $154 $155 forward $71 $-1 #
coedge $-1 -1 -1 $-1 $77 $156 $73 $116 forward $112 $-1 #
edge $-1 -1 -1 $-1 $118 -2.75 $79 -1.75 $115 $157 forward @7 unknown T 5 4 4 5 5 4 #
coedge $-1 -1 -1 $-1 $158 $74 $156 $159 reversed $41 $-1 #
vertex $-1 -1 -1 $-1 $75 $160 #
straight-curve $-1 -1 -1 $-1 5 4 6.75 0 0 -1 I I #
coedge $-1 -1 -1 $-1 $81 $161 $76 $121 forward $127 $-1 #
edge $-1 -1 -1 $-1 $123 -2.75 $86 -1.75 $120 $162 forward @7 unknown T 4 5 4 4 5 5 #
coedge $-1 -1 -1 $-1 $163 $77 $161 $164 forward $112 $-1 #
vertex $-1 -1 -1 $-1 $164 $165 #
straight-curve $-1 -1 -1 $-1 6.75 5 4 -1 0 0 I I #
point $-1 -1 -1 $-1 5 5 4 #
coedge $-1 -1 -1 $-1 $166 $81 $83 $130 reversed $127 $-1 #
loop $-1 -1 -1 $-1 $-1 $81 $111 T 4 4 4 4 14 14 unknown #
straight-curve $-1 -1 -1 $-1 4 6.75 5 0 -1 0 I I #
coedge $-1 -1 -1 $-1 $83 $158 $153 $167 reversed $41 $-1 #
edge $-1 -1 -1 $-1 $168 -5 $84 4 $126 $169 forward @7 unknown T 4 4 5 4 4 14 #
point $-1 -1 -1 $-1 4 4 5 #
point $-1 -1 -1 $-1 4 5 5 #
plane-surface $-1 -1 -1 $-1 9 4 9 0 1 0 0 0 1 forward_v I I I I #
coedge $-1 -1 -1 $-1 $170 $93 $97 $141 reversed $56 $-1 #
coedge $-1 -1 -1 $-1 $93 $170 $105 $148 reversed $56 $-1 #
coedge $-1 -1 -1 $-1 $171 $98 $94 $137 reversed $91 $-1 #
edge $-1 -1 -1 $-1 $139 -2.75 $100 -1.75 $136 $172 forward @7 unknown T 5 4 4 5 5 4 #
coedge $-1 -1 -1 $-1 $95 $105 $171 $173 reversed $106 $-1 #
vertex $-1 -1 -1 $-1 $173 $174 #
straight-curve $-1 -1 -1 $-1 5 4 6.75 0 0 -1 I I #
edge $-1 -1 -1 $-1 $143 -2.75 $103 -1.75 $134 $175 forward @7 unknown T 4 5 4 4 5 5 #
coedge $-1 -1 -1 $-1 $98 $171 $170 $176 forward $91 $-1 #
vertex $-1 -1 -1 $-1 $99 $177 #
straight-curve $-1 -1 -1 $-1 6.75 5 4 -1 0 0 I I #
point $-1 -1 -1 $-1 5 5 4 #
straight-curve $-1 -1 -1 $-1 4 6.75 5 0 -1 0 I I #
point $-1 -1 -1 $-1 4 5 5 #
edge $-1 -1 -1 $-1 $107 4 $178 5 $135 $179 forward @7 unknown T 4 4 4 4 4 5 #
point $-1 -1 -1 $-1 4 4 5 #
face $-1 -1 -1 $-1 $180 $181 $6 $-1 $182 reversed single T 4 14 4 14 14 14 F #
plane-surface $-1 -1 -1 $-1 4 9 9 1 0 0 0 0 -1 forward_v I I I I #
coedge $-1 -1 -1 $-1 $183 $114 $184 $185 forward $71 $-1 #
coedge $-1 -1 -1 $-1 $114 $183 $129 $167 forward $71 $-1 #
coedge $-1 -1 -1 $-1 $186 $187 $114 $155 reversed $188 $-1 #
edge $-1 -1 -1 $-1 $189 -5 $190 5 $154 $191 forward @7 unknown T 14 4 14 14 14 14 #
coedge $-1 -1 -1 $-1 $115 $192 $117 $159 forward $112 $-1 #
straight-curve $-1 -1 -1 $-1 5 6.75 4 0 1 -0 I I #
coedge $-1 -1 -1 $-1 $129 $117 $186 $193 reversed $41 $-1 #
edge $-1 -1 -1 $-1 $194 -5 $118 4 $117 $195 forward @7 unknown T 5 4 4 14 4 4 #
point $-1 -1 -1 $-1 5 4 4 #
coedge $-1 -1 -1 $-1 $120 $196 $122 $164 reversed $127 $-1 #
straight-curve $-1 -1 -1 $-1 4 5 6.75 -0 0 1 I I #
coedge $-1 -1 -1 $-1 $192 $122 $197 $198 forward $112 $-1 #
edge $-1 -1 -1 $-1 $123 -4 $199 5 $161 $200 forward @7 unknown T 4 5 4 4 14 4 #
point $-1 -1 -1 $-1 4 5 4 #
coedge $-1 -1 -1 $-1 $196 $126 $183 $201 reversed $127 $-1 #
edge $-1 -1 -1 $-1 $168 -5 $189 5 $129 $202 forward @7 unknown T 4 4 14 14 4 14 #
vertex $-1 -1 -1 $-1 $201 $203 #
straight-curve $-1 -1 -1 $-1 4 4 9 0 0 -1 I I #
coedge $-1 -1 -1 $-1 $135 $134 $142 $176 reversed $56 $-1 #
coedge $-1 -1 -1 $-1 $142 $136 $138 $173 forward $91 $-1 #
straight-curve $-1 -1 -1 $-1 5 6.75 4 0 1 -0 I I #
edge $-1 -1 -1 $-1 $139 4 $178 5 $138 $204 forward @7 unknown T 4 4 4 5 4 4 #
point $-1 -1 -1 $-1 5 4 4 #
straight-curve $-1 -1 -1 $-1 4 5 6.75 -0 0 1 I I #
edge $-1 -1 -1 $-1 $178 -5 $143 -4 $170 $205 forward @7 unknown T 4 4 4 4 5 4 #
point $-1 -1 -1 $-1 4 5 4 #
vertex $-1 -1 -1 $-1 $176 $206 #
straight-curve $-1 -1 -1 $-1 4 4 9 0 0 -1 I I #
face $-1 -1 -1 $-1 $-1 $188 $6 $-1 $207 reversed single T 14 4 4 14 14 14 F #
loop $-1 -1 -1 $-1 $-1 $208 $150 T 4 14 4 14 14 14 unknown #
plane-surface $-1 -1 -1 $-1 9 14 9 0 -1 0 0 0 -1 forward_v I I I I #
coedge $-1 -1 -1 $-1 $153 $152 $166 $201 forward $71 $-1 #
coedge $-1 -1 -1 $-1 $208 $209 $152 $185 reversed $181 $-1 #
edge $-1 -1 -1 $-1 $190 -5 $210 5 $184 $211 forward @7 unknown T 4 14 14 14 14 14 #
coedge $-1 -1 -1 $-1 $212 $154 $158 $193 forward $188 $-1 #
coedge $-1 -1 -1 $-1 $154 $212 $208 $213 reversed $188 $-1 #
loop $-1 -1 -1 $-1 $-1 $186 $180 T 14 4 4 14 14 14 unknown #
vertex $-1 -1 -1 $-1 $155 $214 #
vertex $-1 -1 -1 $-1 $155 $215 #
straight-curve $-1 -1 -1 $-1 14 9 14 0 1 0 I I #
coedge $-1 -1 -1 $-1 $156 $163 $212 $216 forward $112 $-1 #
edge $-1 -1 -1 $-1 $189 -5 $194 5 $186 $217 forward @7 unknown T 14 4 4 14 4 14 #
vertex $-1 -1 -1 $-1 $193 $218 #
straight-curve $-1 -1 -1 $-1 9 4 4 -1 0 0 I I #
coedge $-1 -1 -1 $-1 $161 $166 $209 $219 forward $127 $-1 #
coedge $-1 -1 -1 $-1 $209 $208 $163 $198 reversed $181 $-1 #
edge $-1 -1 -1 $-1 $199 -5 $220 5 $197 $221 forward @7 unknown T 4 14 4 14 14 4 #
vertex $-1 -1 -1 $-1 $198 $222 #
straight-curve $-1 -1 -1 $-1 4 9 4 0 1 0 I I #
edge $-1 -1 -1 $-1 $210 -5 $168 5 $166 $223 forward @7 unknown T 4 4 14 4 14 14 #
straight-curve $-1 -1 -1 $-1 9 4 14 1 0 0 I I #
point $-1 -1 -1 $-1 4 4 14 #
straight-curve $-1 -1 -1 $-1 9 4 4 -1 0 0 I I #
straight-curve $-1 -1 -1 $-1 4 9 4 0 1 0 I I #
point $-1 -1 -1 $-1 4 4 4 #
plane-surface $-1 -1 -1 $-1 14 9 9 -1 0 0 0 0 1 forward_v I I I I #
coedge $-1 -1 -1 $-1 $197 $184 $187 $213 forward $181 $-1 #
coedge $-1 -1 -1 $-1 $184 $197 $196 $219 reversed $181 $-1 #
vertex $-1 -1 -1 $-1 $185 $224 #
straight-curve $-1 -1 -1 $-1 9 14 14 -1 0 0 I I #
coedge $-1 -1 -1 $-1 $187 $186 $192 $216 reversed $188 $-1 #
edge $-1 -1 -1 $-1 $190 -5 $220 5 $187 $225 forward @7 unknown T 14 14 4 14 14 14 #
point $-1 -1 -1 $-1 14 4 14 #
point $-1 -1 -1 $-1 14 14 14 #
edge $-1 -1 -1 $-1 $220 -5 $194 5 $212 $226 forward @7 unknown T 14 4 4 14 14 4 #
straight-curve $-1 -1 -1 $-1 14 4 9 0 0 -1 I I #
point $-1 -1 -1 $-1 14 4 4 #
edge $-1 -1 -1 $-1 $210 -5 $199 5 $209 $227 forward @7 unknown T 4 14 4 4 14 14 #
vertex $-1 -1 -1 $-1 $216 $228 #
straight-curve $-1 -1 -1 $-1 9 14 4 1 0 0 I I #
point $-1 -1 -1 $-1 4 14 4 #
straight-curve $-1 -1 -1 $-1 4 9 14 0 -1 0 I I #
point $-1 -1 -1 $-1 4 14 14 #
straight-curve $-1 -1 -1 $-1 14 14 9 0 0 -1 I I #
straight-curve $-1 -1 -1 $-1 14 9 4 0 -1 0 I I #
straight-curve $-1 -1 -1 $-1 4 14 9 0 0 -1 I I #
point $-1 -1 -1 $-1 14 14 4 #
End-of-ACIS-data 