1600 0 1 0           
10 Cubit 10.2 17 ACIS 16.0.1 Linux 24 Wed Jun 20 11:44:04 2007 
1 9.9999999999999995e-07 1e-10 
body $-1 -1 -1 $-1 $1 $-1 $-1 T -5 -5 -5 5 5 5 #
lump $-1 -1 -1 $-1 $-1 $2 $0 T -5 -5 -5 5 5 5 #
shell $-1 -1 -1 $-1 $-1 $-1 $3 $-1 $1 T -5 -5 -5 5 5 5 #
face $-1 -1 -1 $-1 $4 $5 $2 $-1 $6 forward single T 4.7999999999999998 -5 4.7999999999999998 5 -4.7999999999999998 5 F #
face $-1 -1 -1 $-1 $7 $8 $2 $-1 $9 forward single T 4.7999999999999998 4.7999999999999998 4.7999999999999998 5 5 5 F #
loop $-1 -1 -1 $-1 $-1 $10 $3 T 4.7999999999999998 -5 4.7999999999999998 5 -4.7999999999999998 5 unknown #
sphere-surface $-1 -1 -1 $-1 4.7999999999999998 -4.7999999999999998 4.7999999999999998 0.20000000000000018 1 0 0 0 0 1 forward_v I I I I #
face $-1 -1 -1 $-1 $11 $12 $2 $-1 $13 forward single T 4.7999999999999998 -4.7999999999999998 4.7999999999999998 5 4.7999999999999998 5 F #
loop $-1 -1 -1 $-1 $-1 $14 $4 T 4.7999999999999998 4.7999999999999998 4.7999999999999998 5 5 5 unknown #
sphere-surface $-1 -1 -1 $-1 4.7999999999999998 4.7999999999999998 4.7999999999999998 0.20000000000000018 1 0 0 0 0 1 forward_v I I I I #
coedge $-1 -1 -1 $-1 $15 $16 $17 $18 reversed $5 $-1 #
face $-1 -1 -1 $-1 $19 $20 $2 $-1 $21 forward single T 4.7999999999999998 -5 -5 5 -4.7999999999999998 -4.7999999999999998 F #
loop $-1 -1 -1 $-1 $-1 $22 $7 T 4.7999999999999998 -4.7999999999999998 4.7999999999999998 5 4.7999999999999998 5 unknown #
cone-surface $-1 -1 -1 $-1 4.7999999999999998 0 4.7999999999999998 0 1 -0 0.14142135623730953 0 0.14142135623730953 1 I I 0 1 0.20000000000000004 forward I I I I #
coedge $-1 -1 -1 $-1 $23 $24 $25 $26 reversed $8 $-1 #
coedge $-1 -1 -1 $-1 $16 $10 $27 $28 reversed $5 $-1 #
coedge $-1 -1 -1 $-1 $10 $15 $29 $30 reversed $5 $-1 #
coedge $-1 -1 -1 $-1 $31 $32 $10 $18 forward $33 $-1 #
edge $-1 -1 -1 $-1 $34 -0 $35 1.5707963267948966 $17 $36 reversed @7 tangent T 4.7999999999999998 -5 4.7999999999999998 5 -4.7999999999999998 4.7999999999999998 #
face $-1 -1 -1 $-1 $37 $33 $2 $-1 $38 forward single T 4.7999999999999998 -5 -4.7999999999999998 5 -4.7999999999999998 4.7999999999999998 F #
loop $-1 -1 -1 $-1 $-1 $39 $11 T 4.7999999999999998 -5 -5 5 -4.7999999999999998 -4.7999999999999998 unknown #
sphere-surface $-1 -1 -1 $-1 4.7999999999999998 -4.7999999999999998 -4.7999999999999998 0.20000000000000018 1 0 0 0 0 1 forward_v I I I I #
coedge $-1 -1 -1 $-1 $40 $41 $23 $42 forward $12 $-1 #
coedge $-1 -1 -1 $-1 $24 $14 $22 $42 reversed $8 $-1 #
coedge $-1 -1 -1 $-1 $14 $23 $43 $44 reversed $8 $-1 #
coedge $-1 -1 -1 $-1 $45 $46 $14 $26 forward $47 $-1 #
edge $-1 -1 -1 $-1 $48 -0 $49 1.5707963267948966 $25 $50 reversed @7 tangent T 4.7999999999999998 4.7999999999999998 4.7999999999999998 4.7999999999999998 5 5 #
coedge $-1 -1 -1 $-1 $41 $40 $15 $28 forward $12 $-1 #
edge $-1 -1 -1 $-1 $51 -0 $34 1.5707963267948966 $27 $52 reversed @7 tangent T 4.7999999999999998 -4.7999999999999998 4.7999999999999998 5 -4.7999999999999998 5 #
coedge $-1 -1 -1 $-1 $53 $54 $16 $30 forward $55 $-1 #
edge $-1 -1 -1 $-1 $35 -0 $51 1.5707963267948966 $29 $56 reversed @7 tangent T 4.7999999999999998 -5 4.7999999999999998 4.7999999999999998 -4.7999999999999998 5 #
coedge $-1 -1 -1 $-1 $57 $17 $58 $59 forward $33 $-1 #
coedge $-1 -1 -1 $-1 $17 $57 $60 $61 forward $33 $-1 #
loop $-1 -1 -1 $-1 $-1 $57 $19 T 4.7999999999999998 -5 -4.7999999999999998 5 -4.7999999999999998 4.7999999999999998 unknown #
vertex $-1 -1 -1 $-1 $62 $63 #
vertex $-1 -1 -1 $-1 $59 $64 #
ellipse-curve $-1 -1 -1 $-1 4.7999999999999998 -4.7999999999999998 4.7999999999999998 -0 0 1 0.20000000000000018 0 0 1 F -1.5707963267948966 F -0 #
face $-1 -1 -1 $-1 $65 $66 $2 $-1 $67 forward single T -5 -5 4.7999999999999998 -4.7999999999999998 -4.7999999999999998 5 F #
cone-surface $-1 -1 -1 $-1 4.7999999999999998 -4.7999999999999998 0 -0 0 -1 0.14142135623730953 -0.14142135623730953 0 1 I I 0 1 0.20000000000000004 forward I I I I #
coedge $-1 -1 -1 $-1 $68 $69 $70 $71 reversed $20 $-1 #
coedge $-1 -1 -1 $-1 $27 $22 $72 $73 forward $12 $-1 #
coedge $-1 -1 -1 $-1 $22 $27 $74 $62 forward $12 $-1 #
edge $-1 -1 -1 $-1 $75 -0 $48 1.5707963267948966 $22 $76 reversed @7 tangent T 4.7999999999999998 4.7999999999999998 4.7999999999999998 5 4.7999999999999998 5 #
coedge $-1 -1 -1 $-1 $77 $78 $24 $44 forward $79 $-1 #
edge $-1 -1 -1 $-1 $49 -0 $75 1.5707963267948966 $43 $80 reversed @7 tangent T 4.7999999999999998 4.7999999999999998 4.7999999999999998 5 5 4.7999999999999998 #
coedge $-1 -1 -1 $-1 $81 $25 $82 $83 forward $47 $-1 #
coedge $-1 -1 -1 $-1 $25 $81 $84 $85 forward $47 $-1 #
loop $-1 -1 -1 $-1 $-1 $81 $86 T -4.7999999999999998 4.7999999999999998 4.7999999999999998 4.7999999999999998 5 5 unknown #
vertex $-1 -1 -1 $-1 $73 $87 #
vertex $-1 -1 -1 $-1 $83 $88 #
ellipse-curve $-1 -1 -1 $-1 4.7999999999999998 4.7999999999999998 4.7999999999999998 1 0 0 0 0 0.20000000000000018 1 F -1.5707963267948966 F -0 #
vertex $-1 -1 -1 $-1 $73 $89 #
ellipse-curve $-1 -1 -1 $-1 4.7999999999999998 -4.7999999999999998 4.7999999999999998 0 -1 0 0 0 0.20000000000000018 1 F -1.5707963267948966 F -0 #
coedge $-1 -1 -1 $-1 $90 $29 $91 $92 forward $55 $-1 #
coedge $-1 -1 -1 $-1 $29 $90 $93 $94 forward $55 $-1 #
loop $-1 -1 -1 $-1 $-1 $29 $95 T -4.7999999999999998 -5 4.7999999999999998 4.7999999999999998 -4.7999999999999998 5 unknown #
ellipse-curve $-1 -1 -1 $-1 4.7999999999999998 -4.7999999999999998 4.7999999999999998 1 0 -0 0 -0.20000000000000018 0 1 F -1.5707963267948966 F -0 #
coedge $-1 -1 -1 $-1 $32 $31 $68 $96 forward $33 $-1 #
coedge $-1 -1 -1 $-1 $93 $97 $31 $59 reversed $98 $-1 #
edge $-1 -1 -1 $-1 $35 -4.7999999999999998 $99 4.7999999999999998 $58 $100 forward @7 tangent T 4.7999999999999998 -5 -4.7999999999999998 4.7999999999999998 -5 4.7999999999999998 #
coedge $-1 -1 -1 $-1 $101 $74 $32 $61 reversed $102 $-1 #
edge $-1 -1 -1 $-1 $103 -4.7999999999999998 $34 4.7999999999999998 $60 $104 forward @7 tangent T 5 -4.7999999999999998 -4.7999999999999998 5 -4.7999999999999998 4.7999999999999998 #
edge $-1 -1 -1 $-1 $34 -4.7999999999999998 $75 4.7999999999999998 $74 $105 forward @7 tangent T 5 -4.7999999999999998 4.7999999999999998 5 4.7999999999999998 4.7999999999999998 #
point $-1 -1 -1 $-1 5 -4.7999999999999998 4.7999999999999998 #
point $-1 -1 -1 $-1 4.7999999999999998 -5 4.7999999999999998 #
face $-1 -1 -1 $-1 $106 $107 $2 $-1 $108 forward single T 4.7999999999999998 4.7999999999999998 -5 5 5 -4.7999999999999998 F #
loop $-1 -1 -1 $-1 $-1 $109 $37 T -5 -5 4.7999999999999998 -4.7999999999999998 -4.7999999999999998 5 unknown #
sphere-surface $-1 -1 -1 $-1 -4.7999999999999998 -4.7999999999999998 4.7999999999999998 0.20000000000000018 1 0 0 0 0 1 forward_v I I I I #
coedge $-1 -1 -1 $-1 $69 $39 $57 $96 reversed $20 $-1 #
coedge $-1 -1 -1 $-1 $39 $68 $110 $111 reversed $20 $-1 #
coedge $-1 -1 -1 $-1 $112 $113 $39 $71 forward $114 $-1 #
edge $-1 -1 -1 $-1 $103 -0 $115 1.5707963267948966 $70 $116 reversed @7 tangent T 4.7999999999999998 -4.7999999999999998 -5 5 -4.7999999999999998 -4.7999999999999998 #
coedge $-1 -1 -1 $-1 $84 $91 $40 $73 reversed $117 $-1 #
edge $-1 -1 -1 $-1 $48 -4.7999999999999998 $51 4.7999999999999998 $72 $118 forward @7 tangent T 4.7999999999999998 -4.7999999999999998 5 4.7999999999999998 4.7999999999999998 5 #
coedge $-1 -1 -1 $-1 $60 $119 $41 $62 reversed $102 $-1 #
vertex $-1 -1 -1 $-1 $62 $120 #
ellipse-curve $-1 -1 -1 $-1 4.7999999999999998 4.7999999999999998 4.7999999999999998 0 1 0 0.20000000000000018 0 0 1 F -1.5707963267948966 F -0 #
coedge $-1 -1 -1 $-1 $121 $43 $119 $122 forward $79 $-1 #
coedge $-1 -1 -1 $-1 $43 $121 $123 $124 forward $79 $-1 #
loop $-1 -1 -1 $-1 $-1 $121 $125 T 4.7999999999999998 4.7999999999999998 -4.7999999999999998 5 5 4.7999999999999998 unknown #
ellipse-curve $-1 -1 -1 $-1 4.7999999999999998 4.7999999999999998 4.7999999999999998 0 0 1 0 0.20000000000000018 0 1 F -1.5707963267948966 F -0 #
coedge $-1 -1 -1 $-1 $46 $45 $126 $127 forward $47 $-1 #
coedge $-1 -1 -1 $-1 $123 $128 $45 $83 reversed $129 $-1 #
edge $-1 -1 -1 $-1 $49 -4.7999999999999998 $130 4.7999999999999998 $82 $131 forward @7 tangent T -4.7999999999999998 5 4.7999999999999998 4.7999999999999998 5 4.7999999999999998 #
coedge $-1 -1 -1 $-1 $132 $72 $46 $85 reversed $117 $-1 #
edge $-1 -1 -1 $-1 $133 -4.7999999999999998 $48 4.7999999999999998 $84 $134 forward @7 tangent T -4.7999999999999998 4.7999999999999998 5 4.7999999999999998 4.7999999999999998 5 #
face $-1 -1 -1 $-1 $135 $47 $2 $-1 $136 forward single T -4.7999999999999998 4.7999999999999998 4.7999999999999998 4.7999999999999998 5 5 F #
point $-1 -1 -1 $-1 4.7999999999999998 4.7999999999999998 5 #
point $-1 -1 -1 $-1 4.7999999999999998 5 4.7999999999999998 #
point $-1 -1 -1 $-1 4.7999999999999998 -4.7999999999999998 5 #
coedge $-1 -1 -1 $-1 $54 $53 $109 $137 forward $55 $-1 #
coedge $-1 -1 -1 $-1 $72 $132 $53 $92 reversed $117 $-1 #
edge $-1 -1 -1 $-1 $51 -4.7999999999999998 $138 4.7999999999999998 $91 $139 forward @7 tangent T -4.7999999999999998 -4.7999999999999998 5 4.7999999999999998 -4.7999999999999998 5 #
coedge $-1 -1 -1 $-1 $140 $58 $54 $94 reversed $98 $-1 #
edge $-1 -1 -1 $-1 $141 -4.7999999999999998 $35 4.7999999999999998 $93 $142 forward @7 tangent T -4.7999999999999998 -5 4.7999999999999998 4.7999999999999998 -5 4.7999999999999998 #
face $-1 -1 -1 $-1 $143 $55 $2 $-1 $144 forward single T -4.7999999999999998 -5 4.7999999999999998 4.7999999999999998 -4.7999999999999998 5 F #
edge $-1 -1 -1 $-1 $99 -0 $103 1.5707963267948966 $57 $145 reversed @7 tangent T 4.7999999999999998 -5 -4.7999999999999998 5 -4.7999999999999998 -4.7999999999999998 #
coedge $-1 -1 -1 $-1 $58 $140 $146 $147 reversed $98 $-1 #
loop $-1 -1 -1 $-1 $-1 $58 $148 T -4.7999999999999998 -5 -4.7999999999999998 4.7999999999999998 -5 4.7999999999999998 unknown #
vertex $-1 -1 -1 $-1 $59 $149 #
straight-curve $-1 -1 -1 $-1 4.7999999999999998 -5 0 0 0 -1 F -5.2640010000000004 F 5.2640010000000004 #
coedge $-1 -1 -1 $-1 $119 $60 $113 $150 reversed $102 $-1 #
loop $-1 -1 -1 $-1 $-1 $74 $151 T 5 -4.7999999999999998 -4.7999999999999998 5 4.7999999999999998 4.7999999999999998 unknown #
vertex $-1 -1 -1 $-1 $61 $152 #
straight-curve $-1 -1 -1 $-1 5 -4.7999999999999998 0 0 -0 1 F -5.2640010000000004 F 5.2640010000000004 #
straight-curve $-1 -1 -1 $-1 5 0 4.7999999999999998 0 1 0 F -5.2640010000000004 F 5.2640010000000004 #
face $-1 -1 -1 $-1 $153 $114 $2 $-1 $154 forward single T 4.7999999999999998 -4.7999999999999998 -5 5 4.7999999999999998 -4.7999999999999998 F #
loop $-1 -1 -1 $-1 $-1 $155 $65 T 4.7999999999999998 4.7999999999999998 -5 5 5 -4.7999999999999998 unknown #
sphere-surface $-1 -1 -1 $-1 4.7999999999999998 4.7999999999999998 -4.7999999999999998 0.20000000000000018 1 0 0 0 0 1 forward_v I I I I #
coedge $-1 -1 -1 $-1 $156 $157 $90 $137 reversed $66 $-1 #
coedge $-1 -1 -1 $-1 $146 $158 $69 $111 forward $159 $-1 #
edge $-1 -1 -1 $-1 $115 -0 $99 1.5707963267948966 $110 $160 reversed @7 tangent T 4.7999999999999998 -5 -5 4.7999999999999998 -4.7999999999999998 -4.7999999999999998 #
coedge $-1 -1 -1 $-1 $161 $70 $162 $163 forward $114 $-1 #
coedge $-1 -1 -1 $-1 $70 $161 $101 $150 forward $114 $-1 #
loop $-1 -1 -1 $-1 $-1 $70 $106 T 4.7999999999999998 -4.7999999999999998 -5 5 4.7999999999999998 -4.7999999999999998 unknown #
vertex $-1 -1 -1 $-1 $163 $164 #
ellipse-curve $-1 -1 -1 $-1 4.7999999999999998 -4.7999999999999998 -4.7999999999999998 0 -1 0 0.20000000000000018 0 0 1 F -1.5707963267948966 F -0 #
loop $-1 -1 -1 $-1 $-1 $72 $143 T -4.7999999999999998 -4.7999999999999998 5 4.7999999999999998 4.7999999999999998 5 unknown #
straight-curve $-1 -1 -1 $-1 4.7999999999999998 0 5 -0 -1 0 F -5.2640010000000004 F 5.2640010000000004 #
coedge $-1 -1 -1 $-1 $74 $101 $77 $122 reversed $102 $-1 #
point $-1 -1 -1 $-1 5 4.7999999999999998 4.7999999999999998 #
coedge $-1 -1 -1 $-1 $78 $77 $155 $165 forward $79 $-1 #
edge $-1 -1 -1 $-1 $75 -4.7999999999999998 $166 4.7999999999999998 $119 $167 forward @7 tangent T 5 4.7999999999999998 -4.7999999999999998 5 4.7999999999999998 4.7999999999999998 #
coedge $-1 -1 -1 $-1 $168 $82 $78 $124 reversed $129 $-1 #
edge $-1 -1 -1 $-1 $169 -4.7999999999999998 $49 4.7999999999999998 $123 $170 forward @7 tangent T 4.7999999999999998 5 -4.7999999999999998 4.7999999999999998 5 4.7999999999999998 #
face $-1 -1 -1 $-1 $95 $79 $2 $-1 $171 forward single T 4.7999999999999998 4.7999999999999998 -4.7999999999999998 5 5 4.7999999999999998 F #
coedge $-1 -1 -1 $-1 $172 $173 $81 $127 reversed $174 $-1 #
edge $-1 -1 -1 $-1 $130 -0 $133 1.5707963267948966 $81 $175 reversed @7 tangent T -4.7999999999999998 4.7999999999999998 4.7999999999999998 -4.7999999999999998 5 5 #
coedge $-1 -1 -1 $-1 $82 $168 $176 $177 reversed $129 $-1 #
loop $-1 -1 -1 $-1 $-1 $168 $178 T -4.7999999999999998 5 -4.7999999999999998 4.7999999999999998 5 4.7999999999999998 unknown #
vertex $-1 -1 -1 $-1 $83 $179 #
straight-curve $-1 -1 -1 $-1 0 5 4.7999999999999998 -1 0 0 F -5.2640010000000004 F 5.2640010000000004 #
coedge $-1 -1 -1 $-1 $91 $84 $180 $181 reversed $117 $-1 #
vertex $-1 -1 -1 $-1 $85 $182 #
straight-curve $-1 -1 -1 $-1 0 4.7999999999999998 5 1 -0 -0 F -5.2640010000000004 F 5.2640010000000004 #
face $-1 -1 -1 $-1 $183 $184 $2 $-1 $185 forward single T -5 -5 -5 -4.7999999999999998 -4.7999999999999998 -4.7999999999999998 F #
cone-surface $-1 -1 -1 $-1 0 4.7999999999999998 4.7999999999999998 -1 0 0 0 0.14142135623730953 0.14142135623730953 1 I I 0 1 0.20000000000000004 forward I I I I #
edge $-1 -1 -1 $-1 $138 -0 $141 1.5707963267948966 $90 $186 reversed @7 tangent T -4.7999999999999998 -5 4.7999999999999998 -4.7999999999999998 -4.7999999999999998 5 #
vertex $-1 -1 -1 $-1 $181 $187 #
straight-curve $-1 -1 -1 $-1 0 -4.7999999999999998 5 -1 0 -0 F -5.2640010000000004 F 5.2640010000000004 #
coedge $-1 -1 -1 $-1 $97 $93 $188 $189 reversed $98 $-1 #
vertex $-1 -1 -1 $-1 $189 $190 #
straight-curve $-1 -1 -1 $-1 0 -5 4.7999999999999998 1 0 0 F -5.2640010000000004 F 5.2640010000000004 #
face $-1 -1 -1 $-1 $151 $191 $2 $-1 $192 forward single T -4.7999999999999998 -4.7999999999999998 5 4.7999999999999998 4.7999999999999998 5 F #
cone-surface $-1 -1 -1 $-1 0 -4.7999999999999998 4.7999999999999998 1 -0 0 0 -0.14142135623730953 0.14142135623730953 1 I I 0 1 0.20000000000000004 forward I I I I #
ellipse-curve $-1 -1 -1 $-1 4.7999999999999998 -4.7999999999999998 -4.7999999999999998 0 0 -1 0 -0.20000000000000018 0 1 F -1.5707963267948966 F -0 #
coedge $-1 -1 -1 $-1 $193 $110 $97 $147 forward $159 $-1 #
edge $-1 -1 -1 $-1 $99 -4.7999999999999998 $194 4.7999999999999998 $97 $195 forward @7 tangent T -4.7999999999999998 -5 -4.7999999999999998 4.7999999999999998 -5 -4.7999999999999998 #
face $-1 -1 -1 $-1 $196 $197 $2 $-1 $198 reversed single T -4.7999999999999998 -5 -4.7999999999999998 4.7999999999999998 -5 4.7999999999999998 F #
point $-1 -1 -1 $-1 4.7999999999999998 -5 -4.7999999999999998 #
edge $-1 -1 -1 $-1 $166 -4.7999999999999998 $103 4.7999999999999998 $101 $199 forward @7 tangent T 5 -4.7999999999999998 -4.7999999999999998 5 4.7999999999999998 -4.7999999999999998 #
face $-1 -1 -1 $-1 $148 $200 $2 $-1 $201 reversed single T 5 -4.7999999999999998 -4.7999999999999998 5 4.7999999999999998 4.7999999999999998 F #
point $-1 -1 -1 $-1 5 -4.7999999999999998 -4.7999999999999998 #
face $-1 -1 -1 $-1 $86 $174 $2 $-1 $202 forward single T -5 4.7999999999999998 4.7999999999999998 -4.7999999999999998 5 5 F #
cone-surface $-1 -1 -1 $-1 4.7999999999999998 0 -4.7999999999999998 0 -1 0 0.14142135623730953 0 -0.14142135623730953 1 I I 0 1 0.20000000000000004 forward I I I I #
coedge $-1 -1 -1 $-1 $203 $204 $121 $165 reversed $107 $-1 #
coedge $-1 -1 -1 $-1 $157 $109 $205 $206 reversed $66 $-1 #
coedge $-1 -1 -1 $-1 $109 $156 $207 $208 reversed $66 $-1 #
coedge $-1 -1 -1 $-1 $110 $193 $209 $210 forward $159 $-1 #
loop $-1 -1 -1 $-1 $-1 $193 $211 T -4.7999999999999998 -5 -5 4.7999999999999998 -4.7999999999999998 -4.7999999999999998 unknown #
ellipse-curve $-1 -1 -1 $-1 4.7999999999999998 -4.7999999999999998 -4.7999999999999998 1 0 0 0 0 -0.20000000000000018 1 F -1.5707963267948966 F -0 #
coedge $-1 -1 -1 $-1 $113 $112 $203 $212 forward $114 $-1 #
coedge $-1 -1 -1 $-1 $209 $213 $112 $163 reversed $214 $-1 #
edge $-1 -1 -1 $-1 $115 -4.7999999999999998 $215 4.7999999999999998 $162 $216 forward @7 tangent T 4.7999999999999998 -4.7999999999999998 -5 4.7999999999999998 4.7999999999999998 -5 #
point $-1 -1 -1 $-1 4.7999999999999998 -4.7999999999999998 -5 #
edge $-1 -1 -1 $-1 $166 -0 $169 1.5707963267948966 $121 $217 reversed @7 tangent T 4.7999999999999998 4.7999999999999998 -4.7999999999999998 5 5 -4.7999999999999998 #
vertex $-1 -1 -1 $-1 $150 $218 #
straight-curve $-1 -1 -1 $-1 5 4.7999999999999998 0 -0 0 -1 F -5.2640010000000004 F 5.2640010000000004 #
coedge $-1 -1 -1 $-1 $128 $123 $219 $220 reversed $129 $-1 #
vertex $-1 -1 -1 $-1 $220 $221 #
straight-curve $-1 -1 -1 $-1 4.7999999999999998 5 0 -0 0 1 F -5.2640010000000004 F 5.2640010000000004 #
cone-surface $-1 -1 -1 $-1 4.7999999999999998 4.7999999999999998 0 -0 -0 -1 0.14142135623730953 0.14142135623730953 0 1 I I 0 1 0.20000000000000004 forward I I I I #
coedge $-1 -1 -1 $-1 $173 $126 $222 $223 reversed $174 $-1 #
coedge $-1 -1 -1 $-1 $126 $172 $224 $225 reversed $174 $-1 #
loop $-1 -1 -1 $-1 $-1 $173 $153 T -5 4.7999999999999998 4.7999999999999998 -4.7999999999999998 5 5 unknown #
ellipse-curve $-1 -1 -1 $-1 -4.7999999999999998 4.7999999999999998 4.7999999999999998 -1 0 0 0 0.20000000000000018 0 1 F -1.5707963267948966 F -0 #
coedge $-1 -1 -1 $-1 $226 $222 $128 $177 forward $227 $-1 #
edge $-1 -1 -1 $-1 $130 -4.7999999999999998 $228 4.7999999999999998 $128 $229 forward @7 tangent T -4.7999999999999998 5 -4.7999999999999998 -4.7999999999999998 5 4.7999999999999998 #
face $-1 -1 -1 $-1 $230 $231 $2 $-1 $232 reversed single T -4.7999999999999998 5 -4.7999999999999998 4.7999999999999998 5 4.7999999999999998 F #
point $-1 -1 -1 $-1 -4.7999999999999998 5 4.7999999999999998 #
coedge $-1 -1 -1 $-1 $224 $205 $132 $181 forward $233 $-1 #
edge $-1 -1 -1 $-1 $138 -4.7999999999999998 $133 4.7999999999999998 $132 $234 forward @7 tangent T -4.7999999999999998 -4.7999999999999998 5 -4.7999999999999998 4.7999999999999998 5 #
point $-1 -1 -1 $-1 -4.7999999999999998 4.7999999999999998 5 #
face $-1 -1 -1 $-1 $235 $236 $2 $-1 $237 forward single T -5 4.7999999999999998 -5 -4.7999999999999998 5 -4.7999999999999998 F #
loop $-1 -1 -1 $-1 $-1 $238 $135 T -5 -5 -5 -4.7999999999999998 -4.7999999999999998 -4.7999999999999998 unknown #
sphere-surface $-1 -1 -1 $-1 -4.7999999999999998 -4.7999999999999998 -4.7999999999999998 0.20000000000000018 1 0 0 0 0 1 forward_v I I I I #
ellipse-curve $-1 -1 -1 $-1 -4.7999999999999998 -4.7999999999999998 4.7999999999999998 -1 0 0 0 0 0.20000000000000018 1 F -1.5707963267948966 F -0 #
point $-1 -1 -1 $-1 -4.7999999999999998 -4.7999999999999998 5 #
coedge $-1 -1 -1 $-1 $207 $239 $140 $189 forward $240 $-1 #
edge $-1 -1 -1 $-1 $194 -4.7999999999999998 $141 4.7999999999999998 $140 $241 forward @7 tangent T -4.7999999999999998 -5 -4.7999999999999998 -4.7999999999999998 -5 4.7999999999999998 #
point $-1 -1 -1 $-1 -4.7999999999999998 -5 4.7999999999999998 #
loop $-1 -1 -1 $-1 $117 $242 $143 T -1 -1 5 1 1 5 unknown #
plane-surface $-1 -1 -1 $-1 0 0 5 0 0 1 1 0 0 forward_v I I I I #
coedge $-1 -1 -1 $-1 $158 $146 $243 $244 forward $159 $-1 #
vertex $-1 -1 -1 $-1 $147 $245 #
straight-curve $-1 -1 -1 $-1 0 -5 -4.7999999999999998 -1 0 0 F -5.2640010000000004 F 5.2640010000000004 #
face $-1 -1 -1 $-1 $178 $246 $2 $-1 $247 reversed single T -4.7999999999999998 -4.7999999999999998 -5 4.7999999999999998 4.7999999999999998 -5 F #
loop $-1 -1 -1 $-1 $98 $248 $148 T -1 -5 -0.99999999999999967 1 -5 1.0000000000000002 unknown #
plane-surface $-1 -1 -1 $-1 0 -5 0 0 1 -0 -0 0 1 forward_v I I I I #
straight-curve $-1 -1 -1 $-1 5 0 -4.7999999999999998 0 -1 0 F -5.2640010000000004 F 5.2640010000000004 #
loop $-1 -1 -1 $-1 $102 $249 $151 T 5 -1 -0.99999999999999967 5 1 1.0000000000000002 unknown #
plane-surface $-1 -1 -1 $-1 5 0 0 -1 0 0 0 -0 1 forward_v I I I I #
sphere-surface $-1 -1 -1 $-1 -4.7999999999999998 4.7999999999999998 4.7999999999999998 0.20000000000000018 1 0 0 0 0 1 forward_v I I I I #
coedge $-1 -1 -1 $-1 $204 $155 $161 $212 reversed $107 $-1 #
coedge $-1 -1 -1 $-1 $155 $203 $250 $251 reversed $107 $-1 #
coedge $-1 -1 -1 $-1 $180 $252 $156 $206 forward $233 $-1 #
edge $-1 -1 -1 $-1 $253 -0 $138 1.5707963267948966 $205 $254 reversed @7 tangent T -5 -4.7999999999999998 4.7999999999999998 -4.7999999999999998 -4.7999999999999998 5 #
coedge $-1 -1 -1 $-1 $255 $188 $157 $208 forward $240 $-1 #
edge $-1 -1 -1 $-1 $141 -0 $253 1.5707963267948966 $207 $256 reversed @7 tangent T -5 -5 4.7999999999999998 -4.7999999999999998 -4.7999999999999998 4.7999999999999998 #
coedge $-1 -1 -1 $-1 $257 $162 $158 $210 reversed $214 $-1 #
edge $-1 -1 -1 $-1 $258 -4.7999999999999998 $115 4.7999999999999998 $209 $259 forward @7 tangent T -4.7999999999999998 -4.7999999999999998 -5 4.7999999999999998 -4.7999999999999998 -5 #
face $-1 -1 -1 $-1 $260 $159 $2 $-1 $261 forward single T -4.7999999999999998 -5 -5 4.7999999999999998 -4.7999999999999998 -4.7999999999999998 F #
edge $-1 -1 -1 $-1 $215 -0 $166 1.5707963267948966 $161 $262 reversed @7 tangent T 4.7999999999999998 4.7999999999999998 -5 5 4.7999999999999998 -4.7999999999999998 #
coedge $-1 -1 -1 $-1 $162 $257 $263 $264 reversed $214 $-1 #
loop $-1 -1 -1 $-1 $-1 $162 $196 T -4.7999999999999998 -4.7999999999999998 -5 4.7999999999999998 4.7999999999999998 -5 unknown #
vertex $-1 -1 -1 $-1 $163 $265 #
straight-curve $-1 -1 -1 $-1 4.7999999999999998 0 -5 -0 1 -0 F -5.2640010000000004 F 5.2640010000000004 #
ellipse-curve $-1 -1 -1 $-1 4.7999999999999998 4.7999999999999998 -4.7999999999999998 0 0 -1 0.20000000000000018 0 0 1 F -1.5707963267948966 F -0 #
point $-1 -1 -1 $-1 5 4.7999999999999998 -4.7999999999999998 #
coedge $-1 -1 -1 $-1 $250 $266 $168 $220 forward $267 $-1 #
edge $-1 -1 -1 $-1 $228 -4.7999999999999998 $169 4.7999999999999998 $168 $268 forward @7 tangent T -4.7999999999999998 5 -4.7999999999999998 4.7999999999999998 5 -4.7999999999999998 #
point $-1 -1 -1 $-1 4.7999999999999998 5 -4.7999999999999998 #
coedge $-1 -1 -1 $-1 $176 $269 $172 $223 forward $227 $-1 #
edge $-1 -1 -1 $-1 $270 -0 $130 1.5707963267948966 $222 $271 reversed @7 tangent T -5 4.7999999999999998 4.7999999999999998 -4.7999999999999998 5 4.7999999999999998 #
coedge $-1 -1 -1 $-1 $252 $180 $173 $225 forward $233 $-1 #
edge $-1 -1 -1 $-1 $133 -0 $270 1.5707963267948966 $224 $272 reversed @7 tangent T -5 4.7999999999999998 4.7999999999999998 -4.7999999999999998 4.7999999999999998 5 #
coedge $-1 -1 -1 $-1 $269 $176 $273 $274 forward $227 $-1 #
loop $-1 -1 -1 $-1 $-1 $226 $275 T -5 4.7999999999999998 -4.7999999999999998 -4.7999999999999998 5 4.7999999999999998 unknown #
vertex $-1 -1 -1 $-1 $220 $276 #
straight-curve $-1 -1 -1 $-1 -4.7999999999999998 5 0 0 0 -1 F -5.2640010000000004 F 5.2640010000000004 #
face $-1 -1 -1 $-1 $277 $278 $2 $-1 $279 reversed single T -5 -4.7999999999999998 -4.7999999999999998 -5 4.7999999999999998 4.7999999999999998 F #
loop $-1 -1 -1 $-1 $129 $280 $178 T -1 5 -1.0000000000000002 1 5 0.99999999999999967 unknown #
plane-surface $-1 -1 -1 $-1 0 5 0 0 -1 0 0 0 -1 forward_v I I I I #
loop $-1 -1 -1 $-1 $-1 $205 $281 T -5 -4.7999999999999998 4.7999999999999998 -4.7999999999999998 4.7999999999999998 5 unknown #
straight-curve $-1 -1 -1 $-1 -4.7999999999999998 0 5 -0 1 -0 F -5.2640010000000004 F 5.2640010000000004 #
face $-1 -1 -1 $-1 $282 $267 $2 $-1 $283 forward single T -4.7999999999999998 4.7999999999999998 -5 4.7999999999999998 5 -4.7999999999999998 F #
loop $-1 -1 -1 $-1 $-1 $273 $183 T -5 4.7999999999999998 -5 -4.7999999999999998 5 -4.7999999999999998 unknown #
sphere-surface $-1 -1 -1 $-1 -4.7999999999999998 4.7999999999999998 -4.7999999999999998 0.20000000000000018 1 0 0 0 0 1 forward_v I I I I #
coedge $-1 -1 -1 $-1 $284 $243 $239 $285 reversed $184 $-1 #
coedge $-1 -1 -1 $-1 $188 $255 $238 $285 forward $240 $-1 #
loop $-1 -1 -1 $-1 $-1 $239 $260 T -5 -5 -4.7999999999999998 -4.7999999999999998 -4.7999999999999998 4.7999999999999998 unknown #
straight-curve $-1 -1 -1 $-1 -4.7999999999999998 -5 0 -0 -0 1 F -5.2640010000000004 F 5.2640010000000004 #
coedge $-1 -1 -1 $-1 $242 $242 $286 $287 forward $191 $-1 #
coedge $-1 -1 -1 $-1 $238 $284 $193 $244 reversed $184 $-1 #
edge $-1 -1 -1 $-1 $194 -0 $258 1.5707963267948966 $193 $288 reversed @7 tangent T -4.7999999999999998 -5 -5 -4.7999999999999998 -4.7999999999999998 -4.7999999999999998 #
point $-1 -1 -1 $-1 -4.7999999999999998 -5 -4.7999999999999998 #
loop $-1 -1 -1 $-1 $214 $289 $196 T -1 -1 -5 1 1 -5 unknown #
plane-surface $-1 -1 -1 $-1 0 0 -5 0 0 1 1 0 0 forward_v I I I I #
coedge $-1 -1 -1 $-1 $248 $248 $290 $291 forward $197 $-1 #
coedge $-1 -1 -1 $-1 $249 $249 $292 $293 forward $200 $-1 #
coedge $-1 -1 -1 $-1 $263 $219 $204 $251 forward $267 $-1 #
edge $-1 -1 -1 $-1 $169 -0 $215 1.5707963267948966 $250 $294 reversed @7 tangent T 4.7999999999999998 4.7999999999999998 -5 4.7999999999999998 5 -4.7999999999999998 #
coedge $-1 -1 -1 $-1 $205 $224 $295 $296 forward $233 $-1 #
vertex $-1 -1 -1 $-1 $297 $298 #
ellipse-curve $-1 -1 -1 $-1 -4.7999999999999998 -4.7999999999999998 4.7999999999999998 0 -1 0 -0.20000000000000018 0 0 1 F -1.5707963267948966 F -0 #
coedge $-1 -1 -1 $-1 $239 $207 $299 $297 forward $240 $-1 #
ellipse-curve $-1 -1 -1 $-1 -4.7999999999999998 -4.7999999999999998 4.7999999999999998 0 0 1 0 -0.20000000000000018 0 1 F -1.5707963267948966 F -0 #
coedge $-1 -1 -1 $-1 $213 $209 $300 $301 reversed $214 $-1 #
vertex $-1 -1 -1 $-1 $301 $302 #
straight-curve $-1 -1 -1 $-1 0 -4.7999999999999998 -5 1 -0 -0 F -5.2640010000000004 F 5.2640010000000004 #
face $-1 -1 -1 $-1 $281 $240 $2 $-1 $303 forward single T -5 -5 -4.7999999999999998 -4.7999999999999998 -4.7999999999999998 4.7999999999999998 F #
cone-surface $-1 -1 -1 $-1 0 -4.7999999999999998 -4.7999999999999998 -1 0 0 0 -0.14142135623730953 -0.14142135623730953 1 I I 0 1 0.20000000000000004 forward I I I I #
ellipse-curve $-1 -1 -1 $-1 4.7999999999999998 4.7999999999999998 -4.7999999999999998 -0 1 0 0 0 -0.20000000000000018 1 F -1.5707963267948966 F -0 #
coedge $-1 -1 -1 $-1 $266 $250 $213 $264 forward $267 $-1 #
edge $-1 -1 -1 $-1 $215 -4.7999999999999998 $304 4.7999999999999998 $213 $305 forward @7 tangent T -4.7999999999999998 4.7999999999999998 -5 4.7999999999999998 4.7999999999999998 -5 #
point $-1 -1 -1 $-1 4.7999999999999998 4.7999999999999998 -5 #
coedge $-1 -1 -1 $-1 $219 $263 $306 $307 forward $267 $-1 #
loop $-1 -1 -1 $-1 $-1 $250 $235 T -4.7999999999999998 4.7999999999999998 -5 4.7999999999999998 5 -4.7999999999999998 unknown #
straight-curve $-1 -1 -1 $-1 0 5 -4.7999999999999998 1 0 0 F -5.2640010000000004 F 5.2640010000000004 #
coedge $-1 -1 -1 $-1 $222 $226 $308 $309 forward $227 $-1 #
vertex $-1 -1 -1 $-1 $309 $310 #
ellipse-curve $-1 -1 -1 $-1 -4.7999999999999998 4.7999999999999998 4.7999999999999998 0 -0 1 -0.20000000000000018 0 0 1 F -1.5707963267948966 F -0 #
ellipse-curve $-1 -1 -1 $-1 -4.7999999999999998 4.7999999999999998 4.7999999999999998 0 1 -0 0 0 0.20000000000000018 1 F -1.5707963267948966 F -0 #
coedge $-1 -1 -1 $-1 $306 $311 $226 $274 reversed $236 $-1 #
edge $-1 -1 -1 $-1 $228 -0 $312 1.5707963267948966 $226 $313 reversed @7 tangent T -5 4.7999999999999998 -4.7999999999999998 -4.7999999999999998 5 -4.7999999999999998 #
face $-1 -1 -1 $-1 $211 $227 $2 $-1 $314 forward single T -5 4.7999999999999998 -4.7999999999999998 -4.7999999999999998 5 4.7999999999999998 F #
point $-1 -1 -1 $-1 -4.7999999999999998 5 -4.7999999999999998 #
face $-1 -1 -1 $-1 $315 $316 $2 $-1 $317 reversed single T -1 2.8284271247461903 -1.0000000000000002 1 5 0.99999999999999978 F #
loop $-1 -1 -1 $-1 $318 $319 $230 T -5 -1 -1.0000000000000002 -5 1 0.99999999999999967 unknown #
plane-surface $-1 -1 -1 $-1 -5 0 0 1 0 0 0 0 -1 forward_v I I I I #
coedge $-1 -1 -1 $-1 $280 $280 $320 $321 forward $231 $-1 #
face $-1 -1 -1 $-1 $125 $233 $2 $-1 $322 forward single T -5 -4.7999999999999998 4.7999999999999998 -4.7999999999999998 4.7999999999999998 5 F #
face $-1 -1 -1 $-1 $275 $323 $2 $-1 $324 forward single T -5 -4.7999999999999998 -5 -4.7999999999999998 4.7999999999999998 -4.7999999999999998 F #
cone-surface $-1 -1 -1 $-1 0 4.7999999999999998 -4.7999999999999998 1 0 -0 0 0.14142135623730953 -0.14142135623730953 1 I I 0 1 0.20000000000000004 forward I I I I #
coedge $-1 -1 -1 $-1 $243 $238 $325 $326 reversed $184 $-1 #
edge $-1 -1 -1 $-1 $327 -0 $194 1.5707963267948966 $239 $328 reversed @7 tangent T -5 -5 -4.7999999999999998 -4.7999999999999998 -4.7999999999999998 -4.7999999999999998 #
coedge $-1 -1 -1 $-1 $286 $286 $242 $287 reversed $329 $-1 #
edge $-1 -1 -1 $-1 $330 0 $330 6.2831853071795862 $242 $331 forward @7 unknown T -1 -1 5 1 1 5 #
ellipse-curve $-1 -1 -1 $-1 -4.7999999999999998 -4.7999999999999998 -4.7999999999999998 -1 -0 -0 0 -0.20000000000000018 0 1 F -1.5707963267948966 F -0 #
coedge $-1 -1 -1 $-1 $289 $289 $332 $333 forward $246 $-1 #
coedge $-1 -1 -1 $-1 $290 $290 $248 $291 reversed $334 $-1 #
edge $-1 -1 -1 $-1 $335 0 $335 6.2831853071795862 $248 $336 forward @7 unknown T -1 -5 -0.99999999999999967 1 -5 1.0000000000000002 #
coedge $-1 -1 -1 $-1 $292 $292 $249 $293 reversed $337 $-1 #
edge $-1 -1 -1 $-1 $338 0 $338 6.2831853071795862 $249 $339 forward @7 unknown T 5 -1 -0.99999999999999967 5 1 1.0000000000000002 #
ellipse-curve $-1 -1 -1 $-1 4.7999999999999998 4.7999999999999998 -4.7999999999999998 1 -0 0 0 0.20000000000000018 0 1 F -1.5707963267948966 F -0 #
coedge $-1 -1 -1 $-1 $308 $299 $252 $296 reversed $318 $-1 #
edge $-1 -1 -1 $-1 $270 -4.7999999999999998 $253 4.7999999999999998 $295 $340 forward @7 tangent T -5 -4.7999999999999998 4.7999999999999998 -5 4.7999999999999998 4.7999999999999998 #
edge $-1 -1 -1 $-1 $253 -4.7999999999999998 $327 4.7999999999999998 $299 $341 forward @7 tangent T -5 -4.7999999999999998 -4.7999999999999998 -5 -4.7999999999999998 4.7999999999999998 #
point $-1 -1 -1 $-1 -5 -4.7999999999999998 4.7999999999999998 #
coedge $-1 -1 -1 $-1 $295 $342 $255 $297 reversed $318 $-1 #
coedge $-1 -1 -1 $-1 $325 $343 $257 $301 forward $323 $-1 #
edge $-1 -1 -1 $-1 $304 -4.7999999999999998 $258 4.7999999999999998 $257 $344 forward @7 tangent T -4.7999999999999998 -4.7999999999999998 -5 -4.7999999999999998 4.7999999999999998 -5 #
point $-1 -1 -1 $-1 -4.7999999999999998 -4.7999999999999998 -5 #
cone-surface $-1 -1 -1 $-1 -4.7999999999999998 -4.7999999999999998 0 0 -0 -1 -0.14142135623730953 -0.14142135623730953 0 1 I I 0 1 0.20000000000000004 forward I I I I #
vertex $-1 -1 -1 $-1 $264 $345 #
straight-curve $-1 -1 -1 $-1 0 4.7999999999999998 -5 -1 -0 -0 F -5.2640010000000004 F 5.2640010000000004 #
coedge $-1 -1 -1 $-1 $311 $273 $266 $307 reversed $236 $-1 #
edge $-1 -1 -1 $-1 $304 -0 $228 1.5707963267948966 $266 $346 reversed @7 tangent T -4.7999999999999998 4.7999999999999998 -5 -4.7999999999999998 5 -4.7999999999999998 #
coedge $-1 -1 -1 $-1 $342 $295 $269 $309 reversed $318 $-1 #
edge $-1 -1 -1 $-1 $312 -4.7999999999999998 $270 4.7999999999999998 $308 $347 forward @7 tangent T -5 4.7999999999999998 -4.7999999999999998 -5 4.7999999999999998 4.7999999999999998 #
point $-1 -1 -1 $-1 -5 4.7999999999999998 4.7999999999999998 #
coedge $-1 -1 -1 $-1 $273 $306 $343 $348 reversed $236 $-1 #
vertex $-1 -1 -1 $-1 $349 $350 #
ellipse-curve $-1 -1 -1 $-1 -4.7999999999999998 4.7999999999999998 -4.7999999999999998 0 0 -1 0 0.20000000000000018 0 1 F -1.5707963267948966 F -0 #
cone-surface $-1 -1 -1 $-1 -4.7999999999999998 4.7999999999999998 0 0 0 -1 -0.14142135623730953 0.14142135623730953 0 1 I I 0 1 0.20000000000000004 forward I I I I #
face $-1 -1 -1 $-1 $351 $352 $2 $-1 $317 reversed single T -1 -5 -0.99999999999999978 1 -2.8284271247461903 1.0000000000000002 F #
loop $-1 -1 -1 $-1 $353 $354 $277 T -1 2.8284271247461903 -1.0000000000000002 1 2.8284271247461903 0.99999999999999978 unknown #
cone-surface $-1 -1 -1 $-1 0 0 0 0 -1 6.1232339957367648e-17 1 0 0 1 I I 0 1 1 forward I I I I #
loop $-1 -1 -1 $-1 $-1 $342 $230 T -5 -4.7999999999999998 -4.7999999999999998 -5 4.7999999999999998 4.7999999999999998 unknown #
coedge $-1 -1 -1 $-1 $319 $319 $355 $356 forward $278 $-1 #
coedge $-1 -1 -1 $-1 $320 $320 $280 $321 reversed $353 $-1 #
edge $-1 -1 -1 $-1 $357 0 $357 6.2831853071795862 $280 $358 forward @7 unknown T -1 5 -1.0000000000000002 1 5 0.99999999999999967 #
cone-surface $-1 -1 -1 $-1 -4.7999999999999998 0 4.7999999999999998 0 -1 0 -0.14142135623730953 0 0.14142135623730953 1 I I 0 1 0.20000000000000004 forward I I I I #
loop $-1 -1 -1 $-1 $-1 $343 $282 T -5 -4.7999999999999998 -5 -4.7999999999999998 4.7999999999999998 -4.7999999999999998 unknown #
cone-surface $-1 -1 -1 $-1 -4.7999999999999998 0 -4.7999999999999998 0 1 0 -0.14142135623730953 0 -0.14142135623730953 1 I I 0 1 0.20000000000000004 forward I I I I #
coedge $-1 -1 -1 $-1 $359 $300 $284 $326 forward $323 $-1 #
edge $-1 -1 -1 $-1 $258 -0 $327 1.5707963267948966 $325 $360 reversed @7 tangent T -5 -4.7999999999999998 -5 -4.7999999999999998 -4.7999999999999998 -4.7999999999999998 #
vertex $-1 -1 -1 $-1 $349 $361 #
ellipse-curve $-1 -1 -1 $-1 -4.7999999999999998 -4.7999999999999998 -4.7999999999999998 -0 -0 -1 -0.20000000000000018 0 0 1 F -1.5707963267948966 F -0 #
loop $-1 -1 -1 $-1 $-1 $286 $362 T -1 -1 5 1 1 5 unknown #
vertex $-1 -1 -1 $-1 $287 $363 #
ellipse-curve $-1 -1 -1 $-1 0 0 5 -0 -0 -1 1 0 0 1 I I #
coedge $-1 -1 -1 $-1 $332 $332 $289 $333 reversed $364 $-1 #
edge $-1 -1 -1 $-1 $365 0 $365 6.2831853071795862 $289 $366 forward @7 unknown T -1 -1 -5 1 1 -5 #
loop $-1 -1 -1 $-1 $-1 $290 $315 T -1 -5 -0.99999999999999967 1 -5 1.0000000000000002 unknown #
vertex $-1 -1 -1 $-1 $291 $367 #
ellipse-curve $-1 -1 -1 $-1 0 -5 3.0616169978683826e-16 0 1 -0 1 0 0 1 I I #
loop $-1 -1 -1 $-1 $-1 $292 $368 T 5 -1 -0.99999999999999967 5 1 1.0000000000000002 unknown #
vertex $-1 -1 -1 $-1 $293 $369 #
ellipse-curve $-1 -1 -1 $-1 5 0 3.0616169978683826e-16 -1 0 0 6.1232339957367648e-17 0 -1 1 I I #
straight-curve $-1 -1 -1 $-1 -5 0 4.7999999999999998 0 -1 0 F -5.2640010000000004 F 5.2640010000000004 #
straight-curve $-1 -1 -1 $-1 -5 -4.7999999999999998 0 0 0 -1 F -5.2640010000000004 F 5.2640010000000004 #
coedge $-1 -1 -1 $-1 $299 $308 $359 $349 reversed $318 $-1 #
coedge $-1 -1 -1 $-1 $300 $359 $311 $348 forward $323 $-1 #
straight-curve $-1 -1 -1 $-1 -4.7999999999999998 0 -5 -0 -1 -0 F -5.2640010000000004 F 5.2640010000000004 #
point $-1 -1 -1 $-1 -4.7999999999999998 4.7999999999999998 -5 #
ellipse-curve $-1 -1 -1 $-1 -4.7999999999999998 4.7999999999999998 -4.7999999999999998 -1 0 0 0 0 -0.20000000000000018 1 F -1.5707963267948966 F -0 #
straight-curve $-1 -1 -1 $-1 -5 4.7999999999999998 0 -0 -0 1 F -5.2640010000000004 F 5.2640010000000004 #
edge $-1 -1 -1 $-1 $312 -0 $304 1.5707963267948966 $343 $370 reversed @7 tangent T -5 4.7999999999999998 -5 -4.7999999999999998 4.7999999999999998 -4.7999999999999998 #
edge $-1 -1 -1 $-1 $327 -4.7999999999999998 $312 4.7999999999999998 $342 $371 forward @7 tangent T -5 -4.7999999999999998 -4.7999999999999998 -5 4.7999999999999998 -4.7999999999999998 #
point $-1 -1 -1 $-1 -5 4.7999999999999998 -4.7999999999999998 #
face $-1 -1 -1 $-1 $372 $373 $2 $-1 $374 reversed single T -2.8284271247461903 -2.8284271247461903 -2.8284271247461903 2.8284271247461903 2.8284271247461903 2.8284271247461903 F #
loop $-1 -1 -1 $-1 $334 $375 $315 T -1 -2.8284271247461903 -0.99999999999999978 1 -2.8284271247461903 1.0000000000000002 unknown #
loop $-1 -1 -1 $-1 $-1 $320 $277 T -1 5 -1.0000000000000002 1 5 0.99999999999999967 unknown #
coedge $-1 -1 -1 $-1 $354 $354 $376 $377 reversed $316 $-1 #
coedge $-1 -1 -1 $-1 $355 $355 $319 $356 reversed $378 $-1 #
edge $-1 -1 -1 $-1 $379 0 $379 6.2831853071795862 $319 $380 forward @7 unknown T -5 -1 -1.0000000000000002 -5 1 0.99999999999999967 #
vertex $-1 -1 -1 $-1 $321 $381 #
ellipse-curve $-1 -1 -1 $-1 0 5 -3.0616169978683826e-16 0 -1 0 1 0 0 1 I I #
coedge $-1 -1 -1 $-1 $343 $325 $342 $349 forward $323 $-1 #
ellipse-curve $-1 -1 -1 $-1 -4.7999999999999998 -4.7999999999999998 -4.7999999999999998 -0 -1 -0 0 0 -0.20000000000000018 1 F -1.5707963267948966 F -0 #
point $-1 -1 -1 $-1 -5 -4.7999999999999998 -4.7999999999999998 #
face $-1 -1 -1 $-1 $-1 $382 $2 $-1 $383 reversed single T -1 -1 2.8284271247461903 1 1 5 F #
point $-1 -1 -1 $-1 1 0 5 #
loop $-1 -1 -1 $-1 $-1 $332 $384 T -1 -1 -5 1 1 -5 unknown #
vertex $-1 -1 -1 $-1 $333 $385 #
ellipse-curve $-1 -1 -1 $-1 0 0 -5 0 0 1 1 0 0 1 I I #
point $-1 -1 -1 $-1 1 -5 3.0616169978683826e-16 #
face $-1 -1 -1 $-1 $384 $386 $2 $-1 $387 reversed single T 2.8284271247461903 -1 -0.99999999999999978 5 1 1.0000000000000002 F #
point $-1 -1 -1 $-1 5 0 -0.99999999999999967 #
ellipse-curve $-1 -1 -1 $-1 -4.7999999999999998 4.7999999999999998 -4.7999999999999998 0 1 0 -0.20000000000000018 0 0 1 F -1.5707963267948966 F -0 #
straight-curve $-1 -1 -1 $-1 -5 0 -4.7999999999999998 0 1 0 F -5.2640010000000004 F 5.2640010000000004 #
face $-1 -1 -1 $-1 $368 $388 $2 $-1 $387 reversed single T -5 -1 -1.0000000000000002 -2.8284271247461903 1 0.99999999999999978 F #
loop $-1 -1 -1 $-1 $389 $390 $351 T 2.8284271247461903 -1 -0.99999999999999978 2.8284271247461903 1 1.0000000000000002 unknown #
sphere-surface $-1 -1 -1 $-1 0 0 0 3 1 0 0 0 0 1 forward_v I I I I #
coedge $-1 -1 -1 $-1 $375 $375 $391 $392 reversed $352 $-1 #
coedge $-1 -1 -1 $-1 $376 $376 $354 $377 forward $393 $-1 #
edge $-1 -1 -1 $-1 $394 -3.1415926535897931 $394 3.1415926535897931 $376 $395 forward @7 unknown T -1 2.8284271247461903 -1.0000000000000002 1 2.8284271247461903 0.99999999999999978 #
loop $-1 -1 -1 $-1 $-1 $355 $372 T -5 -1 -1.0000000000000002 -5 1 0.99999999999999967 unknown #
vertex $-1 -1 -1 $-1 $356 $396 #
ellipse-curve $-1 -1 -1 $-1 -5 0 -3.0616169978683826e-16 1 0 0 6.1232339957367648e-17 0 -1 1 I I #
point $-1 -1 -1 $-1 1 5 -3.0616169978683826e-16 #
loop $-1 -1 -1 $-1 $329 $397 $362 T -1 -1 2.8284271247461903 1 1 2.8284271247461903 unknown #
cone-surface $-1 -1 -1 $-1 0 0 0 0 0 1 1 0 0 1 I I 0 1 1 forward I I I I #
face $-1 -1 -1 $-1 $362 $398 $2 $-1 $383 reversed single T -1 -1 -5 1 1 -2.8284271247461903 F #
point $-1 -1 -1 $-1 1 0 -5 #
loop $-1 -1 -1 $-1 $337 $399 $368 T 2.8284271247461903 -1 -0.99999999999999978 2.8284271247461903 1 1.0000000000000002 unknown #
cone-surface $-1 -1 -1 $-1 0 0 0 1 0 6.1232339957367648e-17 6.1232339957367648e-17 0 -1 1 I I 0 1 1 forward I I I I #
loop $-1 -1 -1 $-1 $378 $400 $372 T -2.8284271247461903 -1 -1.0000000000000002 -2.8284271247461903 1 0.99999999999999978 unknown #
loop $-1 -1 -1 $-1 $401 $402 $351 T -2.8284271247461903 -1 -1.0000000000000002 -2.8284271247461903 1 0.99999999999999978 unknown #
coedge $-1 -1 -1 $-1 $390 $390 $399 $403 forward $373 $-1 #
coedge $-1 -1 -1 $-1 $391 $391 $375 $392 forward $404 $-1 #
edge $-1 -1 -1 $-1 $405 -3.1415926535897931 $405 3.1415926535897931 $391 $406 forward @7 unknown T -1 -2.8284271247461903 -0.99999999999999978 1 -2.8284271247461903 1.0000000000000002 #
loop $-1 -1 -1 $-1 $404 $376 $351 T -1 2.8284271247461903 -1.0000000000000002 1 2.8284271247461903 0.99999999999999978 unknown #
vertex $-1 -1 -1 $-1 $377 $407 #
ellipse-curve $-1 -1 -1 $-1 0 2.8284271247461903 -1.7319121124709863e-16 -0 1 -6.1232339957367648e-17 1 0 0 1 I I #
point $-1 -1 -1 $-1 -5 0 -1.0000000000000002 #
coedge $-1 -1 -1 $-1 $397 $397 $408 $409 reversed $382 $-1 #
loop $-1 -1 -1 $-1 $364 $410 $384 T -1 -1 -2.8284271247461903 1 1 -2.8284271247461903 unknown #
coedge $-1 -1 -1 $-1 $399 $399 $390 $403 reversed $386 $-1 #
coedge $-1 -1 -1 $-1 $400 $400 $402 $411 reversed $388 $-1 #
loop $-1 -1 -1 $-1 $412 $413 $351 T -1 -1 -2.8284271247461903 1 1 -2.8284271247461903 unknown #
coedge $-1 -1 -1 $-1 $402 $402 $400 $411 forward $389 $-1 #
edge $-1 -1 -1 $-1 $414 -3.1415926535897931 $414 3.1415926535897931 $390 $415 forward @7 unknown T 2.8284271247461903 -1 -0.99999999999999978 2.8284271247461903 1 1.0000000000000002 #
loop $-1 -1 -1 $-1 $-1 $391 $351 T -1 -2.8284271247461903 -0.99999999999999978 1 -2.8284271247461903 1.0000000000000002 unknown #
vertex $-1 -1 -1 $-1 $392 $416 #
ellipse-curve $-1 -1 -1 $-1 0 -2.8284271247461903 1.7319121124709863e-16 0 -1 6.1232339957367648e-17 1 0 0 1 I I #
point $-1 -1 -1 $-1 -1 2.8284271247461903 -5.0726531332363336e-17 #
coedge $-1 -1 -1 $-1 $408 $408 $397 $409 forward $412 $-1 #
edge $-1 -1 -1 $-1 $417 -3.1415926535897931 $417 3.1415926535897931 $408 $418 forward @7 unknown T -1 -1 2.8284271247461903 1 1 2.8284271247461903 #
coedge $-1 -1 -1 $-1 $410 $410 $413 $419 reversed $398 $-1 #
edge $-1 -1 -1 $-1 $420 -3.1415926535897931 $420 3.1415926535897931 $402 $421 forward @7 unknown T -2.8284271247461903 -1 -1.0000000000000002 -2.8284271247461903 1 0.99999999999999978 #
loop $-1 -1 -1 $-1 $393 $408 $351 T -1 -1 2.8284271247461903 1 1 2.8284271247461903 unknown #
coedge $-1 -1 -1 $-1 $413 $413 $410 $419 forward $401 $-1 #
vertex $-1 -1 -1 $-1 $403 $422 #
ellipse-curve $-1 -1 -1 $-1 2.8284271247461903 0 1.7319121124709863e-16 1 0 6.1232339957367648e-17 0 0 -1 1 I I #
point $-1 -1 -1 $-1 -1 -2.8284271247461903 5.0726531332363336e-17 #
vertex $-1 -1 -1 $-1 $409 $423 #
ellipse-curve $-1 -1 -1 $-1 0 0 2.8284271247461903 0 0 1 1 0 0 1 I I #
edge $-1 -1 -1 $-1 $424 -3.1415926535897931 $424 3.1415926535897931 $413 $425 forward @7 unknown T -1 -1 -2.8284271247461903 1 1 -2.8284271247461903 #
vertex $-1 -1 -1 $-1 $411 $426 #
ellipse-curve $-1 -1 -1 $-1 -2.8284271247461903 0 -1.7319121124709863e-16 -1 -0 -6.1232339957367648e-17 0 0 -1 1 I I #
point $-1 -1 -1 $-1 2.8284271247461903 -1.224646799147353e-16 1.0000000000000002 #
point $-1 -1 -1 $-1 -1 -1.224646799147353e-16 2.8284271247461903 #
vertex $-1 -1 -1 $-1 $419 $427 #
ellipse-curve $-1 -1 -1 $-1 0 0 -2.8284271247461903 -0 -0 -1 1 0 0 1 I I #
point $-1 -1 -1 $-1 -2.8284271247461903 1.224646799147353e-16 0.99999999999999978 #
point $-1 -1 -1 $-1 -1 1.224646799147353e-16 -2.8284271247461903 #
End-of-ACIS-data 